<svg xmlns="http://www.w3.org/2000/svg" width="26" height="26" viewBox="0 0 26 26">
  <path id="ic24-shopping-cart" d="M10.45,24.1A1.95,1.95,0,1,1,8.5,26.05,1.95,1.95,0,0,1,10.45,24.1Zm11.7,0a1.95,1.95,0,1,1-1.95,1.95A1.95,1.95,0,0,1,22.15,24.1ZM3.3,2H5.9a1.3,1.3,0,0,1,1.255.959l.03.143.63,4.1H26.7a1.3,1.3,0,0,1,1.294,1.43l-.025.152-2.148,9.664a3.9,3.9,0,0,1-3.57,3.047l-.237.007H10.73a3.9,3.9,0,0,1-3.813-3.081l-.042-.226L4.785,4.6H3.3a1.3,1.3,0,0,1-.152-2.591L3.3,2h0ZM25.079,9.8H8.215l1.23,8a1.3,1.3,0,0,0,1.139,1.094l.146.008H22.014a1.3,1.3,0,0,0,1.228-.873l.041-.145Z" transform="translate(-2 -2)" fill-rule="evenodd"/>
</svg>
