<svg xmlns="http://www.w3.org/2000/svg" width="14.602" height="10.809" viewBox="0 0 14.602 10.809">
  <path id="&#x41E;&#x431;&#x44A;&#x435;&#x434;&#x438;&#x43D;&#x435;&#x43D;&#x438;&#x435;_175" data-name="&#x41E;&#x431;&#x44A;&#x435;&#x434;&#x438;&#x43D;&#x435;&#x43D;&#x438;&#x435; 175" d="M20848.643,23479.186a2.266,2.266,0,0,1-2.24-1.891l-1.027-3.535v-.006h-1.006a.367.367,0,1,1,0-.734h1.541l1.768-3.807a.375.375,0,0,1,.494-.176.365.365,0,0,1,.174.486l-1.625,3.5h8.559l-1.631-3.5a.368.368,0,0,1,.668-.311l1.77,3.807h1.545a.367.367,0,0,1,0,.734h-1.006v.006l-1.025,3.535a2.275,2.275,0,0,1-2.248,1.891Zm-1.527-2.078a.116.116,0,0,0,.01.045,1.533,1.533,0,0,0,1.518,1.295h4.709a1.537,1.537,0,0,0,1.523-1.295.207.207,0,0,1,.01-.045l.973-3.354h-9.719Z" transform="translate(-20843.697 -23468.678)" stroke="#fff" stroke-miterlimit="10" stroke-width="0.6"/>
</svg>
