<svg xmlns="http://www.w3.org/2000/svg" width="20" height="22" viewBox="0 0 20 22">
  <g id="Food-3" transform="translate(-3 -2.3)">
    <g id="&#x421;&#x433;&#x440;&#x443;&#x43F;&#x43F;&#x438;&#x440;&#x43E;&#x432;&#x430;&#x442;&#x44C;_5224" data-name="&#x421;&#x433;&#x440;&#x443;&#x43F;&#x43F;&#x438;&#x440;&#x43E;&#x432;&#x430;&#x442;&#x44C; 5224" transform="translate(6.529 12.535)">
      <rect id="&#x41F;&#x440;&#x44F;&#x43C;&#x43E;&#x443;&#x433;&#x43E;&#x43B;&#x44C;&#x43D;&#x438;&#x43A;_7966" data-name="&#x41F;&#x440;&#x44F;&#x43C;&#x43E;&#x443;&#x433;&#x43E;&#x43B;&#x44C;&#x43D;&#x438;&#x43A; 7966" width="2.353" height="11.765" transform="translate(0 0)"/>
    </g>
    <g id="&#x421;&#x433;&#x440;&#x443;&#x43F;&#x43F;&#x438;&#x440;&#x43E;&#x432;&#x430;&#x442;&#x44C;_5225" data-name="&#x421;&#x433;&#x440;&#x443;&#x43F;&#x43F;&#x438;&#x440;&#x43E;&#x432;&#x430;&#x442;&#x44C; 5225" transform="translate(6.529 3.124)">
      <rect id="&#x41F;&#x440;&#x44F;&#x43C;&#x43E;&#x443;&#x433;&#x43E;&#x43B;&#x44C;&#x43D;&#x438;&#x43A;_7967" data-name="&#x41F;&#x440;&#x44F;&#x43C;&#x43E;&#x443;&#x433;&#x43E;&#x43B;&#x44C;&#x43D;&#x438;&#x43A; 7967" width="2.353" height="9.412"/>
    </g>
    <g id="&#x421;&#x433;&#x440;&#x443;&#x43F;&#x43F;&#x438;&#x440;&#x43E;&#x432;&#x430;&#x442;&#x44C;_5226" data-name="&#x421;&#x433;&#x440;&#x443;&#x43F;&#x43F;&#x438;&#x440;&#x43E;&#x432;&#x430;&#x442;&#x44C; 5226" transform="translate(3 3.124)">
      <path id="&#x41A;&#x43E;&#x43D;&#x442;&#x443;&#x440;_11304" data-name="&#x41A;&#x43E;&#x43D;&#x442;&#x443;&#x440; 11304" d="M10.059,13.588H5.353A2.355,2.355,0,0,1,3,11.235V3H5.353v8.235h4.706V3h2.353v8.235A2.355,2.355,0,0,1,10.059,13.588Z" transform="translate(-3 -3)"/>
    </g>
    <g id="&#x421;&#x433;&#x440;&#x443;&#x43F;&#x43F;&#x438;&#x440;&#x43E;&#x432;&#x430;&#x442;&#x44C;_5227" data-name="&#x421;&#x433;&#x440;&#x443;&#x43F;&#x43F;&#x438;&#x440;&#x43E;&#x432;&#x430;&#x442;&#x44C; 5227" transform="translate(14.903 2.3)">
      <path id="&#x41A;&#x43E;&#x43D;&#x442;&#x443;&#x440;_11305" data-name="&#x41A;&#x43E;&#x43D;&#x442;&#x443;&#x440; 11305" d="M21.215,24.3H18.862V19.594H15.47a2.354,2.354,0,0,1-2.338-2.614l.779-7.006a10.632,10.632,0,0,1,1.713-4.7l1.28-1.92a2.353,2.353,0,0,1,4.311,1.307ZM18.862,4.656l-1.28,1.92a8.268,8.268,0,0,0-1.333,3.659l-.779,7.006h3.392Z" transform="translate(-13.118 -2.3)"/>
    </g>
  </g>
</svg>
