<svg xmlns="http://www.w3.org/2000/svg" width="44.413" height="26.8" viewBox="0 0 44.413 26.8">
  <g id="shipping" transform="translate(0.4 -102.985)">
    <g id="&#x421;&#x433;&#x440;&#x443;&#x43F;&#x43F;&#x438;&#x440;&#x43E;&#x432;&#x430;&#x442;&#x44C;_4591" data-name="&#x421;&#x433;&#x440;&#x443;&#x43F;&#x43F;&#x438;&#x440;&#x43E;&#x432;&#x430;&#x442;&#x44C; 4591" transform="translate(0 103.385)">
      <g id="&#x421;&#x433;&#x440;&#x443;&#x43F;&#x43F;&#x438;&#x440;&#x43E;&#x432;&#x430;&#x442;&#x44C;_4590" data-name="&#x421;&#x433;&#x440;&#x443;&#x43F;&#x43F;&#x438;&#x440;&#x43E;&#x432;&#x430;&#x442;&#x44C; 4590">
        <path id="&#x41A;&#x43E;&#x43D;&#x442;&#x443;&#x440;_11059" data-name="&#x41A;&#x43E;&#x43D;&#x442;&#x443;&#x440; 11059" d="M43.5,117.546,42,114.218h0l-2.276-5.059a1.258,1.258,0,0,0-1.147-.742H31.452v-2.1a2.939,2.939,0,0,0-2.936-2.935H2.936A2.939,2.939,0,0,0,0,106.32v16.774a2.939,2.939,0,0,0,2.936,2.936H5.627a4.612,4.612,0,0,0,8.874,0H25.756a4.612,4.612,0,0,0,8.874,0h6.047a2.939,2.939,0,0,0,2.936-2.936v-5.032A1.257,1.257,0,0,0,43.5,117.546Zm-12.05-6.613h6.316l1.132,2.516H31.452ZM10.065,126.869a2.1,2.1,0,1,1,2.1-2.1A2.1,2.1,0,0,1,10.065,126.869Zm17.834-6.1-.067.038c-.075.045-.149.091-.221.14l-.031.022q-.093.064-.183.133l-.067.052q-.073.058-.144.12l-.062.054c-.063.057-.125.114-.186.174l-.01.01c-.06.06-.118.122-.174.186l-.054.062q-.061.071-.12.144l-.053.067q-.069.09-.133.183l-.022.031c-.049.072-.1.146-.14.221l-.039.067q-.048.083-.093.169l-.039.076q-.047.1-.09.193l-.022.05q-.052.122-.1.247c-.008.022-.015.045-.023.067q-.033.1-.061.192c0,.014-.009.028-.014.043H14.5c-.007-.023-.014-.046-.021-.069s-.014-.048-.022-.072c-.015-.047-.031-.094-.048-.141-.007-.019-.013-.039-.02-.058-.024-.065-.05-.13-.077-.194l-.009-.02q-.037-.085-.076-.169l-.03-.06c-.021-.042-.042-.085-.065-.126l-.036-.066q-.033-.06-.068-.119l-.037-.062c-.027-.044-.055-.086-.083-.129l-.029-.044q-.058-.085-.12-.168l-.022-.028c-.034-.045-.069-.09-.1-.133l-.044-.052q-.045-.053-.091-.105l-.05-.054q-.047-.051-.1-.1l-.049-.05c-.038-.038-.077-.074-.116-.11l-.033-.031q-.076-.069-.156-.135l-.036-.029c-.041-.033-.083-.066-.125-.1l-.057-.042-.112-.08-.061-.042-.117-.075-.058-.036q-.073-.044-.147-.085l-.032-.018q-.091-.049-.184-.095l-.05-.023c-.046-.022-.092-.043-.139-.063l-.068-.028-.128-.051-.071-.026-.135-.046-.065-.021q-.089-.027-.179-.051l-.023-.007c-.068-.018-.137-.033-.206-.048l-.062-.012-.148-.026-.077-.011-.139-.018-.079-.008-.149-.011-.069,0c-.073,0-.146-.005-.219-.005s-.147,0-.219.006l-.069,0-.149.011-.079.008-.139.018-.077.011-.148.026-.062.012c-.069.014-.138.03-.206.048l-.023.007q-.09.024-.179.051l-.065.021-.135.046-.071.026-.128.051-.068.028c-.047.02-.093.041-.139.063l-.05.023q-.093.045-.184.095l-.032.018q-.074.041-.147.085l-.058.036-.117.075-.062.042-.112.08-.057.042c-.042.032-.084.065-.125.1l-.036.029q-.079.066-.156.135l-.033.031c-.039.036-.078.073-.116.11l-.049.05-.1.1-.05.054q-.047.052-.091.105l-.044.052q-.054.066-.1.133l-.022.028q-.062.083-.12.168l-.029.044c-.028.043-.056.086-.083.129l-.037.062c-.023.039-.046.079-.068.119l-.036.065c-.022.042-.044.084-.065.126l-.03.06q-.04.084-.076.169l-.009.02c-.027.064-.052.129-.077.194-.007.019-.013.038-.02.058-.017.047-.033.094-.048.141-.008.024-.015.048-.022.072s-.014.046-.021.069H2.936a.42.42,0,0,1-.419-.42V106.32a.42.42,0,0,1,.419-.419H28.516a.42.42,0,0,1,.419.419v14.013l-.041.013q-.1.029-.195.062l-.065.022q-.126.045-.248.1l-.048.022q-.1.043-.194.091l-.076.039Q27.982,120.725,27.9,120.773Zm2.295,6.1a2.1,2.1,0,1,1,2.1-2.1A2.1,2.1,0,0,1,30.194,126.869Zm10.9-3.774a.42.42,0,0,1-.419.419H34.632c0-.014-.009-.028-.014-.043q-.029-.1-.061-.192c-.008-.022-.015-.045-.023-.067q-.045-.125-.1-.247l-.022-.05q-.043-.1-.09-.193l-.039-.076q-.045-.086-.093-.169l-.039-.067c-.045-.075-.091-.149-.14-.221l-.022-.031q-.064-.093-.133-.183l-.053-.067q-.058-.073-.12-.144l-.054-.062c-.057-.063-.114-.126-.174-.186l-.01-.01c-.06-.06-.122-.118-.186-.174l-.062-.054q-.071-.061-.144-.12l-.067-.052q-.09-.069-.183-.133l-.031-.022c-.072-.049-.146-.1-.221-.14l-.067-.038q-.084-.048-.169-.093l-.076-.039q-.1-.048-.194-.091L32,120.528q-.122-.052-.248-.1l-.065-.022q-.1-.033-.195-.062l-.041-.013v-4.368h8.58l1.065,2.367v4.762Z" transform="translate(0 -103.385)" stroke="#fff" stroke-width="0.8"/>
      </g>
    </g>
    <g id="&#x421;&#x433;&#x440;&#x443;&#x43F;&#x43F;&#x438;&#x440;&#x43E;&#x432;&#x430;&#x442;&#x44C;_4593" data-name="&#x421;&#x433;&#x440;&#x443;&#x43F;&#x43F;&#x438;&#x440;&#x43E;&#x432;&#x430;&#x442;&#x44C; 4593" transform="translate(4.101 110.348)">
      <g id="&#x421;&#x433;&#x440;&#x443;&#x43F;&#x43F;&#x438;&#x440;&#x43E;&#x432;&#x430;&#x442;&#x44C;_4592" data-name="&#x421;&#x433;&#x440;&#x443;&#x43F;&#x43F;&#x438;&#x440;&#x43E;&#x432;&#x430;&#x442;&#x44C; 4592">
        <path id="&#x41A;&#x43E;&#x43D;&#x442;&#x443;&#x440;_11060" data-name="&#x41A;&#x43E;&#x43D;&#x442;&#x443;&#x440; 11060" d="M55.208,185.278H54.036V184.5h1.172a1.172,1.172,0,1,0,0-2.343H52.865a1.172,1.172,0,0,0-1.172,1.172v6.249a1.172,1.172,0,1,0,2.343,0v-1.953h1.172a1.172,1.172,0,0,0,0-2.343Z" transform="translate(-51.693 -182.154)" stroke="#fff" stroke-width="0.8"/>
      </g>
    </g>
    <g id="&#x421;&#x433;&#x440;&#x443;&#x43F;&#x43F;&#x438;&#x440;&#x43E;&#x432;&#x430;&#x442;&#x44C;_4595" data-name="&#x421;&#x433;&#x440;&#x443;&#x43F;&#x43F;&#x438;&#x440;&#x43E;&#x432;&#x430;&#x442;&#x44C; 4595" transform="translate(16.29 110.348)">
      <g id="&#x421;&#x433;&#x440;&#x443;&#x43F;&#x43F;&#x438;&#x440;&#x43E;&#x432;&#x430;&#x442;&#x44C;_4594" data-name="&#x421;&#x433;&#x440;&#x443;&#x43F;&#x43F;&#x438;&#x440;&#x43E;&#x432;&#x430;&#x442;&#x44C; 4594">
        <path id="&#x41A;&#x43E;&#x43D;&#x442;&#x443;&#x440;_11061" data-name="&#x41A;&#x43E;&#x43D;&#x442;&#x443;&#x440; 11061" d="M193.054,187.623a1.172,1.172,0,1,0,0-2.343h-1.172V184.5h1.172a1.172,1.172,0,0,0,0-2.343h-2.343a1.172,1.172,0,0,0-1.172,1.172v6.249a1.172,1.172,0,0,0,1.172,1.172h2.343a1.172,1.172,0,0,0,0-2.343h-1.172v-.781h1.172Z" transform="translate(-189.539 -182.155)" stroke="#fff" stroke-width="0.8"/>
      </g>
    </g>
    <g id="&#x421;&#x433;&#x440;&#x443;&#x43F;&#x43F;&#x438;&#x440;&#x43E;&#x432;&#x430;&#x442;&#x44C;_4597" data-name="&#x421;&#x433;&#x440;&#x443;&#x43F;&#x43F;&#x438;&#x440;&#x43E;&#x432;&#x430;&#x442;&#x44C; 4597" transform="translate(22.213 110.348)">
      <g id="&#x421;&#x433;&#x440;&#x443;&#x43F;&#x43F;&#x438;&#x440;&#x43E;&#x432;&#x430;&#x442;&#x44C;_4596" data-name="&#x421;&#x433;&#x440;&#x443;&#x43F;&#x43F;&#x438;&#x440;&#x43E;&#x432;&#x430;&#x442;&#x44C; 4596">
        <path id="&#x41A;&#x43E;&#x43D;&#x442;&#x443;&#x440;_11062" data-name="&#x41A;&#x43E;&#x43D;&#x442;&#x443;&#x440; 11062" d="M261.977,187.623a1.172,1.172,0,0,0,0-2.343h-1.172V184.5h1.172a1.172,1.172,0,0,0,0-2.343h-2.343a1.172,1.172,0,0,0-1.172,1.172v6.249a1.172,1.172,0,0,0,1.172,1.172h2.343a1.172,1.172,0,0,0,0-2.343h-1.172v-.781h1.172Z" transform="translate(-258.462 -182.155)" stroke="#fff" stroke-width="0.8"/>
      </g>
    </g>
    <g id="&#x421;&#x433;&#x440;&#x443;&#x43F;&#x43F;&#x438;&#x440;&#x43E;&#x432;&#x430;&#x442;&#x44C;_4599" data-name="&#x421;&#x433;&#x440;&#x443;&#x43F;&#x43F;&#x438;&#x440;&#x43E;&#x432;&#x430;&#x442;&#x44C; 4599" transform="translate(10.366 110.348)">
      <g id="&#x421;&#x433;&#x440;&#x443;&#x43F;&#x43F;&#x438;&#x440;&#x43E;&#x432;&#x430;&#x442;&#x44C;_4598" data-name="&#x421;&#x433;&#x440;&#x443;&#x43F;&#x43F;&#x438;&#x440;&#x43E;&#x432;&#x430;&#x442;&#x44C; 4598">
        <path id="&#x41A;&#x43E;&#x43D;&#x442;&#x443;&#x440;_11063" data-name="&#x41A;&#x43E;&#x43D;&#x442;&#x443;&#x440; 11063" d="M123.88,187.286a2.733,2.733,0,0,0-1.311-5.132h-.781a1.172,1.172,0,0,0-1.172,1.172v6.249a1.171,1.171,0,0,0,2.3.327l.282.375a1.172,1.172,0,0,0,1.875-1.406Z" transform="translate(-120.616 -182.154)" stroke="#fff" stroke-width="0.8"/>
      </g>
    </g>
  </g>
</svg>
