<svg xmlns="http://www.w3.org/2000/svg" width="20" height="20" viewBox="0 0 20 20">
  <path id="ic24-key" d="M18,2a1,1,0,0,1,.707.293l3,3A1,1,0,0,1,22,6v6a1,1,0,0,1-.293.707l-3,3A1,1,0,0,1,18,16H13.414L7.707,21.707A1,1,0,0,1,7,22H3a1,1,0,0,1-1-1V17a1,1,0,0,1,.293-.707L8,10.586V6a1,1,0,0,1,.293-.707l3-3A1,1,0,0,1,12,2Zm-.414,2H12.414L10,6.414V11a1,1,0,0,1-.293.707L4,17.414V20H6.586l5.707-5.707A1,1,0,0,1,13,14h4.586L20,11.586V6.414ZM16,6a2,2,0,1,1-2,2A2,2,0,0,1,16,6Z" transform="translate(-2 -2)" fill-rule="evenodd"/>
</svg>
