<svg xmlns="http://www.w3.org/2000/svg" width="19.999" height="20" viewBox="0 0 19.999 20">
  <path id="ic24-thumb-up" d="M5,22a3,3,0,0,1-3-3V13a3,3,0,0,1,3-3H6.381L9.553,3.658a3,3,0,0,1,2.484-1.652l.2-.007H12.5a2.5,2.5,0,0,1,2.495,2.336L15,4.5V10h4a3,3,0,0,1,2.971,3.415l-.03.174-1.2,6a3,3,0,0,1-2.764,2.406L17.8,22ZM6,12H5a1,1,0,0,0-1,1v6a1,1,0,0,0,1,1H6Zm6.5-8h-.264a1,1,0,0,0-.832.445l-.063.108L8.106,11.025a1,1,0,0,0-.1.331L8,11.472V20h9.8a1,1,0,0,0,.951-.69l.03-.114,1.2-6a1,1,0,0,0-.784-1.177L19.1,12h0L19,12H15a2,2,0,0,1-1.995-1.851L13,10V4.5a.5.5,0,0,0-.41-.492Z" transform="translate(-2 -2)" fill-rule="evenodd"/>
</svg>
