<svg xmlns="http://www.w3.org/2000/svg" width="20.7" height="23" viewBox="0 0 20.7 23">
  <path id="ic24-map" d="M13.35,2A10.294,10.294,0,0,1,23.7,12.238c0,3.742-3.131,7.7-9.259,12.007L13.35,25l-.658-.454C6.278,20.119,3,16.066,3,12.238A10.294,10.294,0,0,1,13.35,2Zm0,2.275A8.007,8.007,0,0,0,5.3,12.238c0,2.763,2.641,6.134,8.05,9.981C18.759,18.372,21.4,15,21.4,12.238A8.007,8.007,0,0,0,13.35,4.275Zm0,2.325a4.6,4.6,0,1,1-4.6,4.6A4.6,4.6,0,0,1,13.35,6.6Zm0,2.3a2.3,2.3,0,1,0,2.3,2.3A2.3,2.3,0,0,0,13.35,8.9Z" transform="translate(-3 -2)" fill-rule="evenodd"/>
</svg>
