<svg xmlns="http://www.w3.org/2000/svg" width="20" height="20.003" viewBox="0 0 20 20.003">
  <path id="&#x41A;&#x43E;&#x43D;&#x442;&#x443;&#x440;_11260" data-name="&#x41A;&#x43E;&#x43D;&#x442;&#x443;&#x440; 11260" d="M-6.517,4.679-9.08.467A1.009,1.009,0,0,0-10.47.135l-1.7,1.055-.737-1.25a1.011,1.011,0,0,0-1.387-.347l-2.335,1.42-4.949,3.011h-1.6a2.006,2.006,0,0,0-2.013,2.043V16.157A3.3,3.3,0,0,0-21.9,19.45H-8.48s3.292.171,3.292-2.744V7.316A3.294,3.294,0,0,0-6.517,4.679Zm-3.756-2.3,1,1.645H-10.5l-.654-1.1Zm-3.846-.534.671,1.133a1.086,1.086,0,0,0,.073.142.375.375,0,0,0,.052.071l.491.832H-17.7ZM-7.2,9.288h-2.31a2.515,2.515,0,0,0-1.789.742,2.51,2.51,0,0,0-.74,1.789,2.532,2.532,0,0,0,2.53,2.53H-7.2s0,.886,0,1.942a1.15,1.15,0,0,1-1.282,1.191H-21.894A1.286,1.286,0,0,1-23.175,16.2V6.067l14.695.012A1.285,1.285,0,0,1-7.2,7.359Zm0,1.969v1.036H-9.509a.518.518,0,0,1-.518-.518.518.518,0,0,1,.518-.518Z" transform="translate(25.188 0.551)"/>
</svg>
