<svg xmlns="http://www.w3.org/2000/svg" width="217.631" height="269.997" viewBox="0 0 217.631 269.997">
  <g id="Сгруппировать_5254" data-name="Сгруппировать 5254" transform="translate(-809 -285)">
    <g id="Background_Complete" data-name="Background Complete" transform="translate(865.413 285.001)">
      <g id="Сгруппировать_3529" data-name="Сгруппировать 3529">
        <g id="Сгруппировать_3526" data-name="Сгруппировать 3526">
          <g id="Сгруппировать_3525" data-name="Сгруппировать 3525">
            <path id="Контур_5064" data-name="Контур 5064" d="M232.792,205.407a14.794,14.794,0,0,1-17.345-18.83l25.294-81.418a14.644,14.644,0,0,1,10.866-10.042l.046-.01a14.646,14.646,0,0,1,14.083,4.4L323.6,162.122a14.794,14.794,0,0,1-7.6,24.472l-83.159,18.8ZM252.613,99.419l-.033.008a10.269,10.269,0,0,0-7.62,7.042l-25.294,81.418a10.376,10.376,0,0,0,12.165,13.207l.033-.007,83.159-18.805a10.376,10.376,0,0,0,5.333-17.162L262.49,102.505A10.272,10.272,0,0,0,252.613,99.419Z" transform="translate(-214.765 -94.743)" fill="red"/>
          </g>
        </g>
        <g id="Сгруппировать_3528" data-name="Сгруппировать 3528" transform="translate(38.962 33.624)">
          <g id="Сгруппировать_3527" data-name="Сгруппировать 3527">
            <path id="Контур_5065" data-name="Контур 5065" d="M248.179,161.125a5.462,5.462,0,0,1,4.351-6.58,5.384,5.384,0,0,1,6.655,4.046,5.442,5.442,0,0,1-4.2,6.619A5.519,5.519,0,0,1,248.179,161.125Zm-9.486-43.388,10.182-2.345,5.7,32.6-6.811,1.571Z" transform="translate(-238.693 -115.393)" fill="red"/>
          </g>
        </g>
      </g>
    </g>
    <g id="Сгруппировать_3545" data-name="Сгруппировать 3545" transform="translate(809 374.059)">
      <g id="Сгруппировать_3544" data-name="Сгруппировать 3544">
        <g id="Сгруппировать_3543" data-name="Сгруппировать 3543">
          <path id="Контур_5072" data-name="Контур 5072" d="M481.409,164.005H276.566a6.394,6.394,0,0,0-6.394,6.394V315.083a6.394,6.394,0,0,0,6.394,6.394h78.617s5,15.464-10.5,23.465h73.511s-17.5-6-13-23.465h76.217a6.394,6.394,0,0,0,6.394-6.394V170.4A6.394,6.394,0,0,0,481.409,164.005Z" transform="translate(-270.172 -164.005)" fill="#1d1d1b"/>
        </g>
      </g>
    </g>
    <g id="Сгруппировать_3552" data-name="Сгруппировать 3552" transform="translate(913.772 515.094)">
      <g id="Сгруппировать_3551" data-name="Сгруппировать 3551">
        <g id="Сгруппировать_3550" data-name="Сгруппировать 3550">
          <g id="Сгруппировать_3549" data-name="Сгруппировать 3549">
            <g id="Сгруппировать_3548" data-name="Сгруппировать 3548">
              <path id="Контур_5073" data-name="Контур 5073" d="M341.3,251.841c2.786,3.983-1.575,8.343-5.559,5.557a1.421,1.421,0,0,1-.342-.342c-2.779-3.983,1.576-8.338,5.557-5.557A1.4,1.4,0,0,1,341.3,251.841Z" transform="translate(-334.517 -250.62)" fill="#999"/>
            </g>
          </g>
        </g>
      </g>
    </g>
    <g id="Сгруппировать_3555" data-name="Сгруппировать 3555" transform="translate(812.594 376.71)">
      <g id="Сгруппировать_3554" data-name="Сгруппировать 3554">
        <path id="Прямоугольник_5616" data-name="Прямоугольник 5616" d="M2.847,0H207.729a2.847,2.847,0,0,1,2.847,2.847V128.353a0,0,0,0,1,0,0H0a0,0,0,0,1,0,0V2.847A2.847,2.847,0,0,1,2.847,0Z" fill="#fff"/>
      </g>
    </g>
    <g id="Сгруппировать_3559" data-name="Сгруппировать 3559" transform="translate(812.528 376.71)">
      <g id="Сгруппировать_3558" data-name="Сгруппировать 3558">
        <path id="Прямоугольник_5617" data-name="Прямоугольник 5617" d="M2.978,0H208.131a2.445,2.445,0,0,1,2.445,2.445v8.22a0,0,0,0,1,0,0H0a0,0,0,0,1,0,0V2.978A2.978,2.978,0,0,1,2.978,0Z" fill="#f5f5f5"/>
      </g>
    </g>
    <g id="Сгруппировать_3566" data-name="Сгруппировать 3566" transform="translate(817.754 380.787)">
      <g id="Сгруппировать_3561" data-name="Сгруппировать 3561">
        <g id="Сгруппировать_3560" data-name="Сгруппировать 3560">
          <path id="Контур_5074" data-name="Контур 5074" d="M278.507,169.615a1.479,1.479,0,1,1-1.478-1.479A1.48,1.48,0,0,1,278.507,169.615Z" transform="translate(-275.548 -168.137)" fill="#999"/>
        </g>
      </g>
      <g id="Сгруппировать_3563" data-name="Сгруппировать 3563" transform="translate(4.409)">
        <g id="Сгруппировать_3562" data-name="Сгруппировать 3562">
          <path id="Контур_5075" data-name="Контур 5075" d="M281.215,169.615a1.479,1.479,0,1,1-1.478-1.479A1.479,1.479,0,0,1,281.215,169.615Z" transform="translate(-278.256 -168.137)" fill="#999"/>
        </g>
      </g>
      <g id="Сгруппировать_3565" data-name="Сгруппировать 3565" transform="translate(8.604)">
        <g id="Сгруппировать_3564" data-name="Сгруппировать 3564">
          <path id="Контур_5076" data-name="Контур 5076" d="M283.791,169.615a1.479,1.479,0,1,1-1.48-1.479A1.48,1.48,0,0,1,283.791,169.615Z" transform="translate(-280.832 -168.137)" fill="#999"/>
        </g>
      </g>
    </g>
    <g id="Сгруппировать_3570" data-name="Сгруппировать 3570" transform="translate(853.412 531.429)">
      <g id="Сгруппировать_3569" data-name="Сгруппировать 3569">
        <g id="Сгруппировать_3568" data-name="Сгруппировать 3568">
          <path id="Контур_5077" data-name="Контур 5077" d="M427.649,260.776c0,.067-29.148.122-65.1.122s-65.1-.055-65.1-.122,29.143-.124,65.1-.124S427.649,260.707,427.649,260.776Z" transform="translate(-297.447 -260.652)" fill="#999"/>
        </g>
      </g>
    </g>
    <g id="Сгруппировать_3581" data-name="Сгруппировать 3581" transform="translate(830.394 415.737)">
      <g id="Сгруппировать_3578" data-name="Сгруппировать 3578">
        <g id="Сгруппировать_3577" data-name="Сгруппировать 3577">
          <path id="Контур_5100" data-name="Контур 5100" d="M287.185,216.8a3.9,3.9,0,0,1-3.336-5.862l11.32-19.4a3.861,3.861,0,0,1,3.385-1.934l.013,0a3.854,3.854,0,0,1,3.353,1.964l11.141,19.5a3.9,3.9,0,0,1-3.4,5.831l-22.461-.1Zm11.372-26.03h-.008a2.707,2.707,0,0,0-2.374,1.356l-11.32,19.4a2.734,2.734,0,0,0,2.34,4.111h.008l22.461.1a2.733,2.733,0,0,0,2.385-4.089l-11.139-19.5A2.71,2.71,0,0,0,298.557,190.765Z" transform="translate(-283.311 -189.601)" fill="red"/>
        </g>
      </g>
      <g id="Сгруппировать_3580" data-name="Сгруппировать 3580" transform="translate(13.537 9.263)">
        <g id="Сгруппировать_3579" data-name="Сгруппировать 3579">
          <path id="Контур_5101" data-name="Контур 5101" d="M291.625,206.989a1.441,1.441,0,0,1,1.508-1.431,1.441,1.441,0,1,1,0,2.882A1.454,1.454,0,0,1,291.625,206.989Zm.138-11.7,2.752,0-.471,8.7-1.842,0Z" transform="translate(-291.625 -195.29)" fill="red"/>
        </g>
      </g>
    </g>
    <g id="Сгруппировать_3586" data-name="Сгруппировать 3586" transform="translate(973.735 415.737)">
      <g id="Сгруппировать_3583" data-name="Сгруппировать 3583">
        <g id="Сгруппировать_3582" data-name="Сгруппировать 3582">
          <path id="Контур_5102" data-name="Контур 5102" d="M375.216,216.8a3.9,3.9,0,0,1-3.336-5.862l11.32-19.4a3.857,3.857,0,0,1,3.385-1.934l.011,0a3.855,3.855,0,0,1,3.354,1.964l11.141,19.5a3.9,3.9,0,0,1-3.4,5.831l-22.461-.1Zm11.372-26.03h-.01a2.7,2.7,0,0,0-2.372,1.356l-11.322,19.4a2.736,2.736,0,0,0,2.34,4.111h.01l22.459.1a2.733,2.733,0,0,0,2.387-4.089l-11.141-19.5A2.706,2.706,0,0,0,386.588,190.765Z" transform="translate(-371.342 -189.601)" fill="red"/>
        </g>
      </g>
      <g id="Сгруппировать_3585" data-name="Сгруппировать 3585" transform="translate(13.537 9.263)">
        <g id="Сгруппировать_3584" data-name="Сгруппировать 3584">
          <path id="Контур_5103" data-name="Контур 5103" d="M379.656,206.989a1.44,1.44,0,0,1,1.508-1.431,1.419,1.419,0,0,1,1.469,1.433,1.434,1.434,0,0,1-1.47,1.449A1.454,1.454,0,0,1,379.656,206.989Zm.138-11.7,2.752,0-.471,8.7-1.842,0Z" transform="translate(-379.656 -195.29)" fill="red"/>
        </g>
      </g>
    </g>
    <path id="Контур_10828" data-name="Контур 10828" d="M-115.272-4.715a1.068,1.068,0,0,1-.8-.311,1.114,1.114,0,0,1-.3-.811V-15.963a1.084,1.084,0,0,1,.3-.8,1.084,1.084,0,0,1,.8-.3,1.107,1.107,0,0,1,.819.3,1.084,1.084,0,0,1,.3.8V-5.837a1.114,1.114,0,0,1-.3.811A1.09,1.09,0,0,1-115.272-4.715Zm13.818-12.352a1,1,0,0,1,.768.3,1.122,1.122,0,0,1,.285.8V-5.837a1.133,1.133,0,0,1-.293.811,1,1,0,0,1-.759.311.987.987,0,0,1-.845-.4l-6.3-8.194v7.47a1.175,1.175,0,0,1-.276.811.963.963,0,0,1-.759.311.963.963,0,0,1-.759-.311,1.175,1.175,0,0,1-.276-.811V-15.963a1.1,1.1,0,0,1,.293-.8,1.033,1.033,0,0,1,.776-.3.969.969,0,0,1,.828.4l6.279,8.16v-7.452a1.122,1.122,0,0,1,.285-.8A.983.983,0,0,1-101.454-17.067Zm8.522,12.334a1.107,1.107,0,0,1-.819-.3,1.084,1.084,0,0,1-.3-.8v-9.315h-3.14q-1.035,0-1.035-.914t1.035-.914h8.5q1.035,0,1.035.914t-1.035.914h-3.14v9.315a1.084,1.084,0,0,1-.3.8A1.084,1.084,0,0,1-92.932-4.733Zm8.522-.086a1.08,1.08,0,0,1-.785-.276,1.031,1.031,0,0,1-.285-.776V-15.928A1.031,1.031,0,0,1-85.2-16.7a1.08,1.08,0,0,1,.785-.276h6.228a1.2,1.2,0,0,1,.776.224.775.775,0,0,1,.276.638.821.821,0,0,1-.276.664,1.169,1.169,0,0,1-.776.233h-5.124v3.347h4.778a1.2,1.2,0,0,1,.776.224.8.8,0,0,1,.276.656.775.775,0,0,1-.276.638,1.2,1.2,0,0,1-.776.224h-4.778v3.554h5.124a1.169,1.169,0,0,1,.776.233.821.821,0,0,1,.276.664.775.775,0,0,1-.276.638,1.2,1.2,0,0,1-.776.224Zm19.683-1.4a1.09,1.09,0,0,1,.207.6.809.809,0,0,1-.319.656,1.155,1.155,0,0,1-.75.259,1.13,1.13,0,0,1-.526-.129,1.132,1.132,0,0,1-.423-.388L-68.833-8.7a2.235,2.235,0,0,0-.733-.776A2,2,0,0,0-70.575-9.7h-1.691v3.864a1.126,1.126,0,0,1-.293.819,1.055,1.055,0,0,1-.794.3,1.084,1.084,0,0,1-.8-.3,1.107,1.107,0,0,1-.3-.819V-15.928a1.031,1.031,0,0,1,.285-.776,1.08,1.08,0,0,1,.785-.276h4.313a4.718,4.718,0,0,1,3.148.923,3.315,3.315,0,0,1,1.078,2.665,3.369,3.369,0,0,1-.8,2.32,3.8,3.8,0,0,1-2.268,1.164,2.175,2.175,0,0,1,.88.431,3.794,3.794,0,0,1,.742.863Zm-4.658-5.193a2.921,2.921,0,0,0,1.846-.474,1.764,1.764,0,0,0,.587-1.458,1.734,1.734,0,0,0-.587-1.458,3,3,0,0,0-1.846-.457h-2.9v3.847Zm16.992-5.658a1,1,0,0,1,.768.3,1.122,1.122,0,0,1,.285.8V-5.837a1.133,1.133,0,0,1-.293.811,1,1,0,0,1-.759.311.987.987,0,0,1-.845-.4l-6.3-8.194v7.47a1.175,1.175,0,0,1-.276.811.963.963,0,0,1-.759.311.963.963,0,0,1-.759-.311,1.175,1.175,0,0,1-.276-.811V-15.963a1.1,1.1,0,0,1,.293-.8,1.033,1.033,0,0,1,.776-.3.969.969,0,0,1,.828.4l6.279,8.16v-7.452a1.122,1.122,0,0,1,.285-.8A.983.983,0,0,1-52.393-17.067Zm15.56,10.92a1.062,1.062,0,0,1,.1.449.857.857,0,0,1-.319.673,1.088,1.088,0,0,1-.733.276A.98.98,0,0,1-38.3-4.9a.978.978,0,0,1-.38-.457l-1.035-2.312h-6.072l-1.035,2.312a.978.978,0,0,1-.38.457,1.011,1.011,0,0,1-.535.147,1.1,1.1,0,0,1-.725-.276.849.849,0,0,1-.328-.673,1.062,1.062,0,0,1,.1-.449l4.761-10.23a1.113,1.113,0,0,1,.474-.526,1.359,1.359,0,0,1,.681-.181,1.359,1.359,0,0,1,.681.181,1.113,1.113,0,0,1,.474.526ZM-45.026-9.39h4.554l-2.277-5.124Zm11.886,4.571a1.05,1.05,0,0,1-.776-.276,1.026,1.026,0,0,1-.276-.759V-15.963a1.084,1.084,0,0,1,.3-.8,1.084,1.084,0,0,1,.8-.3,1.107,1.107,0,0,1,.819.3,1.084,1.084,0,0,1,.3.8v9.315h4.847q1.035,0,1.035.914t-1.035.914Zm19.131.155a8.711,8.711,0,0,1-2.51-.354,5.526,5.526,0,0,1-1.923-.957.969.969,0,0,1-.4-.828.973.973,0,0,1,.216-.63.639.639,0,0,1,.509-.267,1.4,1.4,0,0,1,.707.242,5.174,5.174,0,0,0,1.553.776,6.269,6.269,0,0,0,1.794.242,3.533,3.533,0,0,0,1.932-.44,1.44,1.44,0,0,0,.673-1.285,1.105,1.105,0,0,0-.63-1.009,8.337,8.337,0,0,0-2.1-.681,12.416,12.416,0,0,1-2.467-.759,3.483,3.483,0,0,1-1.432-1.1,2.856,2.856,0,0,1-.483-1.708,3.214,3.214,0,0,1,.6-1.915,3.978,3.978,0,0,1,1.682-1.32,5.958,5.958,0,0,1,2.424-.474,6.016,6.016,0,0,1,4.019,1.311,1.3,1.3,0,0,1,.319.371A.98.98,0,0,1-9.421-15a.973.973,0,0,1-.216.63.639.639,0,0,1-.509.267.953.953,0,0,1-.319-.052,2.558,2.558,0,0,1-.388-.19,5.829,5.829,0,0,0-1.371-.768,4.65,4.65,0,0,0-1.63-.25,3.2,3.2,0,0,0-1.854.474,1.519,1.519,0,0,0-.681,1.32,1.211,1.211,0,0,0,.6,1.087,7.076,7.076,0,0,0,2.053.707A13.813,13.813,0,0,1-11.241-11,3.7,3.7,0,0,1-9.774-9.925a2.592,2.592,0,0,1,.509,1.639,3.131,3.131,0,0,1-.6,1.889,3.879,3.879,0,0,1-1.673,1.277A6.294,6.294,0,0,1-14.009-4.664Zm8.729-.155a1.08,1.08,0,0,1-.785-.276,1.031,1.031,0,0,1-.285-.776V-15.928a1.031,1.031,0,0,1,.285-.776,1.08,1.08,0,0,1,.785-.276H.947a1.2,1.2,0,0,1,.776.224A.775.775,0,0,1,2-16.118a.821.821,0,0,1-.276.664,1.169,1.169,0,0,1-.776.233H-4.176v3.347H.6a1.2,1.2,0,0,1,.776.224.8.8,0,0,1,.276.656.775.775,0,0,1-.276.638,1.2,1.2,0,0,1-.776.224H-4.176v3.554H.947a1.169,1.169,0,0,1,.776.233A.821.821,0,0,1,2-5.681a.775.775,0,0,1-.276.638,1.2,1.2,0,0,1-.776.224ZM14.4-6.216a1.09,1.09,0,0,1,.207.6.809.809,0,0,1-.319.656,1.155,1.155,0,0,1-.75.259,1.13,1.13,0,0,1-.526-.129,1.132,1.132,0,0,1-.423-.388L10.3-8.7a2.235,2.235,0,0,0-.733-.776A2,2,0,0,0,8.555-9.7H6.864v3.864a1.126,1.126,0,0,1-.293.819,1.055,1.055,0,0,1-.794.3,1.084,1.084,0,0,1-.8-.3,1.107,1.107,0,0,1-.3-.819V-15.928a1.031,1.031,0,0,1,.285-.776,1.08,1.08,0,0,1,.785-.276h4.313a4.718,4.718,0,0,1,3.148.923,3.315,3.315,0,0,1,1.078,2.665,3.369,3.369,0,0,1-.8,2.32,3.8,3.8,0,0,1-2.268,1.164,2.175,2.175,0,0,1,.88.431,3.794,3.794,0,0,1,.742.863ZM9.745-11.409a2.921,2.921,0,0,0,1.846-.474,1.764,1.764,0,0,0,.587-1.458,1.734,1.734,0,0,0-.587-1.458,3,3,0,0,0-1.846-.457h-2.9v3.847ZM26.2-16.5a.942.942,0,0,1,.914-.587,1.211,1.211,0,0,1,.776.276.85.85,0,0,1,.345.69,1.114,1.114,0,0,1-.1.431L23.356-5.405a1.128,1.128,0,0,1-.474.509,1.359,1.359,0,0,1-.681.181,1.359,1.359,0,0,1-.681-.181,1.128,1.128,0,0,1-.474-.509L16.283-15.687a1.086,1.086,0,0,1-.1-.414.859.859,0,0,1,.354-.707,1.269,1.269,0,0,1,.8-.276,1.056,1.056,0,0,1,.543.147.972.972,0,0,1,.388.44l3.968,8.815ZM31.6-4.819a1.08,1.08,0,0,1-.785-.276,1.031,1.031,0,0,1-.285-.776V-15.928a1.031,1.031,0,0,1,.285-.776,1.08,1.08,0,0,1,.785-.276h6.228a1.2,1.2,0,0,1,.776.224.775.775,0,0,1,.276.638.821.821,0,0,1-.276.664,1.169,1.169,0,0,1-.776.233H32.706v3.347h4.778a1.2,1.2,0,0,1,.776.224.8.8,0,0,1,.276.656.775.775,0,0,1-.276.638,1.2,1.2,0,0,1-.776.224H32.706v3.554h5.124a1.169,1.169,0,0,1,.776.233.821.821,0,0,1,.276.664.775.775,0,0,1-.276.638,1.2,1.2,0,0,1-.776.224Zm19.683-1.4a1.09,1.09,0,0,1,.207.6.809.809,0,0,1-.319.656,1.155,1.155,0,0,1-.75.259,1.13,1.13,0,0,1-.526-.129,1.132,1.132,0,0,1-.423-.388L47.179-8.7a2.235,2.235,0,0,0-.733-.776A2,2,0,0,0,45.437-9.7H43.747v3.864a1.126,1.126,0,0,1-.293.819,1.055,1.055,0,0,1-.794.3,1.084,1.084,0,0,1-.8-.3,1.107,1.107,0,0,1-.3-.819V-15.928a1.031,1.031,0,0,1,.285-.776,1.08,1.08,0,0,1,.785-.276h4.313a4.718,4.718,0,0,1,3.148.923,3.315,3.315,0,0,1,1.078,2.665,3.369,3.369,0,0,1-.8,2.32,3.8,3.8,0,0,1-2.268,1.164,2.175,2.175,0,0,1,.88.431,3.794,3.794,0,0,1,.742.863Zm-4.658-5.193a2.921,2.921,0,0,0,1.846-.474,1.764,1.764,0,0,0,.587-1.458,1.734,1.734,0,0,0-.587-1.458,3,3,0,0,0-1.846-.457h-2.9v3.847Z" transform="translate(950.263 472.391)" fill="#1d1d1b"/>
    <path id="Контур_10829" data-name="Контур 10829" d="M-41.506-4.819a1.471,1.471,0,0,1-1.087-.38,1.471,1.471,0,0,1-.38-1.087v-9.229a1.471,1.471,0,0,1,.38-1.087,1.471,1.471,0,0,1,1.087-.38h5.969a1.738,1.738,0,0,1,1.121.311,1.092,1.092,0,0,1,.38.9q0,1.242-1.5,1.242h-4.347v2.312h4q1.5,0,1.5,1.225a1.092,1.092,0,0,1-.38.9,1.738,1.738,0,0,1-1.121.311h-4v2.519h4.347q1.5,0,1.5,1.242a1.092,1.092,0,0,1-.38.9,1.738,1.738,0,0,1-1.121.311Zm19.925-2.018a1.6,1.6,0,0,1,.311.88,1.143,1.143,0,0,1-.457.923,1.635,1.635,0,0,1-1.061.371,1.649,1.649,0,0,1-.776-.19,1.716,1.716,0,0,1-.621-.569L-26.428-8.7a1.777,1.777,0,0,0-.509-.509,1.181,1.181,0,0,0-.63-.164h-1.121v3.088A1.569,1.569,0,0,1-29.1-5.138a1.521,1.521,0,0,1-1.139.423,1.55,1.55,0,0,1-1.147-.423,1.55,1.55,0,0,1-.423-1.147v-9.229a1.471,1.471,0,0,1,.38-1.087,1.471,1.471,0,0,1,1.087-.38h4.33a4.975,4.975,0,0,1,3.321.957,3.453,3.453,0,0,1,1.113,2.769,3.645,3.645,0,0,1-.759,2.337,3.724,3.724,0,0,1-2.139,1.285,2.324,2.324,0,0,1,.992.38,3.538,3.538,0,0,1,.837.88Zm-4.934-4.916a2.657,2.657,0,0,0,1.509-.328,1.225,1.225,0,0,0,.457-1.07,1.269,1.269,0,0,0-.457-1.1,2.6,2.6,0,0,0-1.509-.336h-2.208v2.829ZM-8.522-6.837a1.6,1.6,0,0,1,.311.88,1.143,1.143,0,0,1-.457.923,1.635,1.635,0,0,1-1.061.371,1.649,1.649,0,0,1-.776-.19,1.716,1.716,0,0,1-.621-.569L-13.37-8.7a1.777,1.777,0,0,0-.509-.509,1.181,1.181,0,0,0-.63-.164h-1.121v3.088a1.569,1.569,0,0,1-.414,1.147,1.521,1.521,0,0,1-1.139.423,1.55,1.55,0,0,1-1.147-.423,1.55,1.55,0,0,1-.423-1.147v-9.229a1.471,1.471,0,0,1,.38-1.087,1.471,1.471,0,0,1,1.087-.38h4.33a4.975,4.975,0,0,1,3.321.957,3.453,3.453,0,0,1,1.113,2.769,3.645,3.645,0,0,1-.759,2.337A3.724,3.724,0,0,1-11.42-9.632a2.324,2.324,0,0,1,.992.38,3.538,3.538,0,0,1,.837.88Zm-4.934-4.916a2.657,2.657,0,0,0,1.509-.328,1.225,1.225,0,0,0,.457-1.07,1.269,1.269,0,0,0-.457-1.1,2.6,2.6,0,0,0-1.509-.336h-2.208v2.829ZM0-4.664a6.517,6.517,0,0,1-3.235-.768A5.238,5.238,0,0,1-5.348-7.6a6.983,6.983,0,0,1-.742-3.3,6.983,6.983,0,0,1,.742-3.3,5.184,5.184,0,0,1,2.113-2.165A6.576,6.576,0,0,1,0-17.136a6.577,6.577,0,0,1,3.235.759,5.13,5.13,0,0,1,2.1,2.165,7.051,7.051,0,0,1,.733,3.3A6.983,6.983,0,0,1,5.33-7.6,5.238,5.238,0,0,1,3.217-5.431,6.48,6.48,0,0,1,0-4.664ZM0-7.1a2.6,2.6,0,0,0,2.156-.975,4.474,4.474,0,0,0,.776-2.838,4.4,4.4,0,0,0-.785-2.829A2.618,2.618,0,0,0,0-14.7a2.622,2.622,0,0,0-2.156.957,4.43,4.43,0,0,0-.776,2.838,4.467,4.467,0,0,0,.776,2.846A2.612,2.612,0,0,0,0-7.1Zm19.045.259a1.6,1.6,0,0,1,.311.88,1.143,1.143,0,0,1-.457.923,1.635,1.635,0,0,1-1.061.371,1.649,1.649,0,0,1-.776-.19,1.716,1.716,0,0,1-.621-.569L14.2-8.7a1.778,1.778,0,0,0-.509-.509,1.181,1.181,0,0,0-.63-.164H11.938v3.088a1.569,1.569,0,0,1-.414,1.147,1.521,1.521,0,0,1-1.139.423,1.55,1.55,0,0,1-1.147-.423,1.55,1.55,0,0,1-.423-1.147v-9.229a1.471,1.471,0,0,1,.38-1.087,1.471,1.471,0,0,1,1.087-.38h4.33a4.975,4.975,0,0,1,3.321.957,3.453,3.453,0,0,1,1.113,2.769,3.645,3.645,0,0,1-.759,2.337,3.724,3.724,0,0,1-2.139,1.285,2.324,2.324,0,0,1,.992.38,3.538,3.538,0,0,1,.837.88Zm-4.934-4.916a2.657,2.657,0,0,0,1.509-.328,1.225,1.225,0,0,0,.457-1.07,1.269,1.269,0,0,0-.457-1.1,2.6,2.6,0,0,0-1.509-.336H11.9v2.829Z" transform="translate(929.621 491.079)" fill="#1d1d1b"/>
    <path id="Контур_10827" data-name="Контур 10827" d="M-25.268-21.149a11.976,11.976,0,0,1,5.991,1.478,10.511,10.511,0,0,1,4.1,4.149A12.483,12.483,0,0,1-13.7-9.376a12.269,12.269,0,0,1-1.764,6.587A11.676,11.676,0,0,1-20.445,1.62a16.832,16.832,0,0,1-7.417,1.556,21.648,21.648,0,0,1-6.3-.934A17.125,17.125,0,0,1-39.48-.351,4.6,4.6,0,0,1-40.7-1.777a3.849,3.849,0,0,1-.389-1.789,4.254,4.254,0,0,1,.882-2.723A2.68,2.68,0,0,1-38.028-7.4a3.513,3.513,0,0,1,1.3.207,15.794,15.794,0,0,1,1.556.778l1.037.519a28.9,28.9,0,0,0,2.931,1.245,8.592,8.592,0,0,0,2.879.467,6.633,6.633,0,0,0,4.305-1.167,4.493,4.493,0,0,0,1.4-3.657,4.615,4.615,0,0,0-1.452-3.631,5.863,5.863,0,0,0-4.046-1.3,14.177,14.177,0,0,0-2.827.259,18.371,18.371,0,0,0-2.982.934,4.957,4.957,0,0,1-2.334.571,3.586,3.586,0,0,1-2.438-.856,2.843,2.843,0,0,1-.985-2.256V-29.345a4.5,4.5,0,0,1,1.141-3.32,4.422,4.422,0,0,1,3.268-1.141H-19.2q4.512,0,4.512,3.579,0,3.631-4.512,3.631H-30.4v6.38A12.967,12.967,0,0,1-25.268-21.149ZM3.311,3.228q-6.795,0-10.374-4.824t-3.579-13.952q0-9.077,3.579-13.9T3.311-34.272q6.743,0,10.348,4.824t3.6,13.9q0,9.129-3.579,13.952T3.311,3.228Zm0-7.21a3.717,3.717,0,0,0,3.579-2.7q1.089-2.7,1.089-8.869,0-6.12-1.089-8.818a3.717,3.717,0,0,0-3.579-2.7A3.713,3.713,0,0,0-.268-24.391q-1.089,2.671-1.089,8.843T-.268-6.678A3.717,3.717,0,0,0,3.311-3.981Zm31.121,7.21q-6.795,0-10.374-4.824T20.479-15.548q0-9.077,3.579-13.9t10.374-4.824q6.743,0,10.348,4.824t3.6,13.9q0,9.129-3.579,13.952T34.431,3.228Zm0-7.21a3.717,3.717,0,0,0,3.579-2.7q1.089-2.7,1.089-8.869,0-6.12-1.089-8.818a3.717,3.717,0,0,0-3.579-2.7,3.713,3.713,0,0,0-3.579,2.671q-1.089,2.671-1.089,8.843t1.089,8.869A3.717,3.717,0,0,0,34.431-3.981Z" transform="translate(914.06 443.09)" fill="#d80000"/>
  </g>
</svg>
