<svg xmlns="http://www.w3.org/2000/svg" width="199.081" height="200.484" viewBox="0 0 199.081 200.484">
  <g id="oven_mitten" transform="translate(-9.023 -8.9)">
    <g id="Сгруппировать_4953" data-name="Сгруппировать 4953" transform="translate(9.023 8.9)">
      <g id="Сгруппировать_4948" data-name="Сгруппировать 4948" transform="translate(91.809 53.653)">
        <path id="Контур_11245" data-name="Контур 11245" d="M56.275,77.37A11.866,11.866,0,0,1,50.2,75.634c-3.038-1.736-5.207-4.773-6.943-8.245h0A19.172,19.172,0,0,1,41.52,56.541c.434-3.472,2.6-6.509,5.207-7.377,2.6-1.3,6.075-.868,9.113,1.3,3.038,1.736,5.207,4.773,6.943,8.245A19.172,19.172,0,0,1,64.52,69.559c-.434,3.472-2.6,6.509-5.207,7.377A6.434,6.434,0,0,1,56.275,77.37ZM47.6,65.22c1.3,2.6,3.038,5.207,5.207,6.509a5.1,5.1,0,0,0,5.207.868,5.282,5.282,0,0,0,2.6-4.339,13.86,13.86,0,0,0-1.3-8.245c-1.3-2.6-3.038-5.207-5.207-6.509a5.1,5.1,0,0,0-5.207-.868,5.282,5.282,0,0,0-2.6,4.339,13.86,13.86,0,0,0,1.3,8.245Z" transform="translate(7.168 69.46)" fill="#5c4b51"/>
        <path id="Контур_11246" data-name="Контур 11246" d="M116.127,26.984C88.789,11.362,72.732,35.663,70.129,40L61.45,54.757c-1.3-3.472-5.207-9.113-13.886-6.943-10.849,3.038-8.679,13.018-8.245,14.754L44.96,83.4,31.941,105.529a9.281,9.281,0,0,0,3.472,12.584L77.94,142.848a9.281,9.281,0,0,0,12.584-3.472l37.753-65.96C130.881,69.077,143.466,42.606,116.127,26.984Z" transform="translate(-28.383 -19.451)" fill="#f5f4f4"/>
        <path id="Контур_11247" data-name="Контур 11247" d="M113.667,27.95c-26.9-15.622-42.093,9.981-44.7,13.886L57.688,61.364l-1.3-4.773c-.434-1.3-2.6-10.849-12.151-8.679-9.113,2.6-6.943,11.717-6.509,13.452l6.075,23h0l-10.849,20.4a8.413,8.413,0,0,0,3.038,11.717L75.046,139.04a8.762,8.762,0,0,0,11.717-3.472L122.78,72.646C125.384,68.741,140.572,43.572,113.667,27.95Z" transform="translate(-25.055 -15.643)" fill="#afcb08"/>
        <path id="Контур_11248" data-name="Контур 11248" d="M84.076,147.7a13.362,13.362,0,0,1-5.641-1.3L35.908,121.662c-5.207-3.038-7.377-9.981-4.339-15.188L43.719,85.21l-5.207-20.4c-1.3-5.207-.868-14.754,9.981-17.792,6.075-1.736,11.283,0,14.754,4.773l6.509-11.283A44.083,44.083,0,0,1,84.51,25.76c7.377-4.339,19.528-7.811,34.716.868h0c15.188,8.679,18.226,20.829,18.226,29.508,0,10.415-4.773,18.66-5.641,20.4l-37.753,65.96a10.779,10.779,0,0,1-6.943,5.207ZM52.832,50.928a7.385,7.385,0,0,0-3.038.434c-8.679,2.17-7.377,10.849-6.943,12.151l5.641,20.829v1.736L35.908,108.21a7.088,7.088,0,0,0,2.6,9.547l42.527,24.735a7.469,7.469,0,0,0,5.207.868,7.958,7.958,0,0,0,4.339-3.038l37.753-65.96a40.878,40.878,0,0,0,4.773-18.226c0-10.849-5.207-19.528-16.056-26.037-10.849-6.075-20.829-6.509-30.376-.868C78.869,34,74.529,41.382,73.661,42.683L64.982,57.438a1.585,1.585,0,0,1-2.17.868c-.868,0-1.736-.434-1.736-1.3C59.775,53.966,57.605,50.928,52.832,50.928Z" transform="translate(-30.18 -21.264)" fill="#5c4b51"/>
        <g id="Сгруппировать_4947" data-name="Сгруппировать 4947" transform="translate(57.845 5.2)">
          <circle id="Эллипс_843" data-name="Эллипс 843" cx="4.339" cy="4.339" r="4.339" transform="translate(0 7.821) rotate(-64.309)" fill="#f5f4f4"/>
          <circle id="Эллипс_844" data-name="Эллипс 844" cx="2.17" cy="2.17" r="2.17" transform="translate(6.346 15.08) rotate(-64.393)" fill="#f5f4f4"/>
        </g>
        <path id="Контур_11249" data-name="Контур 11249" d="M40.2,70.342a10.125,10.125,0,0,0,10.415-2.6c3.038-2.6,5.207-5.641,7.811-8.679L65.8,49.513c2.6-3.038,5.207-6.509,8.245-9.113-3.472,7.377-7.377,14.754-12.584,21.263-2.6,3.038-5.641,6.509-9.113,8.679-1.736.868-3.906,2.17-6.509,2.17-1.3,0-2.17-.434-3.472-.434A9.466,9.466,0,0,0,40.2,70.342Z" transform="translate(3.281 42.64)" fill="#5c4b51" opacity="0.6"/>
      </g>
      <g id="Сгруппировать_4950" data-name="Сгруппировать 4950">
        <path id="Контур_11250" data-name="Контур 11250" d="M18.035,62.127a8.831,8.831,0,0,1-6.509-2.6c-2.17-2.17-3.038-5.207-2.17-9.113a23.068,23.068,0,0,1,5.207-9.547h0c2.6-2.6,6.075-4.773,9.547-5.207a9.577,9.577,0,0,1,9.113,2.17,8.832,8.832,0,0,1,2.6,6.509c0,3.906-2.17,8.679-5.641,12.151-2.6,2.6-6.075,4.773-9.547,5.207A5.5,5.5,0,0,1,18.035,62.127ZM17.6,44.335a18.434,18.434,0,0,0-4.339,7.377,5.917,5.917,0,0,0,.868,5.207c1.3,1.3,3.906,1.3,5.207.868,2.6-.434,5.207-2.17,7.377-4.339,2.6-2.6,4.339-6.075,4.339-9.113a4.377,4.377,0,0,0-1.3-3.472c-1.3-1.3-3.906-1.3-5.207-.868A20.369,20.369,0,0,0,17.6,44.335Z" transform="translate(-9.023 79.34)" fill="#5c4b51"/>
        <path id="Контур_11251" data-name="Контур 11251" d="M95.684,61.908C89.175,55.4,83.1,58.87,80.062,60.606V43.682c0-5.207-2.17-34.282-33.414-34.282C14.97,9.4,12.8,38.474,12.8,43.682v75.941a8.9,8.9,0,0,0,9.113,9.113H70.949a8.9,8.9,0,0,0,9.113-9.113V94.454L95.684,78.832C96.986,77.53,103.5,69.719,95.684,61.908Z" transform="translate(3.589 -7.23)" fill="#f5f4f4"/>
        <path id="Контур_11252" data-name="Контур 11252" d="M44.177,10.4c31.244,0,31.678,29.508,31.678,34.282V67.247l3.472-3.472c1.3-1.3,7.811-8.245,14.754-1.3s0,13.886-1.3,14.754L75.855,94.152h0v23a8.626,8.626,0,0,1-8.245,8.679H22.045c-4.773,0-8.245-3.906-8.245-8.679V44.682C13.8,39.908,13.366,10.4,44.177,10.4Z" transform="translate(6.928 -3.891)" fill="#afcb08"/>
        <path id="Контур_11253" data-name="Контур 11253" d="M72.619,132.575H23.583A11.489,11.489,0,0,1,12.3,121.292V45.786c0-1.3.434-36.886,36.018-36.886C76.524,8.9,83.9,31.9,83.9,45.786V58.8a13.428,13.428,0,0,1,15.188,3.038c7.811,7.811,3.472,16.49-.434,19.962L83.9,96.557v24.735A10.945,10.945,0,0,1,72.619,132.575ZM48.318,13.239c-30.81,0-31.678,29.074-31.678,32.546v75.941a6.854,6.854,0,0,0,6.943,6.943H72.619a6.854,6.854,0,0,0,6.943-6.943v-25.6c0-.434.434-1.3.434-1.736L95.618,78.766c1.3-1.3,6.943-7.377.434-13.886-4.773-4.773-9.547-3.038-13.018-.868a1.937,1.937,0,0,1-2.17,0,2.325,2.325,0,0,1-1.3-1.736V45.352C79.562,42.314,78.694,13.239,48.318,13.239Z" transform="translate(1.919 -8.9)" fill="#5c4b51"/>
        <g id="Сгруппировать_4949" data-name="Сгруппировать 4949" transform="translate(26.499 10.741)">
          <circle id="Эллипс_845" data-name="Эллипс 845" cx="4.339" cy="4.339" r="4.339" transform="translate(0 8.524) rotate(-79.158)" fill="#f5f4f4"/>
          <circle id="Эллипс_846" data-name="Эллипс 846" cx="2.17" cy="2.17" r="2.17" transform="matrix(0.189, -0.982, 0.982, 0.189, 7.071, 13.832)" fill="#f5f4f4"/>
        </g>
        <path id="Контур_11254" data-name="Контур 11254" d="M61.229,33.1c0,.868.434,2.17,0,3.038s-.434,2.17-1.3,3.038c-1.3,2.17-3.472,3.038-5.207,4.339a31.128,31.128,0,0,1-12.584,2.6A118.684,118.684,0,0,1,17.4,44.383a39.2,39.2,0,0,1,12.151-1.736L41.7,41.779c3.906-.434,7.811-.434,11.717-1.736C56.889,39.175,60.361,37.439,61.229,33.1Z" transform="translate(18.95 71.915)" fill="#5c4b51" opacity="0.6"/>
      </g>
      <g id="Сгруппировать_4951" data-name="Сгруппировать 4951" transform="translate(20.294 81.582)">
        <path id="Контур_11255" data-name="Контур 11255" d="M40.79,33.1q0,1.3-2.6,1.3c-1.3,0-13.886,0-13.886-.868S36.884,31.8,38.186,31.8C39.922,31.8,40.79,32.668,40.79,33.1Z" transform="translate(21.698 -14.008)" fill="#5c4b51"/>
        <ellipse id="Эллипс_847" data-name="Эллипс 847" cx="0.868" cy="8.679" rx="0.868" ry="8.679" transform="translate(33.414 12.151)" fill="#5c4b51"/>
        <ellipse id="Эллипс_848" data-name="Эллипс 848" cx="12.584" cy="0.868" rx="12.584" ry="0.868" transform="translate(1.302 10.849)" fill="#5c4b51"/>
        <ellipse id="Эллипс_849" data-name="Эллипс 849" cx="0.868" cy="12.584" rx="0.868" ry="12.584" transform="translate(52.074)" fill="#5c4b51"/>
        <ellipse id="Эллипс_850" data-name="Эллипс 850" cx="0.868" cy="8.245" rx="0.868" ry="8.245" transform="translate(18.226 10.849)" fill="#5c4b51"/>
        <ellipse id="Эллипс_851" data-name="Эллипс 851" cx="14.754" cy="0.868" rx="14.754" ry="0.868" transform="translate(0 23.433)" fill="#5c4b51"/>
        <ellipse id="Эллипс_852" data-name="Эллипс 852" cx="0.868" cy="9.981" rx="0.868" ry="9.981" transform="translate(7.377 8.679)" fill="#5c4b51"/>
      </g>
      <g id="Сгруппировать_4952" data-name="Сгруппировать 4952" transform="translate(100.459 68.219)">
        <path id="Контур_11256" data-name="Контур 11256" d="M32.289,42.065c-.434.434.434,1.736,1.3,2.6,1.3.868,12.151,7.377,12.584,6.509.434-.434-9.981-8.245-11.283-8.679C33.591,41.2,32.723,41.2,32.289,42.065Z" transform="translate(-32.173 31.616)" fill="#5c4b51"/>
        <ellipse id="Эллипс_853" data-name="Эллипс 853" cx="12.584" cy="0.868" rx="12.584" ry="0.868" transform="translate(77.317 30.21) rotate(-58.849)" fill="#5c4b51"/>
        <ellipse id="Эллипс_854" data-name="Эллипс 854" cx="12.584" cy="0.868" rx="12.584" ry="0.868" transform="matrix(0.518, -0.855, 0.855, 0.518, 22.505, 93.468)" fill="#5c4b51"/>
        <ellipse id="Эллипс_855" data-name="Эллипс 855" cx="0.868" cy="9.113" rx="0.868" ry="9.113" transform="matrix(0.518, -0.856, 0.856, 0.518, 73.444, 2.76)" fill="#5c4b51"/>
        <ellipse id="Эллипс_856" data-name="Эллипс 856" cx="0.868" cy="12.584" rx="0.868" ry="12.584" transform="matrix(0.518, -0.856, 0.856, 0.518, 72.687, 15.599)" fill="#5c4b51"/>
        <ellipse id="Эллипс_857" data-name="Эллипс 857" cx="0.868" cy="12.584" rx="0.868" ry="12.584" transform="matrix(0.518, -0.855, 0.855, 0.518, 24.396, 75.005)" fill="#5c4b51"/>
        <ellipse id="Эллипс_858" data-name="Эллипс 858" cx="12.584" cy="0.868" rx="12.584" ry="0.868" transform="matrix(0.518, -0.855, 0.855, 0.518, 4.739, 83.426)" fill="#5c4b51"/>
        <ellipse id="Эллипс_859" data-name="Эллипс 859" cx="8.245" cy="0.868" rx="8.245" ry="0.868" transform="translate(74.578 14.112) rotate(-58.849)" fill="#5c4b51"/>
        <ellipse id="Эллипс_860" data-name="Эллипс 860" cx="8.245" cy="0.868" rx="8.245" ry="0.868" transform="matrix(0.518, -0.855, 0.855, 0.518, 34.21, 97.373)" fill="#5c4b51"/>
        <ellipse id="Эллипс_861" data-name="Эллипс 861" cx="0.868" cy="14.754" rx="0.868" ry="14.754" transform="translate(15.584 84.064) rotate(-58.802)" fill="#5c4b51"/>
      </g>
    </g>
  </g>
</svg>
