<svg xmlns="http://www.w3.org/2000/svg" width="40" height="35.156" viewBox="0 0 40 35.156">
  <g id="heart" transform="translate(0 -31)">
    <path id="Контур_11297" data-name="Контур 11297" d="M20,66.156a1.166,1.166,0,0,1-.771-.29c-1.705-1.491-3.327-2.874-4.852-4.174C5.767,54.356,0,49.509,0,42.446,0,35.921,4.612,31,10.625,31c4.739,0,7.781,3.311,9.375,6.292C21.594,34.311,24.636,31,29.375,31,35.388,31,40,35.921,40,42.446c0,7.062-5.767,11.91-14.376,19.247-1.525,1.3-3.147,2.682-4.852,4.174A1.166,1.166,0,0,1,20,66.156Z" transform="translate(0 0)" fill="red"/>
    <path id="Контур_11298" data-name="Контур 11298" d="M256.771,65.867c1.705-1.491,3.327-2.874,4.852-4.174C270.233,54.356,276,49.509,276,42.446,276,35.921,271.388,31,265.375,31c-4.739,0-7.781,3.311-9.375,6.292V66.156A1.166,1.166,0,0,0,256.771,65.867Z" transform="translate(-236 0)" fill="#d80000"/>
  </g>
</svg>
