<svg xmlns="http://www.w3.org/2000/svg" width="80.549" height="111.762" viewBox="0 0 80.549 111.762">
  <g id="recipe_book" transform="translate(-15.2 -9)">
    <g id="Сгруппировать_4923" data-name="Сгруппировать 4923" transform="translate(15.2 9)">
      <g id="Сгруппировать_4908" data-name="Сгруппировать 4908" transform="translate(23.534 90.254)">
        <path id="Контур_11204" data-name="Контур 11204" d="M25.4,49.369c0-1.456,2.184-2.669,5.095-2.669s5.095,1.213,5.095,2.669V65.382c0,1.456-2.184-2.669-5.095-2.669-3.154,0-5.095,4.125-5.095,2.669Z" transform="translate(-24.187 -45.487)" fill="red"/>
        <path id="Контур_11205" data-name="Контур 11205" d="M26.113,67.55h-.485c-.243,0-.728-.485-.728-1.456V50.082c0-2.184,2.669-3.882,6.308-3.882s6.308,1.7,6.308,3.882V66.095a1.64,1.64,0,0,1-.728,1.456c-.97.485-1.456-.243-2.184-.97s-1.941-1.941-3.4-1.941c-1.213,0-2.426,1.213-3.4,1.941A2.456,2.456,0,0,1,26.113,67.55Zm5.095-18.682c-2.669,0-3.882.97-3.882,1.456V64.154a7.1,7.1,0,0,1,3.882-1.7,5.278,5.278,0,0,1,3.882,1.7V50.325C35.09,49.839,33.877,48.869,31.208,48.869Z" transform="translate(-24.9 -46.2)" fill="#5c4b51"/>
      </g>
      <g id="Сгруппировать_4909" data-name="Сгруппировать 4909" transform="translate(23.534)">
        <path id="Контур_11206" data-name="Контур 11206" d="M25.4,12.069c0-1.456,2.184-2.669,5.095-2.669s5.095,1.213,5.095,2.669V26.626c0,1.456-2.184,2.669-5.095,2.669-3.154,0-5.095-1.213-5.095-2.669Z" transform="translate(-24.187 -8.43)" fill="red"/>
        <path id="Контур_11207" data-name="Контур 11207" d="M31.208,31.078c-3.639,0-6.308-1.456-6.308-3.882V12.639C24.9,10.456,27.569,9,31.208,9s6.308,1.7,6.308,3.882V27.439C37.516,29.623,34.847,31.078,31.208,31.078Zm0-19.652c-2.669,0-3.882.97-3.882,1.456V27.439c0,.485,1.213,1.456,3.882,1.456s3.882-.97,3.882-1.456V12.882C35.09,12.4,33.877,11.426,31.208,11.426Z" transform="translate(-24.9 -9)" fill="#5c4b51"/>
      </g>
      <path id="Контур_11208" data-name="Контур 11208" d="M88,98.757a5.862,5.862,0,0,1-6.065,6.551H25.651A6.523,6.523,0,0,1,19.1,98.757V18.451A6.523,6.523,0,0,1,25.651,11.9H81.938A5.862,5.862,0,0,1,88,18.451Z" transform="translate(-9.638 -4.864)" fill="#f5f4f4"/>
      <path id="Контур_11209" data-name="Контур 11209" d="M85.964,97.389a5.958,5.958,0,0,1-5.823,6.065H26.523A5.958,5.958,0,0,1,20.7,97.389V19.265A5.958,5.958,0,0,1,26.523,13.2H80.142a5.958,5.958,0,0,1,5.823,6.065L87.42,55.9Z" transform="translate(-7.356 -3.01)" fill="#afcb08"/>
      <path id="Контур_11210" data-name="Контур 11210" d="M81.538,106.564H27.192a7.559,7.559,0,0,1-7.521-7.521c0-.243-.97-25.718-.97-40.76s.97-38.819.97-39.062A7.559,7.559,0,0,1,27.192,11.7H81.781A7.559,7.559,0,0,1,89.3,19.221c0,.243,1.456,23.777,1.456,39.062,0,15.042-1.456,39.789-1.456,40.76A7.939,7.939,0,0,1,81.538,106.564ZM27.192,13.884A5.293,5.293,0,0,0,22.1,18.979c0,.243-.97,24.019-.97,39.062s.97,40.517.97,40.76a5.181,5.181,0,0,0,5.095,5.338H81.781a5.293,5.293,0,0,0,5.095-5.095h0c0-.243,1.456-25.475,1.456-40.76s-1.456-38.819-1.456-39.062a5.181,5.181,0,0,0-5.095-5.338H27.192Z" transform="translate(-10.208 -5.149)" fill="#5c4b51"/>
      <g id="Сгруппировать_4910" data-name="Сгруппировать 4910" transform="translate(14.118 9.008)">
        <circle id="Эллипс_833" data-name="Эллипс 833" cx="2.669" cy="2.669" r="2.669" transform="translate(0 1.006) rotate(-10.865)" fill="#f5f4f4"/>
        <circle id="Эллипс_834" data-name="Эллипс 834" cx="1.213" cy="1.213" r="1.213" transform="translate(5.593 6.047) rotate(-10.871)" fill="#f5f4f4"/>
      </g>
      <path id="Контур_11211" data-name="Контур 11211" d="M64.413,45.5a6.859,6.859,0,0,1-.97,4.367A9.418,9.418,0,0,1,59.8,52.536a28.336,28.336,0,0,1-8.734,1.941,52.5,52.5,0,0,1-8.734,0L33.6,53.749a54.018,54.018,0,0,1,8.734-1.213c2.911-.243,5.823-.243,8.492-.485a45.049,45.049,0,0,0,8.249-1.213A13.3,13.3,0,0,0,62.714,48.9,6.427,6.427,0,0,0,64.413,45.5Z" transform="translate(11.042 43.056)" fill="#5c4b51" opacity="0.6"/>
      <g id="Сгруппировать_4911" data-name="Сгруппировать 4911" transform="translate(23.291 24.504)">
        <path id="Контур_11212" data-name="Контур 11212" d="M67.416,36a10.251,10.251,0,0,0-10.19-10.19H56.74a11.781,11.781,0,0,0-20.865,0H35.39a10.19,10.19,0,1,0,0,20.38h.243V57.106a2.431,2.431,0,0,0,2.426,2.426H54.8a2.431,2.431,0,0,0,2.426-2.426V46.188A10.1,10.1,0,0,0,67.416,36Z" transform="translate(-24.23 -18.53)" fill="#f5f4f4"/>
        <path id="Контур_11213" data-name="Контур 11213" d="M55.613,61.558H38.872a3.731,3.731,0,0,1-3.639-3.639v-9.7A11.561,11.561,0,0,1,24.8,36.811a11.341,11.341,0,0,1,11.16-11.4,13.027,13.027,0,0,1,22.321,0,11.186,11.186,0,0,1,11.16,11.4,11.526,11.526,0,0,1-10.19,11.4v9.7A3.731,3.731,0,0,1,55.613,61.558ZM36.2,27.592a8.977,8.977,0,1,0,0,17.954,1.359,1.359,0,0,1,1.456,1.213V57.676a1.146,1.146,0,0,0,1.213,1.213H55.613a1.146,1.146,0,0,0,1.213-1.213V46.759a1.146,1.146,0,0,1,1.213-1.213,8.977,8.977,0,0,0,0-17.954H57.8a1.729,1.729,0,0,1-1.456-.728,10.632,10.632,0,0,0-9.22-5.58,10.347,10.347,0,0,0-9.22,5.58,1.334,1.334,0,0,1-1.213.728Z" transform="translate(-24.8 -19.1)" fill="#5c4b51"/>
      </g>
      <path id="Контур_11214" data-name="Контур 11214" d="M42.064,23.7a4.782,4.782,0,0,1,.728,3.639,6.83,6.83,0,0,1-1.456,3.639A7.882,7.882,0,0,1,38.182,33.4a5.387,5.387,0,0,1-3.882.243,14.228,14.228,0,0,0,4.852-4.367C40.851,28.067,41.579,26.126,42.064,23.7Z" transform="translate(12.04 11.965)" fill="#5c4b51" opacity="0.6"/>
      <g id="Сгруппировать_4922" data-name="Сгруппировать 4922" transform="translate(0 16.013)">
        <g id="Сгруппировать_4913" data-name="Сгруппировать 4913" transform="translate(0 68.418)">
          <path id="Контур_11215" data-name="Контур 11215" d="M31.955,48.425a2.24,2.24,0,0,1-2.184,2.426H17.884A2.394,2.394,0,0,1,15.7,48.425v-1.7A2.24,2.24,0,0,1,17.884,44.3H29.772a2.394,2.394,0,0,1,2.184,2.426Z" transform="translate(-14.487 -43.087)" fill="#f5f4f4"/>
          <path id="Контур_11216" data-name="Контур 11216" d="M30.672,47.626a1.786,1.786,0,0,1-1.941,1.941H18.541A2.087,2.087,0,0,1,16.6,47.626v-.485A1.786,1.786,0,0,1,18.541,45.2h10.19a2.087,2.087,0,0,1,1.941,1.941v.485Z" transform="translate(-13.203 -41.803)" fill="#f3b562"/>
          <path id="Контур_11217" data-name="Контур 11217" d="M30.485,52.777H18.6a3.525,3.525,0,0,1-3.4-3.639v-1.7A3.525,3.525,0,0,1,18.6,43.8H30.485a3.525,3.525,0,0,1,3.4,3.639v1.7A3.525,3.525,0,0,1,30.485,52.777ZM18.6,46.226a1.11,1.11,0,0,0-.97,1.213v1.7a1.11,1.11,0,0,0,.97,1.213H30.485a1.11,1.11,0,0,0,.97-1.213v-1.7a1.11,1.11,0,0,0-.97-1.213Z" transform="translate(-15.2 -43.8)" fill="#5c4b51"/>
          <g id="Сгруппировать_4912" data-name="Сгруппировать 4912" transform="translate(2.719 2.458)">
            <circle id="Эллипс_835" data-name="Эллипс 835" cx="1.213" cy="1.213" r="1.213" transform="translate(0 0.457) rotate(-10.865)" fill="#f5f4f4"/>
          </g>
        </g>
        <g id="Сгруппировать_4915" data-name="Сгруппировать 4915" transform="translate(0 51.435)">
          <path id="Контур_11218" data-name="Контур 11218" d="M31.955,41.325a2.24,2.24,0,0,1-2.184,2.426H17.884A2.394,2.394,0,0,1,15.7,41.325v-1.7A2.24,2.24,0,0,1,17.884,37.2H29.772a2.394,2.394,0,0,1,2.184,2.426Z" transform="translate(-14.487 -36.23)" fill="#f5f4f4"/>
          <path id="Контур_11219" data-name="Контур 11219" d="M30.672,40.526a1.786,1.786,0,0,1-1.941,1.941H18.541A2.087,2.087,0,0,1,16.6,40.526v-.485A1.786,1.786,0,0,1,18.541,38.1h10.19a2.087,2.087,0,0,1,1.941,1.941v.485Z" transform="translate(-13.203 -34.946)" fill="#f3b562"/>
          <path id="Контур_11220" data-name="Контур 11220" d="M30.485,45.777H18.6a3.525,3.525,0,0,1-3.4-3.639v-1.7A3.525,3.525,0,0,1,18.6,36.8H30.485a3.525,3.525,0,0,1,3.4,3.639v1.7A3.525,3.525,0,0,1,30.485,45.777ZM18.6,38.984a1.11,1.11,0,0,0-.97,1.213v1.7a1.11,1.11,0,0,0,.97,1.213H30.485a1.11,1.11,0,0,0,.97-1.213V40.2a1.11,1.11,0,0,0-.97-1.213Z" transform="translate(-15.2 -36.8)" fill="#5c4b51"/>
          <g id="Сгруппировать_4914" data-name="Сгруппировать 4914" transform="translate(2.7 2.216)">
            <circle id="Эллипс_836" data-name="Эллипс 836" cx="1.213" cy="1.213" r="1.213" transform="translate(0 0.457) rotate(-10.859)" fill="#f5f4f4"/>
          </g>
        </g>
        <g id="Сгруппировать_4917" data-name="Сгруппировать 4917" transform="translate(0 34.209)">
          <path id="Контур_11221" data-name="Контур 11221" d="M31.955,34.325a2.24,2.24,0,0,1-2.184,2.426H17.884A2.394,2.394,0,0,1,15.7,34.325v-1.7A2.24,2.24,0,0,1,17.884,30.2H29.772a2.394,2.394,0,0,1,2.184,2.426Z" transform="translate(-14.487 -28.987)" fill="#f5f4f4"/>
          <path id="Контур_11222" data-name="Контур 11222" d="M30.672,33.526a1.786,1.786,0,0,1-1.941,1.941H18.541A2.087,2.087,0,0,1,16.6,33.526v-.485A1.786,1.786,0,0,1,18.541,31.1h10.19a2.087,2.087,0,0,1,1.941,1.941v.485Z" transform="translate(-13.203 -27.703)" fill="#f3b562"/>
          <path id="Контур_11223" data-name="Контур 11223" d="M30.485,38.677H18.6a3.525,3.525,0,0,1-3.4-3.639v-1.7A3.525,3.525,0,0,1,18.6,29.7H30.485a3.525,3.525,0,0,1,3.4,3.639v1.7A3.525,3.525,0,0,1,30.485,38.677ZM18.6,32.126a1.11,1.11,0,0,0-.97,1.213v1.7a1.11,1.11,0,0,0,.97,1.213H30.485a1.11,1.11,0,0,0,.97-1.213v-1.7a1.11,1.11,0,0,0-.97-1.213Z" transform="translate(-15.2 -29.7)" fill="#5c4b51"/>
          <g id="Сгруппировать_4916" data-name="Сгруппировать 4916" transform="translate(2.729 2.456)">
            <circle id="Эллипс_837" data-name="Эллипс 837" cx="1.213" cy="1.213" r="1.213" transform="translate(0 0.457) rotate(-10.865)" fill="#f5f4f4"/>
          </g>
        </g>
        <g id="Сгруппировать_4919" data-name="Сгруппировать 4919" transform="translate(0 16.983)">
          <path id="Контур_11224" data-name="Контур 11224" d="M31.955,27.225a2.24,2.24,0,0,1-2.184,2.426H17.884A2.394,2.394,0,0,1,15.7,27.225v-1.7A2.24,2.24,0,0,1,17.884,23.1H29.772a2.394,2.394,0,0,1,2.184,2.426Z" transform="translate(-14.487 -21.887)" fill="#f5f4f4"/>
          <path id="Контур_11225" data-name="Контур 11225" d="M30.672,26.426a1.786,1.786,0,0,1-1.941,1.941H18.541A2.087,2.087,0,0,1,16.6,26.426v-.485A1.786,1.786,0,0,1,18.541,24h10.19a2.087,2.087,0,0,1,1.941,1.941v.485Z" transform="translate(-13.203 -20.603)" fill="#f3b562"/>
          <path id="Контур_11226" data-name="Контур 11226" d="M30.485,31.577H18.6a3.525,3.525,0,0,1-3.4-3.639v-1.7A3.525,3.525,0,0,1,18.6,22.6H30.485a3.525,3.525,0,0,1,3.4,3.639v1.7A3.382,3.382,0,0,1,30.485,31.577ZM18.6,25.026a1.11,1.11,0,0,0-.97,1.213v1.7a1.11,1.11,0,0,0,.97,1.213H30.485a1.11,1.11,0,0,0,.97-1.213v-1.7a1.11,1.11,0,0,0-.97-1.213Z" transform="translate(-15.2 -22.6)" fill="#5c4b51"/>
          <g id="Сгруппировать_4918" data-name="Сгруппировать 4918" transform="translate(2.709 2.457)">
            <circle id="Эллипс_838" data-name="Эллипс 838" cx="1.213" cy="1.213" r="1.213" transform="translate(0 0.457) rotate(-10.859)" fill="#f5f4f4"/>
          </g>
        </g>
        <g id="Сгруппировать_4921" data-name="Сгруппировать 4921">
          <path id="Контур_11227" data-name="Контур 11227" d="M31.955,20.125a2.24,2.24,0,0,1-2.184,2.426H17.884A2.394,2.394,0,0,1,15.7,20.125v-1.7A2.24,2.24,0,0,1,17.884,16H29.772a2.394,2.394,0,0,1,2.184,2.426Z" transform="translate(-14.487 -15.03)" fill="#f5f4f4"/>
          <path id="Контур_11228" data-name="Контур 11228" d="M30.672,19.326a1.786,1.786,0,0,1-1.941,1.941H18.541A2.087,2.087,0,0,1,16.6,19.326v-.485A1.786,1.786,0,0,1,18.541,16.9h10.19a2.087,2.087,0,0,1,1.941,1.941v.485Z" transform="translate(-13.203 -13.746)" fill="#f3b562"/>
          <path id="Контур_11229" data-name="Контур 11229" d="M30.485,24.577H18.6a3.525,3.525,0,0,1-3.4-3.639v-1.7A3.525,3.525,0,0,1,18.6,15.6H30.485a3.525,3.525,0,0,1,3.4,3.639v1.7A3.525,3.525,0,0,1,30.485,24.577ZM18.6,18.026a1.11,1.11,0,0,0-.97,1.213v1.7a1.11,1.11,0,0,0,.97,1.213H30.485a1.11,1.11,0,0,0,.97-1.213v-1.7a1.11,1.11,0,0,0-.97-1.213Z" transform="translate(-15.2 -15.6)" fill="#5c4b51"/>
          <g id="Сгруппировать_4920" data-name="Сгруппировать 4920" transform="translate(3.435 2.697)">
            <circle id="Эллипс_839" data-name="Эллипс 839" cx="1.213" cy="1.213" r="1.213" transform="translate(0 0.457) rotate(-10.865)" fill="#f5f4f4"/>
          </g>
        </g>
      </g>
    </g>
  </g>
</svg>
