<svg xmlns="http://www.w3.org/2000/svg" width="104.662" height="109.658" viewBox="0 0 104.662 109.658">
  <g id="chef_cap" transform="translate(-10.9 -11.1)">
    <g id="Сгруппировать_4815" data-name="Сгруппировать 4815" transform="translate(10.9 11.1)">
      <path id="Контур_11116" data-name="Контур 11116" d="M113.664,51.816A24.626,24.626,0,0,0,88.935,27.087H87.686A28.3,28.3,0,0,0,62.457,11.6,27.921,27.921,0,0,0,37.478,27.087h-.749C22.741,27.087,11.5,38.328,11.5,51.816s10.741,24.23,24.48,24.729c-1.249,4-2.248,7.744-3,10.491-2,8.743,3.247,23.48,3.247,23.48,1.5,3.747,3,6.495,6.245,6.495H83.19c3.247,0,6.744-2.748,5.995-5.995,0,0,2.748-14.238,2.5-19.983-.25-3-1-8.493-2-14.238A25.027,25.027,0,0,0,113.664,51.816Z" transform="translate(-10.001 -10.351)" fill="#f5f4f4"/>
      <path id="Контур_11117" data-name="Контур 11117" d="M111.068,51.767c0-12.739-10.491-22.981-23.73-22.981h-1a25.2,25.2,0,0,0-46.711-.5c-1,0-1.749-.25-2.748-.25-13.239,0-23.98,9.992-23.98,22.231,0,11.74,9.742,21.482,22.231,22.231a57.211,57.211,0,0,1-.5,11.74c-1,5.5-.5,13.738,3.247,24.979,1,3,3.247,5.745,6.245,5.745a89.024,89.024,0,0,0,18.984,1.749,89.024,89.024,0,0,0,18.984-1.749c3,0,5.246-3.747,6.245-7.494l2.5-19.234-2.5-13.988A22.6,22.6,0,0,0,111.068,51.767Z" transform="translate(-7.904 -8.554)" fill="#f5f5f5"/>
      <circle id="Эллипс_803" data-name="Эллипс 803" cx="2.498" cy="2.498" r="2.498" transform="translate(10.741 23.48)" fill="#f5f4f4"/>
      <path id="Контур_11118" data-name="Контур 11118" d="M63.869,49.2a4.791,4.791,0,0,1-2.248,4.5,16.567,16.567,0,0,1-4.746,2.248,46.05,46.05,0,0,1-9.992,1.5c-3.247.25-6.744,0-9.992,0-3.247-.25-6.744-.5-9.992-.749a45.214,45.214,0,0,1,9.992-1l9.992-.5c3.247-.25,6.495-.5,9.742-1a13.643,13.643,0,0,0,4.5-1.5,3.358,3.358,0,0,0,1.749-1.5C63.369,50.949,63.619,50.2,63.869,49.2Z" transform="translate(13.067 45.97)" fill="#b4b4b4" opacity="0.6"/>
      <path id="Контур_11119" data-name="Контур 11119" d="M59.337,26.5a16.156,16.156,0,0,1,.749,7.744,20.3,20.3,0,0,1-3,7.244,17.216,17.216,0,0,1-5.995,5.246A15.743,15.743,0,0,1,43.6,48.482a24.414,24.414,0,0,0,11.49-8.243,18.61,18.61,0,0,0,3.247-6.245C58.837,31.5,59.087,29,59.337,26.5Z" transform="translate(38.082 11.968)" fill="#b4b4b4" opacity="0.6"/>
      <path id="Контур_11120" data-name="Контур 11120" d="M63.356,120.758a113.549,113.549,0,0,1-20.233-1.749,7.148,7.148,0,0,1-6.994-6.994,47.949,47.949,0,0,1-3.5-20.483c.25-5,2-10.491,2.748-12.989a26,26,0,0,1,1.5-51.957h.5A29.467,29.467,0,0,1,63.106,11.1,30.16,30.16,0,0,1,89.085,26.587h.5a26.009,26.009,0,0,1,1.749,51.957,49.234,49.234,0,0,1,2,13.239c.25,9.492-2.248,18.984-2.5,20.233a7.04,7.04,0,0,1-7.244,6.994A110.906,110.906,0,0,1,63.356,120.758ZM37.128,76.3a1.908,1.908,0,0,1,1.249.5,1.1,1.1,0,0,1,.25,1.249s-3,7.494-3.247,13.988a48.989,48.989,0,0,0,3.247,19.484v.5a4.743,4.743,0,0,0,4.746,4.746h.25a111.95,111.95,0,0,0,19.733,1.749,118.011,118.011,0,0,0,20.233-1.749,4.965,4.965,0,0,0,5-4.746v-.25a78.176,78.176,0,0,0,2.5-19.733,59.514,59.514,0,0,0-2.5-13.988c0-.5,0-.749.25-1a1.3,1.3,0,0,1,1-.5,23.481,23.481,0,0,0-.25-46.961H88.335a1.374,1.374,0,0,1-1.249-.749A27.324,27.324,0,0,0,63.106,14.1a26.944,26.944,0,0,0-23.73,14.738,1.374,1.374,0,0,1-1.249.749H36.878A23.453,23.453,0,0,0,13.4,53.065,23.952,23.952,0,0,0,37.128,76.3Z" transform="translate(-10.9 -11.1)" fill="#1d1d1b"/>
      <circle id="Эллипс_804" data-name="Эллипс 804" cx="2.498" cy="2.498" r="2.498" transform="translate(40.216 4.996)" fill="#f5f4f4"/>
      <path id="Контур_11121" data-name="Контур 11121" d="M52.185,22.6a17.227,17.227,0,0,1,.749,8.743,20.125,20.125,0,0,1-3.5,8.243,16.666,16.666,0,0,1-6.744,5.745,17.019,17.019,0,0,1-8.493,2,26.671,26.671,0,0,0,13.239-9.242,24.343,24.343,0,0,0,3.5-7.244A40.784,40.784,0,0,0,52.185,22.6Z" transform="translate(24.001 6.126)" fill="#b4b4b4" opacity="0.6"/>
      <path id="Контур_11122" data-name="Контур 11122" d="M41.385,26.3a17.227,17.227,0,0,1,.749,8.743,20.125,20.125,0,0,1-3.5,8.243,16.666,16.666,0,0,1-6.744,5.745,17.019,17.019,0,0,1-8.493,2,26.672,26.672,0,0,0,13.239-9.242,24.343,24.343,0,0,0,3.5-7.244A47,47,0,0,0,41.385,26.3Z" transform="translate(7.824 11.668)" fill="#b4b4b4" opacity="0.6"/>
      <circle id="Эллипс_805" data-name="Эллипс 805" cx="1.249" cy="1.249" r="1.249" transform="translate(45.212 9.992)" fill="#f5f4f4"/>
      <path id="Контур_11123" data-name="Контур 11123" d="M49.764,52.235c-11.99,0-28.476-2.5-28.726-2.5a1.274,1.274,0,1,1,.5-2.5c.25,0,16.736,2.5,28.226,2.5,11.74,0,27.727-1.749,27.977-1.749a1.687,1.687,0,0,1,1.5,1,1.687,1.687,0,0,1-1,1.5C77.741,50.486,61.754,52.235,49.764,52.235Z" transform="translate(2.692 42.936)" fill="#1d1d1b"/>
    </g>
  </g>
</svg>
