<svg xmlns="http://www.w3.org/2000/svg" width="85.399" height="42.756" viewBox="0 0 85.399 42.756">
  <path id="Объединение_263" data-name="Объединение 263" d="M73.361,40.177a1.4,1.4,0,0,0-.483-.039c-.229.009-.41.022-.538.039a.91.91,0,0,1-.4.013c-.12-.025-.327-.073-.621-.141-.275-.069-.451-.113-.525-.13a2.451,2.451,0,0,1-.386-.156,2.72,2.72,0,0,0-.415-.13.425.425,0,0,1-.248-.155,1.085,1.085,0,0,0-.318-.246,2.383,2.383,0,0,0-.346-.142A.922.922,0,0,1,68.888,39a3.087,3.087,0,0,1-.331-.452,2.4,2.4,0,0,0-.262-.3c-.083-.078-.166-.15-.248-.22s-.161-.138-.235-.207a1.325,1.325,0,0,1-.22-.285,4.286,4.286,0,0,1-.346-.569,2.141,2.141,0,0,1-.151-.491,3.6,3.6,0,0,0-.166-.465q-.084-.181-.276-.673a2.548,2.548,0,0,1-.249-.957q-.027-.491-.082-.983a3.911,3.911,0,0,1,.027-1.035,2.9,2.9,0,0,0,.055-.724.824.824,0,0,1,.042-.389,1.141,1.141,0,0,1,.124-.284.211.211,0,0,0,.055-.194.67.67,0,0,1-.028-.194v-.168c0-.026.037-.065.111-.117a.214.214,0,0,0,.083-.155c0-.051.01-.181.028-.388a1.213,1.213,0,0,1,.151-.517c.083-.138.236-.414.455-.828a5.277,5.277,0,0,0,.249-.517,3.477,3.477,0,0,1,.151-.336.823.823,0,0,1,.152-.207.645.645,0,0,1,.248-.13,1.509,1.509,0,0,1,.18-.22.725.725,0,0,1,.138-.1.567.567,0,0,0,.139-.117c.045-.051.114-.138.206-.258a.928.928,0,0,1,.236-.271,1.208,1.208,0,0,1,.248-.143q.123-.051.248-.116a1.179,1.179,0,0,0,.262-.194,1.7,1.7,0,0,1,.22-.181.46.46,0,0,1,.194-.064c.074-.009.161-.017.262-.026a2.512,2.512,0,0,0,.428-.091,2.649,2.649,0,0,1,1.008-.156,8.4,8.4,0,0,0,.952,0,2.015,2.015,0,0,1,.373-.013c.083.009.147.018.193.026a1.03,1.03,0,0,1,.111.026.127.127,0,0,0,.1-.014,1.157,1.157,0,0,1,.5,0,1.778,1.778,0,0,0,.5.026c.091-.017.133-.013.123.014s.06.056.208.09a.8.8,0,0,1,.193.052H75.4c.111,0,.17.017.179.051s.106.086.291.156c.184.051.364.1.538.155a2.279,2.279,0,0,1,.76.57,3.068,3.068,0,0,0,.414.374c.11.077.207.142.29.194a1.37,1.37,0,0,1,.18.13.353.353,0,0,1,.082.181.47.47,0,0,1,.194.13.784.784,0,0,1,.055.182c.019.086.042.133.069.142s.059.056.1.141.07.126.1.117.059.056.1.194a.608.608,0,0,1,.028.091.037.037,0,0,0,.014.026.438.438,0,0,1,.041.051,1.1,1.1,0,0,1,.083.168,2.224,2.224,0,0,1,.193.776,3.271,3.271,0,0,1,0,.854h-.29c-.047,0-.074,0-.083-.014a.061.061,0,0,0-.041-.013h-.139a1.461,1.461,0,0,0-.386.052.4.4,0,0,1-.387-.13l-.123.116a1.1,1.1,0,0,1-.263.014c-.11,0-.216,0-.318-.014s-.17-.013-.207-.013c-.074-.19-.12-.306-.138-.349s-.046-.117-.083-.22a.146.146,0,0,0,.166,0h.055c0-.035,0-.048-.014-.04s-.005,0,.014-.039l-.111-.1a.193.193,0,0,1-.068.077.42.42,0,0,0-.069.051.934.934,0,0,1-.027-.388,1.531,1.531,0,0,1-.346-.116.775.775,0,0,1-.263-.3.722.722,0,0,0-.275-.3,1.774,1.774,0,0,1-.359-.246h-.29c-.047,0-.1-.042-.152-.129a.314.314,0,0,0-.207-.1.173.173,0,0,1-.151-.078c-.038-.051-.112-.064-.221-.039a.4.4,0,0,1-.3-.039,1.44,1.44,0,0,1-.428.039c-.138-.008-.318-.03-.538-.064a1.654,1.654,0,0,0-.539-.014l-.345.065a.268.268,0,0,1-.138.013c-.019-.008-.065.005-.139.039-.092.035-.143.061-.151.078s-.023.017-.042,0-.073,0-.165.051a1.056,1.056,0,0,0-.193.13.163.163,0,0,1-.166.051c-.037-.016-.111.018-.221.1q-.275.207-.483.348a1.213,1.213,0,0,0-.373.557,1.157,1.157,0,0,1-.193.284.41.41,0,0,1-.068.271q-.1.194-.151.194c-.019,0-.056.077-.111.233s-.1.3-.139.439q-.055-.026-.124-.051a.523.523,0,0,0-.179-.026c.018.052.032.077.041.077a.438.438,0,0,1,.1.052,1.222,1.222,0,0,1-.027.284.509.509,0,0,0-.111.013.471.471,0,0,1-.111.014.659.659,0,0,0,.013.155c.009.035-.013.069-.068.1a.15.15,0,0,1,.055.1c.148,0,.225-.039.235-.117a.892.892,0,0,1,.068-.245h.111v-.026a.7.7,0,0,1,.014.233.261.261,0,0,1-.151.181h-.028a.819.819,0,0,1,.028.207h.027l-.082.232a.992.992,0,0,0-.36-.18v-.259a.45.45,0,0,1-.3-.077.056.056,0,0,1-.041-.014.063.063,0,0,0-.041-.013.5.5,0,0,1,.028-.207.124.124,0,0,1,.152-.077.3.3,0,0,0,.206-.026c.019-.034.019-.06,0-.077a.644.644,0,0,0-.014-.168.276.276,0,0,0-.068-.091h-.3v-.155a.291.291,0,0,0-.027-.13h-.139c-.074.1-.083.19-.028.259.037.017.05.022.042.013s0-.013.04-.013l.041-.039c-.009.008,0,.03.042.064H68.5c0,.173-.023.272-.069.3a2.471,2.471,0,0,1-.262.116c.037.035.087.078.152.13a.607.607,0,0,1,.152.181.289.289,0,0,1,.055.168.184.184,0,0,0,.055.142.255.255,0,0,0,.139.065.537.537,0,0,1,.138.039c.073.1.064.181-.028.232l.055.078h.249a.719.719,0,0,0,0,.284.8.8,0,0,1,.055.207c-.018,0-.028,0-.028.013s-.009.014-.027.014a.23.23,0,0,1-.069-.1c-.01-.035-.06-.052-.152-.052a.161.161,0,0,0,0,.13.554.554,0,0,1,.028.181.192.192,0,0,1,.138.052h.028a.758.758,0,0,0,.055.362q-.027,0-.027.014c0,.008-.01.013-.028.013a.2.2,0,0,1,.028.09.138.138,0,0,0,.055.091c.037.017.056.06.056.129h-.056l.056.027c0,.068-.019.112-.056.129a.806.806,0,0,1-.055.259,2.386,2.386,0,0,0,.068.646c.046.156.1.337.152.544a2.55,2.55,0,0,0,.083.271.286.286,0,0,0,.069.1l.124.117a1.533,1.533,0,0,1,.22.31l.359.544h-.083c-.055-.034-.074-.065-.055-.09s.009-.056-.028-.091a.126.126,0,0,0-.069-.065.127.127,0,0,1-.069-.064H69.8a.183.183,0,0,0-.028.077,1.115,1.115,0,0,0,.041.1.891.891,0,0,1,.041.129q.248-.026.248.285a.472.472,0,0,0,.139-.066.5.5,0,0,1,.138-.064v-.052a.088.088,0,0,0,.083.052.886.886,0,0,1,.056.194.081.081,0,0,0,.027.065.886.886,0,0,0,.152.091c.083.043.234.133.455.271a2.527,2.527,0,0,0,.525.272,4.247,4.247,0,0,0,.469.143,1.524,1.524,0,0,0,.442.077l1.27-.052a1.1,1.1,0,0,0,.428-.077.469.469,0,0,1,.263-.052.252.252,0,0,1,.234-.09.482.482,0,0,0,.346-.168,1.1,1.1,0,0,1,.166-.1.8.8,0,0,1,.1-.039c.028-.008.059-.017.1-.026a.894.894,0,0,0,.165-.065,1.483,1.483,0,0,0,.4-.348,2.369,2.369,0,0,0,.235-.324,2.037,2.037,0,0,0,.1-.207c.028-.068.059-.147.1-.233a.158.158,0,0,0,.083-.051l.028-.052a.125.125,0,0,0-.083-.025,6.768,6.768,0,0,0,.165-.828h.248c.019,0,.028,0,.028.013S76.968,35,77,35v-.025H77.2a.4.4,0,0,1,.276-.052v.026c0,.018-.01.026-.028.026.018,0,.028,0,.028.013s.009.013.027.013a1.04,1.04,0,0,0,.276-.025,2.156,2.156,0,0,0,.47,0,.319.319,0,0,1,.207-.026l.124.051h.5c-.038.294-.079.574-.124.841a5.352,5.352,0,0,1-.263.918,9.318,9.318,0,0,1-.346.893,3.141,3.141,0,0,1-.262.478,1.043,1.043,0,0,1-.193.22c-.055.044-.1.083-.138.117a.692.692,0,0,1-.235.22c-.1.061-.17.1-.207.117a.43.43,0,0,0-.138.155l-.083.116a.286.286,0,0,1-.166.066c-.074.017-.115.047-.124.09a.272.272,0,0,1-.124.142,1.517,1.517,0,0,1-.318.181,2.637,2.637,0,0,1-.373.13l-.248.077a1.774,1.774,0,0,0-.3.156,1.264,1.264,0,0,1-.47.13c-.238.033-.488.068-.745.1l-.028-.025v.025c-.2.017-.382.035-.537.052a1.278,1.278,0,0,1-.136.008A.241.241,0,0,1,73.361,40.177Zm.387-.207v-.026h-.056Zm-.856-.026v.026h.138v-.051l-.111-.026Zm-1.1-1.06v-.026l.055-.025H71.76Zm2.346-.051v-.026l.028-.026h-.055ZM76.4,38.16l.027-.027.084-.051h-.084Zm.856-.027v-.025H77.2Zm-6.24,0,.055-.025.028-.026-.083-.026Zm-1.16-.31h.055l-.055-.156Zm5.771-.363h.027l-.027-.052Zm.8-.026h.084l.055-.1-.166-.025Zm-6.184,0v-.026l.028-.051h-.056ZM69.8,37.1v.051l.028-.025.027-.052Zm7.068-.026v-.026l.028-.026h-.028l-.055-.077.028.077h-.056Zm-6.24,0h.083L70.655,37Zm6.958-.026L77.64,37l.028-.052h-.083Zm-8.476,0h.055V37l-.11-.052Zm.718-.026h.11v-.077l-.083-.025Zm-1.491-.077h.055l-.055-.051Zm8.476-.672.055.13.193-.284H77Zm.773.052h.055l.055-.078v-.051l-.082-.051Zm-.331-.259v.026h.028l-.028-.233-.083-.026h-.056Zm-10.216-.1.056.077.138-.025-.027-.078-.084-.077Zm10.933,0,.056-.026h.028l-.084-.026Zm-1.242-.336.055.077.22-.077-.138-.13Zm1.076-.026v.026h.056v-.1h-.084Zm-.634-.569-.083.181.358.1-.055-.258L77.282,35Zm-8.532-2.872.029-.077-.139-.051Zm-.525-1.371v-.026H68.06Zm.028-1.139v.077l.359.233.055.258.331.1v.1l.193-.077v-.052l-.027-.051-.139.051h-.055l.027-.155-.193-.258-.056.025-.221-.284-.083-.026Zm9.526.284v-.026l.027-.025H77.64Zm-9.112-.491.083.077.221-.077v-.259H68.7Zm8.807.052h.166l-.028-.1v-.051h-.11Zm.691-.207-.028.051v.051l.028.052.138-.025v-.13l.027.1h.028l.056-.1-.056-.026h-.111Zm-.773.051h.11l-.11-.077ZM76.9,29l-.055.156.11.025.084-.129L77,28.976Zm1.6.156.166-.026-.027-.1-.112-.077-.138.026v.13l.083-.052Zm-.745-.077.027.026.084-.052-.111-.181h-.083Zm-9.608-.052v.078l.166-.1-.138-.025ZM69.054,29l-.028.052v.026l.138-.052.028-.077Zm7.371,0v.052l.084-.077Zm-8.283-.129h.028l.055-.026v-.052l-.083-.025Zm-.386-.078.028.026v-.051l-.028-.026-.028-.026Zm9.581,0h.11l-.055-.077v-.051h-.11Zm-.828-.025.138.025H76.7v-.025l-.193-.052Zm-8.532,0,.056.025.082-.051-.027-.155-.138-.026Zm10.05-.1.083-.052-.055-.051Zm-1.877-.207v.1l.027.077h.055l.111-.129-.166-.13Zm-7.62.155.027.026.028-.026-.055-.077Zm-.773.026h.028l-.028-.026Zm9.912-.129.138.051h.056l-.193-.181Zm-.8-.156.138.181h.167l-.221-.207Zm.387-.13.028.026.027.052v-.027l.166-.051-.028-.077v-.077h-.11Zm-1.436.051v-.025h-.056Zm2.263-.025.221-.077v-.13h-.221Zm-1.518-.077-.055.051v.026h.11l.166-.13v-.077h-.111Zm-8.256.025v-.025l.028-.026-.139-.1Zm.884-.362.111-.026.027-.025H69.3V27.76l-.055.026-.056-.026Zm4.8-.181h.028v.1h.055l-.055-.1L74,27.606Zm.994-.311.056.13H75.1l.055-.052-.11-.1Zm-.773-.1v.077H74.3l.028-.31h-.056Zm-.939,0,.028-.077.028-.052-.139-.051Zm.8-.051v.025h.028l-.056-.077Zm2.1-.078v.052l.055-.026.029-.026h-.029v-.025l.056.025v-.025l.028-.077h-.084Zm.166-.051h.028l-.028-.051Zm-1.656,0h.055v-.051h-.055Zm-.276-.207.027.129.166-.025-.083-.155v.051l-.084-.026Zm-4.362.129H70.1l-.055-.051Zm2.9-.232-.111.025-.055.13.028.052.22-.155v-.13l-.083-.026Zm.939-.026v-.077l-.083-.026Zm-.3-.077h.083v-.026l-.083-.026Zm.525-.026h.027l-.027-.077Zm-.912-.181.359.077v-.025l.028-.052-.415-.077Zm.967-.077h.11v-.052h-.11ZM73.416,26h.056v-.155h-.111Zm-1.573-.232v-.026H71.76Zm3.174-.077v.025h.056l-.027-.181-.084-.025ZM41.645,40.136a.875.875,0,0,1-.18-.051.629.629,0,0,0-.235-.039,3.65,3.65,0,0,1-.373-.026l-.455-.052c-.148-.017-.285-.034-.414-.051a1.13,1.13,0,0,1-.248-.051,1.45,1.45,0,0,0-.7-.077.8.8,0,0,1-.539-.078,3.912,3.912,0,0,0-.482-.194c-.138-.042-.263-.085-.374-.129a1.654,1.654,0,0,1-.3-.155,1.032,1.032,0,0,1-.276-.3,4.786,4.786,0,0,0-.442-.414.882.882,0,0,1-.275-.362c-.056-.156-.093-.25-.111-.285a.3.3,0,0,0-.056-.077.539.539,0,0,1-.068-.091c-.028-.042-.087-.133-.18-.271a2.532,2.532,0,0,1-.358-.931,4.4,4.4,0,0,1-.056-.983c.092,0,.226-.009.4-.026a.955.955,0,0,1,.4.026.249.249,0,0,0,.221,0,.309.309,0,0,1,.221-.026,1.312,1.312,0,0,0,.235.026h.318c.128,0,.188,0,.179.013a1.765,1.765,0,0,0,.373.014,2.74,2.74,0,0,0,.069.413,1.039,1.039,0,0,0,.11.272,1.347,1.347,0,0,0,.179.233c.074.077.167.185.276.323.258.086.391.155.4.207a.437.437,0,0,0,.151.207,1.208,1.208,0,0,0,.262.194c.083.042.18.1.291.168a1.323,1.323,0,0,0,.565.116,1.781,1.781,0,0,1,.7.168.253.253,0,0,0,.275.039.788.788,0,0,0,.194-.116c.019.034.032.042.042.025s.032-.017.068,0V37.77a.088.088,0,0,1,.083-.052,1.366,1.366,0,0,1,.4-.039,1.618,1.618,0,0,0,.428-.039c.148-.035.285-.074.414-.117a1.317,1.317,0,0,1,.414-.065.219.219,0,0,1,.152-.232.324.324,0,0,0,.208-.207v0H43.6a.08.08,0,0,1,.055-.026v-.129a.084.084,0,0,0-.055-.026c.036-.086.068-.168.1-.247a.808.808,0,0,1,.1-.194c.055-.068.065-.125.028-.168a.728.728,0,0,1-.111-.22.746.746,0,0,0-.318-.284q-.262-.155-.565-.363c-.166,0-.253-.038-.263-.116s-.087-.142-.234-.194a2,2,0,0,1-.387-.155,2.684,2.684,0,0,1-.276-.181,2.248,2.248,0,0,0-.552-.246,6.891,6.891,0,0,1-.69-.272.87.87,0,0,1-.331-.116,1.77,1.77,0,0,0-.221-.143,4.045,4.045,0,0,1-.4-.22,1.482,1.482,0,0,1-.4-.349c-.166.069-.267.077-.3.026a.889.889,0,0,0-.193-.181.971.971,0,0,0-.248-.1.584.584,0,0,1-.249-.156,1.039,1.039,0,0,0-.206-.194,2.153,2.153,0,0,1-.208-.142,1.51,1.51,0,0,1-.234-.207c-.1-.1-.217-.212-.346-.324s-.248-.223-.359-.336-.193-.2-.248-.272a.709.709,0,0,0-.262-.232c-.083-.035-.116-.147-.1-.337v-.156a.2.2,0,0,1-.138-.051.862.862,0,0,1-.138-.285,2.647,2.647,0,0,1-.221-1.085l.028.025a.276.276,0,0,1,.041-.065c.009-.008.014-.039.014-.09a.121.121,0,0,0-.083.025,1.836,1.836,0,0,0,.041-.194.883.883,0,0,1,.069-.22,1.387,1.387,0,0,0,.111-.388c.018-.138.036-.267.055-.388a.892.892,0,0,1,.111-.324.535.535,0,0,1,.3-.22v-.078h.055v-.1h-.05a1.288,1.288,0,0,1,.311-.556q.263-.3.374-.4c.092-.068.266-.194.525-.374a2.085,2.085,0,0,1,.911-.35,4.632,4.632,0,0,1,.952-.362,3.8,3.8,0,0,1,1.284-.1h.194c0,.034,0,.056.014.065a.1.1,0,0,1,.014.065.224.224,0,0,1,.083-.026.262.262,0,0,1,.111-.026v-.129a1.58,1.58,0,0,1,.291-.026.9.9,0,0,1,.428.181,1.009,1.009,0,0,1,.593-.026,4.809,4.809,0,0,0,.511.155.806.806,0,0,0,.442.027c.091-.035.194.034.3.206.036.069.069.1.1.091a1.036,1.036,0,0,1,.124-.026.7.7,0,0,1,.221.013,1.128,1.128,0,0,1,.386.207,3.584,3.584,0,0,0,.346.233.349.349,0,0,0,.138.052c.028,0,.041,0,.041.013s.028.039.083.09a.745.745,0,0,0,.318.285,1.106,1.106,0,0,1,.4.388,6.037,6.037,0,0,1,.373.711,3.018,3.018,0,0,1,.235.763q.054.338.069.595c.008.173.014.38.014.621a3.628,3.628,0,0,1-.539-.026.97.97,0,0,0-.373.026c-.129.017-.2.017-.221,0a.906.906,0,0,0-.248-.077.39.39,0,0,1-.359.077,2.126,2.126,0,0,0-.525-.051,1.675,1.675,0,0,1-.166-.389c-.018-.086-.037-.159-.055-.22s-.041-.124-.069-.193a1.963,1.963,0,0,0-.207-.337,1.654,1.654,0,0,0-.608-.582c-.2-.094-.424-.193-.662-.3-.239-.035-.424-.06-.553-.077a6.116,6.116,0,0,0-.69-.026.755.755,0,0,1-.525.156.789.789,0,0,0-.442.025,2.653,2.653,0,0,0-.717.258,1.983,1.983,0,0,0-.346.233.488.488,0,0,0-.179.284,2.319,2.319,0,0,1-.083.324.952.952,0,0,0-.04.375,1.47,1.47,0,0,0,.11.452,1.87,1.87,0,0,0,.346.531.448.448,0,0,1,.275.194,1.889,1.889,0,0,0,.221.324.784.784,0,0,0,.262.194q.18.09.414.194l.47.207a1.407,1.407,0,0,1,.4.258,1.358,1.358,0,0,0,.607.336,1.254,1.254,0,0,1,.47.182.771.771,0,0,0,.275.142c.13.042.267.09.415.141s.29.108.428.168a.779.779,0,0,1,.291.194.856.856,0,0,0,.317.221,4.438,4.438,0,0,1,.414.207,2.935,2.935,0,0,1,.373.245.484.484,0,0,1,.194.311c.167-.017.262.013.291.09a.639.639,0,0,0,.179.246.8.8,0,0,0,.248.181c.055.017.1.086.138.207.037.138.083.211.139.221s.1.064.138.168a.465.465,0,0,0,.124.232c.046.034.069.121.069.258a2.085,2.085,0,0,0,.082.518,2.288,2.288,0,0,1,.084.595v.466a3.334,3.334,0,0,1-.084.7,2.527,2.527,0,0,1-.317.777,2.258,2.258,0,0,1-.7.7.5.5,0,0,1-.151.168.48.48,0,0,1-.138.052.81.81,0,0,1-.139.013.3.3,0,0,0-.152.051c-.129.086-.234.159-.318.22a.966.966,0,0,1-.372.143c-.166.033-.263.056-.29.064s-.124.056-.291.143a2.164,2.164,0,0,1-.345.09c-.138.025-.291.048-.455.065a4.737,4.737,0,0,1-.483.026,1.1,1.1,0,0,1-.374-.052.725.725,0,0,1-.234.13.479.479,0,0,1-.122.017A.352.352,0,0,1,41.645,40.136Zm-3.451-1v.025l.111.026v.1h.055l.083-.155-.055-.026Zm.856.13H39.1l-.055-.026Zm5.218-.1h.056v-.051h-.056ZM40.181,38.8v.13h.111l-.029-.1v-.052h-.055Zm-1.574.026.138.077-.083-.155h-.055Zm.884.052.055-.026-.028-.078Zm1.132-.363.11.1.056-.207h-.028v-.051h-.028v.129h-.11Zm-2.375-.052v.052l.056-.078v-.025Zm6.019-.051.028-.051h-.028Zm-7.013,0v-.051h-.028Zm4.666-.181v-.207l-.166.13-.028.025h.028v.026l.028-.051Zm1.132-.182.083.026v-.026L43.19,38h-.055l-.056-.026Zm2.4-.025.11.025.028-.077-.055-.052h-.055Zm-.912-.052v.052l.084-.052h.055l-.111-.052ZM46.228,38l.055-.051-.028-.027Zm-4.639-.026.028-.052h-.028Zm4.279-.258.056-.026h.027l-.083-.051ZM44.3,37.641h.055v-.026Zm-.773,0h.138l-.028-.182-.027.026h-.083Zm-6.378-.182v-.077h-.083ZM45.4,37.3l.138.052v-.1l-.028-.026h-.083Zm-1.518.052.055-.078h-.055Zm.386-.363.138-.052.028-.129-.194.052h-.028Zm.773-.207-.028.1h.166l-.027-.13Zm.055-.544h.056v-.051H45.1Zm-.469-.439-.028.077.111-.026.027-.051-.027-.026Zm.11.051.055-.025h.028V35.8Zm-.69-.025.028-.026H44.1v-.051h-.166Zm.3-.363.028-.051H44.35Zm-.359-.284v.026h.194v-.13Zm-1.1-1.293v-.051H42.86Zm1.795-.232v.077l.055-.026.028-.051h-.028v-.026l.055.026v-.026l.028-.078h-.083Zm-1.27-.026.111.026-.083-.052Zm1.435-.026H44.9l-.056-.052Zm-1.657,0h.056v-.052H43.19Zm1.243-.052h.055V33.5Zm-2.044-.13h.056v-.051h-.056Zm-2.07-.1h.028l.055.025.055-.155-.082-.026Zm1.629-.776H42v-.182h-.11Zm.276-.388.027.025-.027.026h.111l.027-.1Zm-2.982.025H39.3l-.055-.077Zm-.443-.259V31.9h-.055Zm-.855-.025v.025h.166v-.051L38,31.846Zm-1.076-1.06v-.027l.027-.025h-.055Zm2.318-.052v-.026l.028-.025H39.16Zm-.11-.388v.077h.11L39.16,30.4l-.056-.026Zm-3.01-.284.055-.026.028-.052-.083-.025Zm2.595-.078.083.052V30.01h-.083Zm-1.131-.181-.028.026.028.077.138-.051H37.7l-.056-.078Zm-.745-.155-.028.025.083.026-.028-.051-.027-.026Zm-.5-.13.083.026.056-.078-.111-.025Zm1.574-.025h.028l-.028-.052Zm-1.574-.207h.083l.028-.027-.083-.1h-.028Zm1.187-.1.139-.051.027-.025-.055-.027h-.111Zm7.261-.465.083.13.111-.026.028-.1-.139-.052Zm-6.1.1.055.026v-.026l.028-.077-.083-.026Zm-1.574,0h.028l-.028-.1Zm-.607,0h.028l-.138-.156Zm7.592-.13-.055.052h.055v.026l.084-.052-.028-.052Zm1.546.051h.083v-.077h-.083Zm-.441-.077v-.051h-.028Zm-.58-.1.028.051.083.026v-.156h-.111Zm-6.212.026h.028l.11.025v-.077H38.47l-.111-.026Zm-.69.025.028-.025-.083-.052Zm8.283-.207.055.052.056.025.028-.025v-.13Zm-8.42.026.083.026v-.026l.027-.077L37.5,28.38Zm6.957,0h.028l.027-.1Zm-6.212,0h.083v-.077h-.083Zm-1.574,0h.084l-.028-.1Zm-.689,0v-.077h-.056Zm9.166-.026.111-.051-.111-.026Zm-.828-.077h.028L44.13,28.3Zm-8.366-.13h.055V28.2h-.055Zm2.374-.026v-.051h-.083Zm-.5-.025L38,28.173l.028-.077-.166-.1Zm.58-.207h.139l-.056-.1-.138-.026Zm.773-.077v-.026H39.16Zm-2.154-.1.028.078.11.026v-.13Zm7.62,0,.083.026v-.129h-.083Zm-7.1-.025.055.025.028-.025-.138-.129Zm2.236-.026.028.026-.028-.1Zm-3.064,0,.055-.077H36.7Zm1.987-.362.028-.026-.083-.051Zm4.777-.13H43.6l-.083-.077Zm-3.259-.1h.056l-.056-.025Zm-1.545,0,.055-.077H38.69Zm-1.629-.1-.028.026h.083l-.055-.052Zm2.015-.026.028.026.028-.026-.056-.077Zm-1.518-.025v-.026H37.5Zm6.682-.311H44.3l-.028-.051Zm-6.35-.076.028.025L38,26.621l-.083-.078Zm2.513-.078v-.051H40.4Zm0-.077.083.051-.028-.051v-.026H40.4Zm-1.381-.207h.028l.083.026v-.1h-.111Zm3.119-.155.028-.052v-.077h-.055Zm-.662-.026.028.026.028-.052-.084-.077Zm-.441-.156.027.026.028-.026-.055-.077Zm-.884-.051.027.051.055.026.029-.1h-.084Zm-2.264.026h.111L38,25.871v-.051Zm1.16-.337.027.077.056-.1v-.051h-.111ZM55.94,39.672c-.092-.008-.258-.031-.5-.064V37.28a.636.636,0,0,1,.014-.142.576.576,0,0,0,.014-.117.122.122,0,0,0,0-.155,1.327,1.327,0,0,0-.014-.194c-.01-.06-.023-.133-.041-.22a2.129,2.129,0,0,1,.014-.246,1.566,1.566,0,0,0,.014-.194,1.405,1.405,0,0,0-.014-.221,1.318,1.318,0,0,1-.014-.194v-.155a2.513,2.513,0,0,0-.028-.388,2.45,2.45,0,0,1-.027-.363c0-.413-.01-.758-.028-1.034s-.037-.544-.056-.8V32.83c.019-.052.01-.085-.027-.1,0-.138,0-.271-.014-.4s-.014-.272-.014-.428v-.207l-.083-.414a.675.675,0,0,0,.014-.232,1.055,1.055,0,0,1,.014-.285,1.272,1.272,0,0,0-.028-.245,1.456,1.456,0,0,1-.027-.272,1.051,1.051,0,0,1,.027-.259,7.282,7.282,0,0,1-.068-1.513c.027-.544.041-1.056.041-1.539a.375.375,0,0,0-.014-.117.8.8,0,0,0-.041-.09.87.87,0,0,1,.056-.13.346.346,0,0,0,.027-.155,1.367,1.367,0,0,0-.055-.337.378.378,0,0,1,.013-.116.275.275,0,0,0,.014-.091v-.751h.027c0-.016,0-.025-.014-.025s-.014-.008-.014-.026V25.07a.1.1,0,0,0-.014-.065.053.053,0,0,1-.013-.04q0-.517.013-.969c.009-.3.023-.643.041-1.021a4.194,4.194,0,0,1-.068-.815c.008-.2.014-.419.014-.66q0-.311.013-.608c.009-.2.023-.409.041-.634v-.491h1.243c.184,0,.451-.008.8-.026a3.7,3.7,0,0,1,.8.026v.75a1.214,1.214,0,0,0,.014.2,1.655,1.655,0,0,1,.014.22c0,.051-.005.151-.014.3a1.124,1.124,0,0,1-.069.349,1.55,1.55,0,0,1,.041.595,2.071,2.071,0,0,0,.014.621,1.158,1.158,0,0,1-.028.272,1.039,1.039,0,0,0-.027.246.209.209,0,0,0,.027.1.213.213,0,0,1,.028.1V23.7c0,.069.009.2.028.388s.028.328.028.414a1.037,1.037,0,0,1-.111.491,5.165,5.165,0,0,1,.069.544.33.33,0,0,1-.18.336.522.522,0,0,1,.194.466.1.1,0,0,0-.028.077v.621l-.083.052q-.028.051,0,.051t0,.051v.052h.111v.1a.213.213,0,0,0,.028.1.124.124,0,0,1-.028.129v.027a.189.189,0,0,1-.138-.052h-.028a.273.273,0,0,0,.138.258v.052a.16.16,0,0,0,.014.077.187.187,0,0,1,.014.077,1.538,1.538,0,0,0,.028.388.762.762,0,0,1-.125-.142.665.665,0,0,1-.068-.246l-.056-.025a.309.309,0,0,0-.166.025c0,.052,0,.082.014.091s.032.03.069.064a.163.163,0,0,1-.083.1.232.232,0,0,0,.111.091l.139.065c0,.156-.042.246-.125.271s-.17.057-.262.091v.284a.16.16,0,0,0,.11.027.579.579,0,0,1,.125-.091.35.35,0,0,0,.124-.143.156.156,0,0,0,.055-.116.143.143,0,0,1,.083-.116l.056.026v.258a.567.567,0,0,1-.014.116.7.7,0,0,0-.014.142c.018.207.028.414.028.621v.8l-.166.052a.069.069,0,0,0,.027.051.416.416,0,0,1-.041.117l-.069.064a1.2,1.2,0,0,1-.3-.025.291.291,0,0,1,.138-.311c.019-.017.05-.017.1,0a.112.112,0,0,0,.124-.026.139.139,0,0,0-.014-.13.444.444,0,0,1-.041-.207c-.184,0-.262-.008-.234-.025s0-.069-.069-.156a.282.282,0,0,0-.1-.065.16.16,0,0,1-.068-.039.256.256,0,0,0-.111.026.4.4,0,0,0-.083.1.56.56,0,0,1-.111.13.074.074,0,0,1,.028.051.222.222,0,0,0,.138-.026.8.8,0,0,1,.18.013.633.633,0,0,1,.124.066.7.7,0,0,1-.014.142.523.523,0,0,0-.014.116l-.386.077a.334.334,0,0,0,.055.233c0,.017-.019.034-.055.051a.214.214,0,0,1-.152.052.478.478,0,0,0-.207.052v.31l.027-.026a.357.357,0,0,1,.332.1.475.475,0,0,1-.014.155,1.079,1.079,0,0,1-.068.1.538.538,0,0,1-.331-.1h-.028l.083-.052v-.1l-.194.1a.473.473,0,0,0,.194.259c0,.173-.018.246-.055.22s-.1-.013-.193.039a.123.123,0,0,0-.069.091.125.125,0,0,1-.068.091.661.661,0,0,1,.041.09.254.254,0,0,1,.014.091H56.6l.111.077a.392.392,0,0,1-.055.259l-.056.025a.264.264,0,0,1-.3-.155h-.111a1.329,1.329,0,0,0,.111.388q.082.181-.193.311a.24.24,0,0,0,.055.181.652.652,0,0,0,.167.1c0,.155-.028.233-.084.233a.485.485,0,0,0-.221.077.477.477,0,0,0-.124.258.41.41,0,0,1-.18.259.2.2,0,0,0,.028.13v.025a.351.351,0,0,0,.166-.077.378.378,0,0,1,.014-.1.52.52,0,0,0,.014-.13l.028-.025a.947.947,0,0,1,.193.013,1.02,1.02,0,0,1,.167.065c0,.1-.01.164-.028.181a.051.051,0,0,1-.014.039.052.052,0,0,0-.014.039.8.8,0,0,0-.152.014A.139.139,0,0,1,56,34.512H55.94a.238.238,0,0,0,.166.155.24.24,0,0,1-.056.181.232.232,0,0,0,.111.091,1.509,1.509,0,0,1,.167.09c0,.156-.038.229-.111.22a.421.421,0,0,0-.248.065H55.94c0,.19-.01.29-.028.3s-.074.03-.166.065a.119.119,0,0,0-.068.065.28.28,0,0,1-.069.09.14.14,0,0,0,.028.1c.018.035.036.035.055,0s.046-.026.083.026c.092-.017.138-.047.138-.091a.544.544,0,0,1,.056-.193.3.3,0,0,1,.248,0,.232.232,0,0,1,.138.026c.019.034.023.056.014.064s-.014.039-.014.091a.119.119,0,0,0,.068-.065.259.259,0,0,1,.069-.09.255.255,0,0,0-.165-.13c0-.1.008-.164.027-.182a.1.1,0,0,1,.014-.064.049.049,0,0,0,.014-.039.64.64,0,0,1,.221.025.391.391,0,0,1,.194.026v.077l-.056.026-.027.026v.051a.2.2,0,0,0,.083-.013.194.194,0,0,1,.083-.013c.018,0,.028-.009.028-.026a.2.2,0,0,0-.055-.168l-.139-.091a.609.609,0,0,1,.014-.168.578.578,0,0,1,.069-.116h.248a.416.416,0,0,0,.028-.13c0-.138-.038-.22-.111-.245s-.157-.056-.248-.091a.337.337,0,0,0-.055-.233h.055V34.2a.876.876,0,0,1,.276.025c.111.052.138.147.083.285l.055.025c.111,0,.17-.022.179-.065a.281.281,0,0,1,.125-.142.305.305,0,0,0-.152-.142c-.065-.025-.134-.056-.207-.091a.687.687,0,0,0,.055-.31l.194.051a.2.2,0,0,1,.055-.155c.018-.035.028-.048.028-.039s.028.013.083.013v-.13a1.276,1.276,0,0,0-.194-.026.447.447,0,0,1-.166-.051.411.411,0,0,0-.027-.13.387.387,0,0,1-.028-.13.379.379,0,0,0-.166-.077.614.614,0,0,1-.194-.077.622.622,0,0,1,.027-.233.1.1,0,0,0,.028-.077.409.409,0,0,1,.3.09.513.513,0,0,1,.11.273,1.145,1.145,0,0,0,.139-.052.146.146,0,0,1,.138.026.759.759,0,0,0,.055-.168.335.335,0,0,1,.083-.168.314.314,0,0,0,.1-.013.131.131,0,0,1,.1.013h.084v-.168a.223.223,0,0,1,.055-.168A.117.117,0,0,0,58,32.378a.058.058,0,0,1,.041-.013v.388a.244.244,0,0,1-.111-.026l-.055.156.11.129h.056a.05.05,0,0,1,.014-.039q.014-.012.014-.065v.052a1.016,1.016,0,0,0,0,.465.23.23,0,0,1-.027.1V33.5a.4.4,0,0,0-.1.039.369.369,0,0,1-.068.04.175.175,0,0,0,.013.077.1.1,0,0,1,.014.051.248.248,0,0,1-.139.156c-.055.017-.092.069-.11.155a.71.71,0,0,1-.083-.1h-.083a.144.144,0,0,0,.027.1.265.265,0,0,1,.036.038l.047.014a.2.2,0,0,0,.208-.1.373.373,0,0,1,.235-.156c.017.086.032.168.041.246a2.183,2.183,0,0,1,.014.272.108.108,0,0,0-.111.077v.026c0-.017.009-.008.028.026h.055l-.027.077h.027c-.148.121-.248.173-.3.155a1.3,1.3,0,0,1-.275-.155,1.166,1.166,0,0,0-.028.233.443.443,0,0,1-.055.207.92.92,0,0,1-.111.13.861.861,0,0,0-.111.129c.019.035.042.082.069.142a.162.162,0,0,1,.014.142c-.019.1-.1.139-.248.1a.054.054,0,0,1-.014.04c-.009.008-.014.03-.014.064a1.594,1.594,0,0,0,.111.142c.036.044.073.091.11.143h.055c.056-.069.1-.1.139-.1a.205.205,0,0,0,.055-.206.9.9,0,0,0-.083-.233l.248-.181a.384.384,0,0,0-.083-.1.169.169,0,0,1-.055-.13.1.1,0,0,0-.028-.077.966.966,0,0,1,.221-.13c.092-.017.147,0,.166.065a.239.239,0,0,0,.166.142c.018,0,.028-.008.028-.026A.081.081,0,0,0,58.094,35v.026a.334.334,0,0,0-.028.156.42.42,0,0,0-.152.1c-.028.034-.068.034-.124,0l-.055.129a.193.193,0,0,0,.179.091c.065-.009.134-.022.208-.039a.341.341,0,0,1-.028.155v.1c0,.121,0,.238-.014.349s-.014.212-.014.3a.41.41,0,0,0,.028.182.254.254,0,0,1-.014.091.271.271,0,0,0-.014.09.143.143,0,0,1-.055-.1c0-.034-.028-.077-.083-.13v-.1h-.083a.807.807,0,0,1-.084.336,2.4,2.4,0,0,1,.277.1.619.619,0,0,1-.028.22.259.259,0,0,1-.138.117c-.019,0-.028.009-.028.026a.779.779,0,0,1-.085-.023c-.014,0-.05.012-.108.023v.206c.073-.034.124-.042.152-.025a.611.611,0,0,0,.179.051l.083-.207c-.018.432-.023.772-.014,1.021s.014.5.014.737v.673h-.58c-.037,0-.093,0-.166-.013s-.221-.014-.442-.014c-.257,0-.427,0-.511.014s-.151.017-.207.025a.6.6,0,0,1-.1.007Q56.009,39.679,55.94,39.672Zm.331-.5.083.052.028-.052h-.166Zm-.635-.362.11.051.139-.051-.167-.156Zm2.264.026v-.026h-.055Zm-.22-.052.055.026.055-.182h-.055Zm-.194-.544.083.233.027.026.194-.337-.028-.181L57.68,37.9Zm-1.823.026.111.052.111-.052-.167-.1Zm.5-.1v.077h.167l-.139-.1Zm1.74-.181h.083l-.083-.1Zm-1.3-.13.138.13.028-.052-.11-.025h.082l.028-.13h-.055l-.055-.026.082-.025-.082-.052Zm.635-.311.166.156v.129l.028.026.165-.077.028-.026-.359-.259Zm-1.574.284.028.026.055-.077-.055-.1-.055.1h-.028Zm.47-.155-.028.026.055.051.111-.1-.111-.026Zm.3-.388v.026l.083-.078-.028-.1Zm.718-.052v.026h.055l-.055-.13h-.139Zm-1.409-.1v.052l.3.051.139-.077-.166-.336-.055-.026Zm-.138.078h.055V37.15h-.055Zm1.9-.1v.026H57.6l-.138-.1Zm-1.408-.362.47.13.248-.181-.635-.156Zm.967.078v-.026h-.056Zm0-.026v-.026h-.056Zm-1.491-.052h.083l-.055-.1Zm1.546-.207-.055.026.083.052h.055v-.156Zm-1.215-.284a.244.244,0,0,1-.055.181.14.14,0,0,0,.028.1v.026a.692.692,0,0,0,.124-.207,1.494,1.494,0,0,0,.1-.284.171.171,0,0,0,.111-.026h.055v-.025A1.027,1.027,0,0,1,56.106,36a1.016,1.016,0,0,0-.138-.014A.644.644,0,0,0,55.913,36.245Zm-.221.258v.026h.027l-.055-.077Zm.773-.362.055.156.194.076.11-.076v-.026l-.083-.051V35.96Zm1.021.207h.027l-.027-.129Zm.359-.44.193-.155-.193-.156-.166.13V35.8l.082-.1Zm-2.084-.853a.4.4,0,0,1-.069.077.267.267,0,0,0,.055.156h.111a.12.12,0,0,1,.083-.13L55.886,35C55.812,35.021,55.769,35.038,55.761,35.055Zm1.752-1.811v.233a.434.434,0,0,0,.153-.1.985.985,0,0,1,.1-.1c0-.086-.022-.138-.068-.156a1.342,1.342,0,0,0-.207-.051A.547.547,0,0,1,57.514,33.244Zm-2.153-.1v.1l.138.077.166-.026.055-.1v-.155l-.055-.026ZM56,32.985l.028.052.027-.026-.027-.129Zm-.358-.491v.1l.055.026.166.026v-.181l-.083-.026Zm.11-.7.083.1.028.026.138.026.028-.284-.111-.052Zm.58-.051.055.051.055-.129-.11-.026Zm-.718-.284.11.051v-.129h-.055Zm.359-.44v.13h.221l-.166-.207Zm.552-.232.056.155.055.025h.083v-.155l-.055-.077Zm-.745-.078v.026h.083v-.077l-.083-.026Zm.884-.1H56.8l-.056-.077v-.181h-.027Zm-.387-.077.139.026v-.182l-.194-.025Zm.469-.621v.1l.056.026.027-.026-.055-.155Zm.856-.413-.083.336.36-.026.027-.258v-.051l-.166-.027ZM56.492,29.752Zm-.005-.021.005-.005-.027-.077Zm.889-.264h.083l-.027-.1v-.026h-.056ZM56.6,29l.028.052.083.052v-.078l-.083-.051Zm-1.132.1v-.027l-.027-.025Zm1.546-.259h.166l-.027-.026-.028-.026Zm.221-.13h.248v-.051l-.111-.077h-.138Zm-.083-.491.055.026.028-.026-.111-.155Zm-1.27-.44v-.051h-.028Zm1.325-.077.083-.077.056-.052-.084-.025Zm.414-.077h.111l-.028-.207-.083-.026Zm.166-.233.084-.026-.028-.077Zm-.166-.026h.028l.028-.077h-.056Zm-1.656-.362h.111v-.077l-.056-.077Zm.248-.051h.138v-.026l-.138-.026Zm1.3-.182.083.13.249-.1L57.79,26.6l-.138-.025Zm-.331.078.056.051.027-.077L57.21,26.8Zm-1.849-1.319.166-.026v-.1l-.083.026h-.083Zm.828-.724v.077l.194-.232-.248-.052Zm-.634,0h.055l-.055-.181Zm2.264-.1h.084l-.084-.051ZM55.83,24.5h.083v-.077l-.138-.026Zm.635-.077h.027l-.027-.052Zm1.159-.8L57.6,23.8l.028.1v.026l.249-.156-.056-.207Zm-1.463-.13h.111v-.077l-.055-.026h-.083Zm1.326-.465.11.155.084-.025.082-.026-.11-.207Zm-1.381-.491v.051l.221-.077.027-.026-.275-.077Zm-.69,0,.111-.052.028-.025-.084-.052Zm2.319-.026h.027l-.027-.051Zm-.055-.233v.1l.166-.052-.028-.1V22.2ZM55.692,22.2l.166.13.111-.052L56,22.2l-.027-.13-.221.052h-.055Zm1.131,0v.052h.111l-.055-.078Zm-1.49-.026.028.026.055-.026-.11-.051Zm.194-.232h.028l.027-.026-.027-.181-.084-.026-.055.026v.207l.083-.077Zm1.546-.13.083-.026.027-.051-.11-.026Zm-.607-.026h.083v-.233l-.056.026-.11.078h-.028Zm1.215-.026h.055l.055-.051-.11-.13Zm-1.63-.336.139-.052h.028l-.028-.051-.083-.078-.083.078H56Zm-.855-.156.082.1V21.4l.084-.051-.028-.078.028-.026h-.084Zm1.159-.181.056.026.027-.078h-.083Zm.056-.129.027.076.083-.025.028-.077Zm.662-.052.193.1h.056l-.111-.156Zm-.718.1h.028l-.028-.051Zm-.717-.051v-.026h-.056Zm1.877-.363h.056v.026h.111v.051l.11-.026v-.051l-.083-.1h-.083l-.055.1-.056-.051Zm-.607,0h.027l-.027-.051ZM62.4,39.556c-.037,0-.175.009-.413.026s-.379.026-.414.026a1.559,1.559,0,0,0-.374-.014,1.194,1.194,0,0,1-.346-.013V39.4c0-.1,0-.215-.014-.337s-.014-.232-.014-.336v-.207a1.555,1.555,0,0,1,.014-.284,2.361,2.361,0,0,0,.014-.363c0-.241,0-.43-.014-.569s-.014-.267-.014-.388v-.363a2.969,2.969,0,0,1,.055-.491.34.34,0,0,0,0-.194.763.763,0,0,1-.028-.22c0-.051,0-.159-.014-.323s-.014-.345-.014-.543v-.556a.661.661,0,0,1,.055-.337c0-.017,0-.068.014-.156s.022-.181.041-.284.032-.194.042-.271.013-.134.013-.168a1.311,1.311,0,0,1,0-.544,2.236,2.236,0,0,1,.11-.439c0-.017,0-.074.014-.168a3.164,3.164,0,0,0,.014-.324c0-.12,0-.232.014-.336s.014-.164.014-.182v-.181c0-.1.018-.164.055-.181a.425.425,0,0,1-.027-.181,1.66,1.66,0,0,0-.014-.233.635.635,0,0,1,.014-.232.449.449,0,0,0,.014-.182.976.976,0,0,1-.014-.181V29.48a1.1,1.1,0,0,1,.027-.22,4.265,4.265,0,0,1,.029-.854,3.583,3.583,0,0,0,0-.878,1.345,1.345,0,0,1-.056-.479c0-.233.009-.47.027-.712v-.544h.8a1.885,1.885,0,0,1,.4.04,1.872,1.872,0,0,0,.4.039.921.921,0,0,0,.248-.039.914.914,0,0,1,.248-.04h.635A1.86,1.86,0,0,0,63.96,26a2.264,2.264,0,0,1,.014.232h-.055l-.056.026a.237.237,0,0,0,.056.181h.055c-.037.1-.055.147-.055.13a1.891,1.891,0,0,0,.028.388.2.2,0,0,0-.056.155h.056c0,.087,0,.181.014.285a1.7,1.7,0,0,1-.014.362c-.02,0-.047.018-.084.051,0,.052,0,.083.014.091l.07.065v.544l-.028-.052a.1.1,0,0,0,0,.1v.026h.028a1.344,1.344,0,0,0-.028.3v.349a.279.279,0,0,1,.028.13.442.442,0,0,0,.027.155,1.513,1.513,0,0,0-.055.388h-.083a.266.266,0,0,0,.027.13h.056v.5a.309.309,0,0,1-.028.142v.155c0,.035,0,.057.014.065a.1.1,0,0,1,.014.065.41.41,0,0,1-.014.1.376.376,0,0,0-.014.1v.259h-.083a.1.1,0,0,0,.028.077c.036,0,.055-.008.055-.026.018.224.028.5.028.827V36.8c0,.25,0,.492.013.724s.014.522.014.867c0,.19-.005.392-.014.608s-.013.418-.013.608a6.435,6.435,0,0,0-.829.039.964.964,0,0,1-.135.009A1.9,1.9,0,0,1,62.4,39.556Zm1.049-.362.083-.026h.029l-.029-.051-.055-.026Zm-1.546,0,.112-.026.027-.051-.139-.026Zm.8-.051.028.025.027-.025-.055-.078Zm-1.546.025h.055l-.055-.077Zm1.905-.336.083-.026.028-.026-.111-.051Zm-.773-.026.083-.026-.083-.051Zm-1.132-.1h.028l.027-.026v-.129h-.055ZM62.7,38.5v.026h.055l.029-.052-.084-.155Zm-.829-.44.056.026v-.026L61.959,38l-.084-.026ZM61.158,38l-.056.077h.139v-.1h-.084Zm2.623.051h.056V38H63.78Zm-.661,0h.055V38h-.055Zm-.8-.025H62.4l-.083-.052Zm-.717-.363v-.025h-.083ZM61.158,37h.028l-.028-.077Zm2.236-.13.027.026.028.026v-.077Zm-1.022-.258H62.4l-.027-.1Zm.3-.363h.083l-.055-.1Zm-.359-.388h.056l.027-.026h-.027v-.076H62.29ZM61.9,35.52l.112.027.027-.052.027-.026h-.027v-.051H61.9Zm.773,0h.112l-.029-.077-.055-.025Zm.387-.361.083.025-.027-.1-.084-.026Zm-1.546,0h.11l-.11-.052Zm1.546-.751.083-.026-.083-.052Zm-1.546,0H61.6v-.051h-.083Zm.829-.026h.027l-.027-.052Zm-1.326-.388.027.077.111-.025.028-.078Zm.994,0v-.026h-.084Zm.248-.414.055.13.029.051V33.71H62.4l-.027-.1-.083-.077Zm-.745.1H61.6v-.052h-.083Zm1.159-.362h.056V33.27h-.056ZM61.9,33.3l.028.026.028-.026-.084-.052Zm1.546,0H63.5v-.051h-.056Zm-.359-.337.029.026.027-.026-.056-.1Zm-.744,0h.027l-.027-.077Zm-.3-.336v-.052l-.111-.052Zm1.049-.389.084-.025H63.2l-.027-.052-.055-.051Zm-.773,0h.056v-.051h-.056Zm1.16-.362V31.9l.084-.052.027-.025-.111-.052Zm-.829-.1.028.077v.026l.028-.13Zm.387-.284.028.051h.056l.055-.051v-.051l-.111-.027Zm-.718,0h.056l-.027-.078Zm.387-.337.084-.025h.027l-.083-.052Zm.359-.388.083-.026.028-.025-.084-.026Zm-.359-.466v.1h.084l.027-.13h-.083Zm.773.078H63.5l-.028-.078Zm-.47-.388.056.077h.056l.027-.1Zm.47-.31h.055v-.051h-.055Zm-1.546-.026h.028l-.028-.025Zm.8-.051h.027l-.027-.052Zm1.1-.337.027.1.084.026-.028-.13-.056-.026Zm-1.546.1h.083v-.1H62.29Zm-.829-.077h.112l-.084-.077ZM62.7,29l.111-.026-.111-.155Zm-1.215-.363.084-.051H61.6l-.139-.13Zm1.96-.491.112.181.027.026.082-.051-.138-.233Zm-.828,0,.027.1.111-.026.029-.051-.029-.1-.083-.026Zm-.69.1h.084l.027-.026-.027-.1-.112-.051Zm1.215-.388v-.026H63.09Zm-1.573-.052v-.025h-.084Zm1.9-.206.055.025.056-.025.055-.052-.166-.155ZM61.9,27.554l.139-.025-.027-.1L61.9,27.4Zm.718-.025.111-.026-.084-.1Zm-.028-.751.028.026.167-.078-.029-.077-.083-.026Zm.856-.026v.026l.056-.1v-.052h-.084Zm-1.876-.362v-.026h-.084Zm1.9-.362.055.025v-.025l.029-.052-.084-.026ZM50.506,39.5c-.037,0-.176.009-.414.026s-.378.026-.414.026a1.548,1.548,0,0,0-.373-.014,1.194,1.194,0,0,1-.346-.013v-.181c0-.1,0-.215-.014-.337s-.014-.232-.014-.336v-.207a1.562,1.562,0,0,1,.014-.284,2.5,2.5,0,0,0,.014-.363c0-.241,0-.43-.014-.569s-.014-.267-.014-.388V36.5a2.969,2.969,0,0,1,.055-.491.353.353,0,0,0,0-.193.774.774,0,0,1-.028-.221c0-.051,0-.159-.014-.322s-.014-.346-.014-.544v-.556a.661.661,0,0,1,.055-.337c0-.017,0-.068.014-.155s.022-.182.041-.285.032-.194.041-.271.014-.134.014-.168a1.311,1.311,0,0,1,0-.544,2.172,2.172,0,0,1,.11-.439c0-.017,0-.074.014-.168a3.152,3.152,0,0,0,.014-.324c0-.12,0-.232.014-.336s.014-.164.014-.182v-.181c0-.1.018-.164.055-.181a.422.422,0,0,1-.028-.181,1.819,1.819,0,0,0-.014-.233.653.653,0,0,1,.014-.232.435.435,0,0,0,.014-.182.969.969,0,0,1-.014-.181v-.168a1.122,1.122,0,0,1,.028-.22,4.334,4.334,0,0,1,.028-.854,3.5,3.5,0,0,0,0-.878A1.366,1.366,0,0,1,49.291,27c0-.233.01-.47.028-.712V25.74h.8a1.893,1.893,0,0,1,.4.04,1.872,1.872,0,0,0,.4.039.926.926,0,0,0,.248-.039.914.914,0,0,1,.248-.04h.635a1.9,1.9,0,0,0,.014.208c.008.086.013.164.013.232h-.056l-.055.026a.24.24,0,0,0,.055.181h.056c-.037.1-.056.147-.056.13a1.957,1.957,0,0,0,.028.388.2.2,0,0,0-.055.155h.055c0,.087,0,.182.014.285a1.763,1.763,0,0,1-.014.362c-.019,0-.046.018-.083.051,0,.052,0,.083.014.091l.069.065v.544l-.028-.052a.106.106,0,0,0,0,.1v.026h.028a1.4,1.4,0,0,0-.028.3v.35a.262.262,0,0,1,.028.129.443.443,0,0,0,.028.155,1.516,1.516,0,0,0-.056.388h-.082a.266.266,0,0,0,.027.13h.055v.5A.31.31,0,0,1,52,30.63v.155c0,.035,0,.057.014.065a.1.1,0,0,1,.014.065.409.409,0,0,1-.014.1.376.376,0,0,0-.014.1v.259h-.083a.1.1,0,0,0,.028.077c.036,0,.055-.008.055-.026q.027.336.027.828v4.487c0,.25,0,.492.014.724s.014.522.014.867c0,.19,0,.393-.014.608s-.014.418-.014.608a6.429,6.429,0,0,0-.828.039.963.963,0,0,1-.135.009A1.9,1.9,0,0,1,50.506,39.5Zm1.049-.362.083-.026h.028l-.028-.051-.056-.026Zm-1.546,0,.111-.026.028-.051-.139-.026Zm.8-.051.028.025.028-.025-.056-.078Zm-1.545.025h.055l-.055-.077Zm1.905-.336.082-.026.028-.026-.11-.051Zm-.774-.026.084-.026-.084-.051Zm-1.131-.1h.027l.028-.026v-.129h-.055Zm1.545-.207v.026h.056l.028-.052-.084-.155ZM49.982,38l.056.026V38l.027-.051-.083-.026Zm-.717-.051-.056.077h.139v-.1h-.083ZM51.887,38h.056V37.95h-.056Zm-.662,0h.055V37.95h-.055Zm-.8-.025h.083l-.083-.052Zm-.717-.363v-.025h-.084Zm-.442-.672h.027l-.027-.077Zm2.236-.129.027.025.028.026v-.077Zm-1.021-.259h.027l-.027-.1Zm.3-.363h.083l-.056-.1Zm-.359-.388h.056l.027-.025h-.027V35.7H50.4Zm-.414-.337.111.027.028-.052.027-.026h-.027v-.051h-.139Zm.773,0h.111l-.028-.077-.056-.025Zm.387-.361.082.025-.027-.1L51.142,35Zm-1.547,0h.111l-.111-.052Zm1.547-.751.082-.026-.082-.051Zm-1.547,0h.084V34.3h-.084Zm.829-.026h.028l-.028-.051Zm-1.325-.388.027.077.111-.025.027-.078Zm.994,0v-.026h-.083Zm.247-.414.056.13.028.051v-.051h.055l-.027-.1-.084-.077Zm-.745.1h.084v-.052h-.084Zm1.16-.362h.055v-.051h-.055Zm-.773-.026.028.026.027-.026-.083-.052Zm1.546,0h.055v-.051h-.055Zm-.359-.337.028.026.027-.026-.055-.1Zm-.745,0h.028l-.028-.077Zm-.3-.336v-.052l-.111-.051Zm1.049-.388.083-.026h.028l-.028-.052-.055-.051Zm-.773,0h.056V32.13h-.056Zm1.159-.363v.026l.084-.052.027-.025-.111-.052Zm-.828-.1.028.077v.026l.027-.13Zm.387-.284.028.051h.055l.055-.051V31.38l-.11-.027Zm-.718,0h.056l-.028-.078Zm.386-.337.084-.025h.028l-.084-.052Zm.36-.388.082-.025.028-.026L51.2,30.63Zm-.36-.465v.1h.084l.028-.13h-.084Zm.773.077h.028l-.028-.077Zm-.469-.388.056.077h.055l.027-.1Zm.47-.311h.055v-.051h-.055Zm-1.546-.026h.027l-.027-.025Zm.8-.051h.028l-.028-.052Zm1.105-.337.027.1.083.026-.028-.13-.055-.025Zm-1.547.1h.084v-.1H50.4Zm-.828-.077h.111l-.083-.077Zm1.242-.284.112-.026-.112-.155ZM49.6,28.587l.083-.052h.028l-.139-.13Zm1.96-.492.111.181.027.026.083-.051-.138-.233Zm-.828,0,.027.1.111-.027.028-.051-.028-.1-.083-.025Zm-.69.1h.083l.028-.027-.028-.1-.111-.052Zm1.214-.389v-.026H51.2Zm-1.573-.052v-.025H49.6Zm1.9-.206.056.025.055-.025.056-.052-.167-.155ZM50.009,27.5l.139-.025-.028-.1-.111-.025Zm.718-.025.11-.026-.083-.1Zm-.028-.751.028.026.166-.078-.028-.077-.083-.025Zm.856-.026v.026l.055-.1v-.051h-.083Zm-1.877-.362V26.31H49.6Zm1.9-.362.056.025v-.025l.028-.052-.084-.026Zm-29.941,13a2.908,2.908,0,0,1-.034-.3h-1.12q-.008.144-.032.3c-.016.105-.037.215-.064.33a.483.483,0,0,1-.156-.016c-.027-.011-.041-.036-.041-.076v-.843h.068a.162.162,0,0,0,.108-.042.4.4,0,0,0,.088-.172,2.61,2.61,0,0,0,.074-.4c.022-.177.045-.413.066-.708s.044-.666.068-1.114a.089.089,0,0,1,.014-.043.093.093,0,0,1,.057-.016c.031,0,.082,0,.154,0H21.7v2.5h.2v.843a.072.072,0,0,1-.042.076.489.489,0,0,1-.154.016C21.679,39.188,21.659,39.078,21.641,38.973Zm-.726-1.926c-.021.246-.043.454-.066.625a3.792,3.792,0,0,1-.076.425,1.257,1.257,0,0,1-.1.27h.7V36.175h-.4Q20.948,36.678,20.915,37.047Zm-8.861,1.6a.491.491,0,0,1-.224-.229,1.384,1.384,0,0,1-.126-.446,5.164,5.164,0,0,1-.04-.714,3.339,3.339,0,0,1,.085-.844A.816.816,0,0,1,12,35.965a.67.67,0,0,1,.43-.134.707.707,0,0,1,.328.07.515.515,0,0,1,.22.231,1.366,1.366,0,0,1,.122.432,5.033,5.033,0,0,1,.038.679,3.892,3.892,0,0,1-.077.872.833.833,0,0,1-.244.457.648.648,0,0,1-.43.139A.767.767,0,0,1,12.054,38.644Zm.141-2.365a.817.817,0,0,0-.128.368,4.745,4.745,0,0,0-.04.688,4.134,4.134,0,0,0,.034.6.74.74,0,0,0,.115.334.292.292,0,0,0,.453,0,.834.834,0,0,0,.12-.36,4.538,4.538,0,0,0,.038-.653,5.145,5.145,0,0,0-.031-.638.75.75,0,0,0-.111-.342.26.26,0,0,0-.221-.1A.279.279,0,0,0,12.2,36.279Zm-4.684,2.4a.448.448,0,0,1-.182-.1.607.607,0,0,1-.142-.221,1.6,1.6,0,0,1-.092-.384,4.443,4.443,0,0,1-.032-.586,4.346,4.346,0,0,1,.046-.69,1.746,1.746,0,0,1,.126-.448.818.818,0,0,1,.183-.262.543.543,0,0,1,.213-.124.826.826,0,0,1,.22-.032.6.6,0,0,1,.23.034.238.238,0,0,1,.114.084.186.186,0,0,1,.032.1.357.357,0,0,1-.016.108.459.459,0,0,1-.036.088.479.479,0,0,0-.059-.038.568.568,0,0,0-.09-.041.345.345,0,0,0-.112-.018.459.459,0,0,0-.15.026.354.354,0,0,0-.14.1.637.637,0,0,0-.114.211,1.855,1.855,0,0,0-.078.352,4,4,0,0,0-.03.532,3.358,3.358,0,0,0,.03.5,1.112,1.112,0,0,0,.082.3.317.317,0,0,0,.126.146.333.333,0,0,0,.162.04.57.57,0,0,0,.216-.04.519.519,0,0,0,.152-.084.63.63,0,0,1,.036.092.351.351,0,0,1,.016.1.205.205,0,0,1-.062.142.435.435,0,0,1-.174.105.763.763,0,0,1-.26.041A.825.825,0,0,1,7.511,38.683ZM5,38.644a.153.153,0,0,1-.092-.133.382.382,0,0,1,.01-.078.483.483,0,0,1,.041-.114.654.654,0,0,0,.114.058.306.306,0,0,0,.106.022.107.107,0,0,0,.1-.066.914.914,0,0,0,.06-.194c-.022-.061-.05-.155-.088-.282s-.077-.271-.122-.432-.088-.328-.132-.5-.086-.334-.126-.489-.075-.288-.1-.4c-.008-.03-.014-.054-.018-.074a.232.232,0,0,1-.006-.046.039.039,0,0,1,.02-.039.16.16,0,0,1,.064-.01h.232l.248.964c.042.187.076.355.1.507s.045.284.064.4c.011-.117.029-.25.056-.4s.058-.313.1-.492l.2-.868a.25.25,0,0,1,.036-.086.092.092,0,0,1,.076-.026h.232l-.52,2.245a2.868,2.868,0,0,1-.084.3.457.457,0,0,1-.124.2.361.361,0,0,1-.236.074h-.02A.391.391,0,0,1,5,38.644Zm-1.486.031L3.4,38.667l-.116-.776a1.148,1.148,0,0,0-.074-.32.363.363,0,0,0-.118-.157.259.259,0,0,0-.148-.047H2.82v1.24a.061.061,0,0,1-.013.044.164.164,0,0,1-.082.016c-.047,0-.124,0-.234,0V35.934a.052.052,0,0,1,.014-.043.174.174,0,0,1,.082-.016c.045,0,.122,0,.232,0v1.184h.144a.216.216,0,0,0,.152-.074.493.493,0,0,0,.108-.234l.192-.856a.615.615,0,0,1,.114-.021c.036,0,.067,0,.094,0a.21.21,0,0,1,.116.02c.016.014.02.039.012.076L3.54,36.8a.706.706,0,0,1-.1.238.491.491,0,0,1-.138.139.543.543,0,0,1,.22.248,1.309,1.309,0,0,1,.116.412l.121.76a.055.055,0,0,1-.021.062.232.232,0,0,1-.115.018C3.585,38.678,3.55,38.678,3.514,38.675Zm20.9-2.656a.242.242,0,0,1,.016-.106c.01-.02.039-.032.085-.036s.123-.006.23-.006v2.736a.052.052,0,0,1-.016.044.184.184,0,0,1-.082.016c-.044,0-.122,0-.234,0ZM22.947,38.67V35.942a.066.066,0,0,1,.014-.049c.009-.01.036-.015.082-.018s.122,0,.228,0v1.14h.22a.657.657,0,0,1,.514.174.81.81,0,0,1,.154.546,1.1,1.1,0,0,1-.193.7.621.621,0,0,1-.516.244Zm.324-.3a.246.246,0,0,0,.048.006c.022,0,.044,0,.068,0h.056a.285.285,0,0,0,.194-.064.372.372,0,0,0,.108-.2,1.527,1.527,0,0,0,.034-.356.678.678,0,0,0-.065-.352.267.267,0,0,0-.239-.1h-.2Zm-5.116.3V35.934s0-.01.01-.031.026-.032.058-.032h.96c0,.088,0,.152,0,.193a.2.2,0,0,1-.015.079.044.044,0,0,1-.04.021H18.48V37h.6a2.145,2.145,0,0,1-.008.239c-.005.038-.022.057-.052.057H18.48v1.084h.688c0,.091,0,.157,0,.2a.174.174,0,0,1-.016.078.054.054,0,0,1-.044.015Zm-2.888-1c0-.11,0-.216,0-.32s.006-.205.01-.3.009-.194.014-.284.012-.179.02-.264c-.04.154-.091.319-.152.5s-.136.374-.224.6l-.391,1a.118.118,0,0,1-.041.06.162.162,0,0,1-.084.018c-.04,0-.1,0-.188,0V35.934a.064.064,0,0,1,.012-.043.146.146,0,0,1,.075-.016c.041,0,.113,0,.218,0v1.364c0,.1,0,.185,0,.268s-.005.168-.01.257-.014.192-.024.306q.063-.22.164-.473c.067-.17.143-.365.228-.587l.384-1.056a.115.115,0,0,1,.04-.059.165.165,0,0,1,.082-.019l.174,0v2.736a.05.05,0,0,1-.018.044.2.2,0,0,1-.082.016c-.043,0-.113,0-.208,0Zm-5.024-.352H9.608v1.292a.066.066,0,0,1-.012.044.161.161,0,0,1-.08.016c-.046,0-.123,0-.232,0V35.934a.059.059,0,0,1,.012-.043.161.161,0,0,1,.08-.016c.045,0,.122,0,.232,0v1.14h.636V35.934a.055.055,0,0,1,.014-.043.167.167,0,0,1,.08-.016c.044,0,.121,0,.23,0v2.736a.061.061,0,0,1-.013.044.158.158,0,0,1-.08.016c-.045,0-.122,0-.231,0ZM.135,38.67V35.947a.071.071,0,0,1,.022-.056.13.13,0,0,1,.086-.021h.4a1.126,1.126,0,0,1,.238.026.622.622,0,0,1,.216.092.474.474,0,0,1,.158.186.7.7,0,0,1,.06.316.867.867,0,0,1-.062.356.555.555,0,0,1-.149.206.374.374,0,0,1-.173.082.6.6,0,0,1,.148.03.45.45,0,0,1,.276.262.76.76,0,0,1,.048.292,1.511,1.511,0,0,1-.038.355.856.856,0,0,1-.111.268.74.74,0,0,1-.166.186.655.655,0,0,1-.206.108.829.829,0,0,1-.24.033Zm.329-.283H.647a.3.3,0,0,0,.142-.036.338.338,0,0,0,.118-.114.619.619,0,0,0,.082-.2,1.183,1.183,0,0,0,.031-.292A.889.889,0,0,0,.992,37.5a.316.316,0,0,0-.076-.136A.216.216,0,0,0,.8,37.307.839.839,0,0,0,.652,37.3H.464Zm0-1.373h.2a.247.247,0,0,0,.15-.048.315.315,0,0,0,.1-.152.781.781,0,0,0,.039-.264A.574.574,0,0,0,.914,36.3a.229.229,0,0,0-.11-.113.345.345,0,0,0-.144-.031h-.2Zm57.326.265v-.052l.056.026v.026ZM14.62,35.535a.471.471,0,0,1-.175-.154.413.413,0,0,1-.069-.186.123.123,0,0,1,.048-.11.382.382,0,0,1,.156-.066,1.019,1.019,0,0,0,.06.185.293.293,0,0,0,.1.126.287.287,0,0,0,.17.044.226.226,0,0,0,.2-.082.783.783,0,0,0,.1-.23c.011-.026.034-.036.07-.028a.277.277,0,0,1,.108.054.168.168,0,0,1,.066.094,1.129,1.129,0,0,1-.118.218.433.433,0,0,1-.168.144.615.615,0,0,1-.27.05A.582.582,0,0,1,14.62,35.535Zm62.69-.376v-.051h.055v.051ZM56.41,34.9a.12.12,0,0,0-.083-.027.774.774,0,0,1,.014-.181.833.833,0,0,1,.069-.155c.11,0,.175.017.193.052a.172.172,0,0,0,.111.025.419.419,0,0,1-.028.181,1.3,1.3,0,0,1-.083.13A.5.5,0,0,1,56.41,34.9Zm.013-.724a.613.613,0,0,1-.1-.078.614.614,0,0,1,.014-.168.264.264,0,0,1,.069-.09.612.612,0,0,1,.221.026.139.139,0,0,1,.055.013.122.122,0,0,0,.055.013.175.175,0,0,1-.014.078c-.01.017,0,.043.014.077a.3.3,0,0,1-.055.077L56.6,34.2A.4.4,0,0,1,56.423,34.176Zm.4-.349c-.018-.009-.055-.03-.11-.065a.764.764,0,0,1,.014-.181.226.226,0,0,1,.069-.1h.22c.037,0,.056.017.056.051a.429.429,0,0,1-.083.31A.569.569,0,0,1,56.823,33.826Zm-.4-.363a.254.254,0,0,1-.1-.065.956.956,0,0,1,.014-.194.412.412,0,0,1,.041-.116.771.771,0,0,1,.331.077.422.422,0,0,1-.028.181,1.305,1.305,0,0,1-.083.13A.744.744,0,0,1,56.423,33.464Zm.926-.581-.028-.078.055.026H57.4v.052Zm-.967-.026.028-.1.055.025-.028.052v.026Zm.69-.13a.52.52,0,0,1,.041-.22.471.471,0,0,0,.041-.194l-.166.052a.555.555,0,0,1-.166-.014,1.252,1.252,0,0,1-.11-.064.782.782,0,0,1,.014-.168,1.144,1.144,0,0,1,.041-.142.8.8,0,0,1,.152.013.645.645,0,0,0,.124.013c.018,0,.028.009.028.026v.181a.316.316,0,0,0,.1-.013.252.252,0,0,1,.069-.013.2.2,0,0,1,.027.09.086.086,0,0,0,.028.065.078.078,0,0,0,.056.026l.138-.077a.878.878,0,0,1,.027-.259.67.67,0,0,0-.221-.051.658.658,0,0,1-.221-.052c0-.138.028-.223.083-.258a.438.438,0,0,1,.276-.026c.018-.051.041-.112.068-.181a.886.886,0,0,1,.1-.182.348.348,0,0,1,.208.052.284.284,0,0,0,.179.052l.028.025a.151.151,0,0,1-.083.13l.083.1a1.86,1.86,0,0,1,.028.362c-.019,0-.028,0-.028-.013s-.01-.013-.028-.013H57.9a1.59,1.59,0,0,0-.027.362.256.256,0,0,1-.112.026.119.119,0,0,0-.082.025c-.037.035-.051.061-.042.078s-.032.034-.124.051l.056.077.055.026-.028.026a.712.712,0,0,1-.234.065,2,2,0,0,0-.235.039ZM57.5,31.8a1.539,1.539,0,0,0,.069.182L57.6,32a.9.9,0,0,1,.249.026L57.874,32c0-.1-.005-.15-.014-.142s-.032,0-.069-.039a.1.1,0,0,1,.028-.077.052.052,0,0,1,.014-.039.052.052,0,0,0,.014-.039,1.04,1.04,0,0,0-.276-.026C57.514,31.71,57.49,31.761,57.5,31.8Zm-43.7-.373a.5.5,0,0,1-.223-.23,1.371,1.371,0,0,1-.126-.446,5.173,5.173,0,0,1-.041-.714,3.388,3.388,0,0,1,.084-.844.829.829,0,0,1,.255-.446.674.674,0,0,1,.429-.134.708.708,0,0,1,.328.07.516.516,0,0,1,.22.232,1.342,1.342,0,0,1,.122.432,5.028,5.028,0,0,1,.038.678,3.831,3.831,0,0,1-.078.872.83.83,0,0,1-.244.458.65.65,0,0,1-.429.138A.771.771,0,0,1,13.8,31.422Zm.142-2.366a.817.817,0,0,0-.128.368,4.627,4.627,0,0,0-.04.688,4.279,4.279,0,0,0,.033.6.732.732,0,0,0,.116.334.265.265,0,0,0,.222.106.269.269,0,0,0,.229-.11.825.825,0,0,0,.121-.36,4.552,4.552,0,0,0,.038-.654,4.967,4.967,0,0,0-.032-.638.744.744,0,0,0-.11-.342.261.261,0,0,0-.221-.1A.277.277,0,0,0,13.939,29.056Zm6.794,2.4-.118-.006.18-.88a.5.5,0,0,1,.1-.222.621.621,0,0,1,.2-.149.688.688,0,0,1-.216-.162.759.759,0,0,1-.149-.26,1.029,1.029,0,0,1-.054-.342,1.053,1.053,0,0,1,.082-.452A.519.519,0,0,1,21,28.728a.875.875,0,0,1,.394-.08h.4c.035,0,.054.011.058.031l.005.032v2.736c-.109,0-.185,0-.23,0a.16.16,0,0,1-.08-.015.054.054,0,0,1-.014-.044v-1.1h-.1a.275.275,0,0,0-.194.076.4.4,0,0,0-.11.231l-.152.788a.1.1,0,0,1-.03.062.249.249,0,0,1-.122.018Zm.436-2.464a.363.363,0,0,0-.1.16.784.784,0,0,0-.033.246,1.03,1.03,0,0,0,.041.316.458.458,0,0,0,.118.2.254.254,0,0,0,.176.07.811.811,0,0,0,.084,0l.08-.008V28.94l-.1-.005-.1,0A.245.245,0,0,0,21.17,28.99Zm-1.922,1.454c0-.109,0-.216,0-.319s.006-.205.011-.3.008-.193.014-.284.012-.178.02-.264q-.059.232-.152.5t-.223.6l-.392,1a.123.123,0,0,1-.04.06.176.176,0,0,1-.085.018l-.188,0V28.712a.061.061,0,0,1,.013-.044.141.141,0,0,1,.074-.016c.041,0,.114,0,.218,0v1.363c0,.1,0,.185,0,.268s0,.169-.01.258-.014.191-.024.306c.043-.147.1-.305.164-.474s.143-.365.229-.586l.383-1.056a.118.118,0,0,1,.041-.06.169.169,0,0,1,.082-.018l.174,0v2.736a.048.048,0,0,1-.018.044.182.182,0,0,1-.082.015c-.042,0-.112,0-.208,0Zm-3.272-1.732a.07.07,0,0,1,.014-.048.069.069,0,0,1,.054-.016h.4a.922.922,0,0,1,.416.082.508.508,0,0,1,.242.256,1.117,1.117,0,0,1,.078.455,1.266,1.266,0,0,1-.059.414.681.681,0,0,1-.159.265.635.635,0,0,1-.234.147.851.851,0,0,1-.281.046H16.3v1.072a.057.057,0,0,1-.014.044.16.16,0,0,1-.08.015c-.044,0-.121,0-.23,0Zm.5,1.3a.289.289,0,0,0,.186-.059.389.389,0,0,0,.113-.194,1.277,1.277,0,0,0,.041-.358,1,1,0,0,0-.028-.246.31.31,0,0,0-.1-.164.288.288,0,0,0-.19-.059h-.2v1.08ZM11.84,28.952H11.3v-.24c0-.042.023-.064.068-.064h1.36v.239a.064.064,0,0,1-.016.05.079.079,0,0,1-.051.014h-.492v2.432a.054.054,0,0,1-.014.044.164.164,0,0,1-.082.015c-.045,0-.122,0-.228,0Zm-1.828,1.491c0-.109,0-.216,0-.319s.006-.205.01-.3.009-.193.014-.284.012-.178.02-.264c-.04.155-.091.32-.152.5s-.136.375-.224.6l-.392,1a.118.118,0,0,1-.04.06.172.172,0,0,1-.084.018l-.188,0V28.712a.066.066,0,0,1,.012-.044.146.146,0,0,1,.075-.016c.041,0,.113,0,.218,0v1.363c0,.1,0,.185,0,.268s-.005.169-.01.258-.014.191-.024.306q.063-.22.164-.474c.067-.169.143-.365.228-.586l.384-1.056a.118.118,0,0,1,.04-.06.167.167,0,0,1,.082-.018l.174,0v2.736a.05.05,0,0,1-.018.044.185.185,0,0,1-.082.015c-.043,0-.113,0-.208,0ZM6.739,28.712a.066.066,0,0,1,.014-.048.069.069,0,0,1,.054-.016h.4a.925.925,0,0,1,.416.082.512.512,0,0,1,.242.256,1.117,1.117,0,0,1,.078.455,1.266,1.266,0,0,1-.059.414.672.672,0,0,1-.16.265.62.62,0,0,1-.234.147.841.841,0,0,1-.28.046H7.063v1.072a.057.057,0,0,1-.013.044.163.163,0,0,1-.08.015c-.044,0-.121,0-.23,0Zm.5,1.3a.285.285,0,0,0,.185-.059.389.389,0,0,0,.114-.194A1.277,1.277,0,0,0,7.58,29.4a.959.959,0,0,0-.029-.246.309.309,0,0,0-.1-.164.291.291,0,0,0-.191-.059h-.2v1.08ZM4.5,28.712a.07.07,0,0,1,.014-.048.072.072,0,0,1,.054-.016h.4a.929.929,0,0,1,.417.082.506.506,0,0,1,.241.256,1.117,1.117,0,0,1,.078.455,1.268,1.268,0,0,1-.058.414.682.682,0,0,1-.16.265.628.628,0,0,1-.234.147.849.849,0,0,1-.28.046H4.828v1.072a.054.054,0,0,1-.014.044.16.16,0,0,1-.08.015c-.044,0-.121,0-.229,0Zm.5,1.3a.289.289,0,0,0,.186-.059.389.389,0,0,0,.114-.194,1.317,1.317,0,0,0,.04-.358.961.961,0,0,0-.028-.246.31.31,0,0,0-.1-.164.288.288,0,0,0-.19-.059h-.2v1.08ZM2.427,31.448V28.712l.01-.032c.007-.021.026-.031.059-.031h.959c0,.088,0,.152,0,.192a.2.2,0,0,1-.016.08.043.043,0,0,1-.04.02H2.751v.836h.6a2.177,2.177,0,0,1-.008.24c-.005.037-.023.056-.051.056H2.751v1.084H3.44c0,.091,0,.158,0,.2a.174.174,0,0,1-.016.078.052.052,0,0,1-.044.016Zm-1.892-2.5H-.009v-.24c0-.042.023-.064.068-.064h1.36v.239a.064.064,0,0,1-.016.05.079.079,0,0,1-.051.014H.86v2.432a.054.054,0,0,1-.014.044.164.164,0,0,1-.082.015c-.045,0-.122,0-.228,0Zm56.647,2.287a.387.387,0,0,0-.138-.09c.018-.086.037-.133.056-.142a.325.325,0,0,0,.082-.117.4.4,0,0,1,.249.052h.055a.517.517,0,0,0,.027.207.2.2,0,0,0-.027.077c-.055,0-.083.017-.083.051C57.275,31.278,57.2,31.265,57.182,31.239Zm.635.014a.734.734,0,0,1,.056-.272.53.53,0,0,1,.11-.194l.028-.027a.053.053,0,0,0,.014.04.052.052,0,0,1,.014.039v.414Zm11.54-.491V30.71l.083-.026v.077ZM36.316,27.319h.005l-.005.025Zm26.03-3.1a1.746,1.746,0,0,1-.249-.077.44.44,0,0,1-.3-.129.138.138,0,0,1-.069-.052.4.4,0,0,0-.069-.077l.027-.026a.1.1,0,0,0-.027-.077.114.114,0,0,0-.082-.026v.077a.2.2,0,0,1-.139-.051l-.082-.1a.4.4,0,0,1-.166-.039.2.2,0,0,1-.111-.142.293.293,0,0,0-.068-.117.545.545,0,0,1-.1-.167.271.271,0,0,1-.028-.13l.028-.026h-.028a1.752,1.752,0,0,1,.014-.221.3.3,0,0,0-.014-.167c-.037-.069-.037-.121,0-.155a.083.083,0,0,0,.028-.1c0-.017.009-.025.027-.025v-.143a.139.139,0,0,0-.055-.09.424.424,0,0,0,.069-.193.214.214,0,0,1,.1-.168v-.026a1.333,1.333,0,0,0,.111-.194c.037-.077.084-.116.138-.116a.57.57,0,0,1,.056-.207.428.428,0,0,1,.275-.207.066.066,0,0,1,.069-.013.134.134,0,0,0,.1-.013c.073-.034.142-.068.206-.1a.425.425,0,0,1,.263-.025h.055v.025c.037,0,.056-.008.056-.025h.5a.613.613,0,0,0,.027.232.08.08,0,0,0,.056.026l.027-.026V20.88a.45.45,0,0,1,.167.051,1.008,1.008,0,0,1,.3.052.574.574,0,0,1,.275.181,1.037,1.037,0,0,1,.18.116.307.307,0,0,1,.056.065l.041.077a.456.456,0,0,0,.166.13,1.009,1.009,0,0,0,.139.569.607.607,0,0,0-.013.337,2.4,2.4,0,0,1,.069.284.438.438,0,0,0-.042.13A.228.228,0,0,1,64.25,23a.2.2,0,0,1-.056.156c-.017.017-.04.043-.068.077a.841.841,0,0,0-.07.1.564.564,0,0,0-.082.181.336.336,0,0,1-.083.156.922.922,0,0,1-.318.272c-.119.06-.262.125-.428.194a.771.771,0,0,1-.221.026v-.026a.5.5,0,0,0-.22-.155c-.019.034-.032.06-.041.077a.16.16,0,0,0-.014.077l-.027.026-.028.026a.5.5,0,0,1-.171.034A.319.319,0,0,1,62.346,24.216Zm.661-.311.248.052.139-.026h.027l-.083-.155-.331-.052ZM62.9,23.13l-.248.285.359.258v-.465l.194-.1-.194-.206H62.9Zm.553.258.028.052.084.052.164-.026-.082-.13-.082-.026Zm.387-.362a.507.507,0,0,0,.055.168.586.586,0,0,1,.056.116l.054.026h.055a1.235,1.235,0,0,1,.015-.156.26.26,0,0,0-.015-.155L64,22.949h-.11A.083.083,0,0,1,63.836,23.027Zm-.359-.362.111.233h.082v-.156l-.027-.13Zm-.718.233h.056v-.1l-.027-.129-.084-.026Zm.111-.414.027.129.359-.232-.028-.1L63.2,22.2l-.194.052-.248-.31Zm.967-.181.055.207.221-.13.055-.026-.22-.181Zm-1.49-.026v.1h.109l.028-.026-.028-.077-.082-.026Zm-.857.077h.138l-.027-.077-.083-.026Zm1.988-.414.084.284h.082l-.028-.258v-.051Zm-1.574.1.112-.051L61.9,21.94Zm2.016-.284.028.051L64,21.733l-.11-.31Zm-.884-.156.055.1.111-.026-.027-.155h-.111Zm-.718-.051-.027.051.027.077h.138l.028-.077-.137-.129Zm1.16-.233v.026l.111-.052-.083-.181ZM50.451,24.162a1.773,1.773,0,0,1-.248-.077.44.44,0,0,1-.3-.129.138.138,0,0,1-.069-.052.394.394,0,0,0-.069-.077l.027-.026a.1.1,0,0,0-.027-.077.119.119,0,0,0-.083-.026v.077a.192.192,0,0,1-.139-.051l-.082-.1a.388.388,0,0,1-.167-.039.205.205,0,0,1-.11-.142.294.294,0,0,0-.069-.117.536.536,0,0,1-.1-.167.271.271,0,0,1-.028-.13L49.016,23h-.028a1.752,1.752,0,0,1,.014-.22.313.313,0,0,0-.014-.167c-.037-.069-.037-.121,0-.155a.083.083,0,0,0,.028-.1c0-.017.009-.025.027-.025v-.143a.14.14,0,0,0-.055-.09.42.42,0,0,0,.069-.194.214.214,0,0,1,.1-.168v-.026a1.319,1.319,0,0,0,.111-.194c.037-.078.083-.117.138-.117a.57.57,0,0,1,.056-.207.428.428,0,0,1,.275-.207.065.065,0,0,1,.069-.013.138.138,0,0,0,.1-.013c.073-.035.142-.069.206-.1a.429.429,0,0,1,.262-.025h.056v.025c.037,0,.056-.008.056-.025h.5a.613.613,0,0,0,.027.232.08.08,0,0,0,.056.026l.027-.026v-.232a.447.447,0,0,1,.166.051,1.009,1.009,0,0,1,.3.052.578.578,0,0,1,.275.181,1.037,1.037,0,0,1,.18.116.307.307,0,0,1,.056.065c.008.017.022.043.04.077a.44.44,0,0,0,.166.13,1.012,1.012,0,0,0,.139.57.6.6,0,0,0-.014.336,2.236,2.236,0,0,1,.068.284.488.488,0,0,0-.041.13.221.221,0,0,1-.069.129.2.2,0,0,1-.055.156.893.893,0,0,0-.068.077.751.751,0,0,0-.07.1.546.546,0,0,0-.082.181A.336.336,0,0,1,52,23.62a.922.922,0,0,1-.318.272c-.12.06-.262.125-.428.193a.764.764,0,0,1-.22.026v-.026a.5.5,0,0,0-.221-.155l-.041.077a.171.171,0,0,0-.014.077l-.027.026-.028.026a.5.5,0,0,1-.171.034A.32.32,0,0,1,50.451,24.162Zm.662-.31.248.052.139-.026h.027l-.083-.155-.331-.052ZM51,23.076l-.248.285.359.258v-.465l.194-.1-.194-.207H51Zm.553.258.027.052.084.052.165-.026-.082-.13-.083-.026Zm.387-.361a.508.508,0,0,0,.055.167.544.544,0,0,1,.055.116l.055.026h.055a1.382,1.382,0,0,1,.014-.156.257.257,0,0,0-.014-.154l-.055-.078H52A.085.085,0,0,1,51.943,22.973Zm-.36-.363.111.233h.083v-.156l-.027-.13Zm-.717.233h.056v-.1l-.028-.129-.084-.026Zm.111-.414.027.129.359-.232-.028-.1-.027-.078-.194.052-.248-.311Zm.967-.181.055.207.221-.13.055-.026-.22-.181Zm-1.491-.026v.1h.11l.028-.026-.028-.077-.082-.026ZM49.6,22.3h.138l-.027-.077-.084-.026Zm1.987-.414.084.284h.083l-.028-.258v-.051Zm-1.573.1.111-.051-.111-.052Zm2.015-.284.028.051.055-.077L52,21.369Zm-.883-.155.055.1.111-.026-.028-.154h-.11Zm-.718-.052-.028.052.028.076h.138l.028-.076-.138-.13Zm1.159-.233v.026l.111-.052-.083-.181Zm-12.39-.89a1.488,1.488,0,0,0-.358-.065,2.657,2.657,0,0,1-.415-.065c-.055-.017-.161-.048-.317-.09s-.322-.091-.5-.143l-.483-.142q-.22-.063-.248-.116a.649.649,0,0,0-.234-.181.771.771,0,0,1-.235-.155l-.359-.285c.018-.034.023-.056.014-.065s0-.03.041-.064c-.018-.035-.031-.048-.041-.04s0,0,.014-.039a.117.117,0,0,0-.083.026.081.081,0,0,0-.055.077.307.307,0,0,1-.152-.129.287.287,0,0,1-.041-.13.721.721,0,0,1-.249-.259.13.13,0,0,1,.056.014.122.122,0,0,0,.055.013.212.212,0,0,1,.083.013.2.2,0,0,0,.084.014c-.019.052-.023.077-.014.077h-.041l-.028.026v.051a.411.411,0,0,0,.166-.025h.028l.028-.026a.627.627,0,0,0-.111-.156l-.111-.1a.6.6,0,0,1,.014-.168.245.245,0,0,1,.069-.09h.055c.018.018.031.022.041.013s.032,0,.07.014V18.15h.11a.194.194,0,0,1,.028-.13q0-.207-.124-.232a1.773,1.773,0,0,1-.263-.077.7.7,0,0,0-.028-.259c0-.017.01-.026.028-.026a.129.129,0,0,0,.056-.013.106.106,0,0,1,.083.013c0,.035.009.051.027.051a.257.257,0,0,0,.167,0l-.027-.025a.1.1,0,0,1,.082.1v.207l.027.026c.129-.017.194-.052.194-.1s.037-.095.111-.13a.157.157,0,0,0-.139-.142.445.445,0,0,1-.193-.065,1.17,1.17,0,0,1,.013-.207.907.907,0,0,0,.014-.155l.083.039a.2.2,0,0,0,.083.013.083.083,0,0,0,.028-.065c0-.025.019-.047.056-.065.037-.051.055-.068.055-.051s.018.026.055.026v-.156a1.257,1.257,0,0,0-.207-.026.3.3,0,0,1-.152-.051.724.724,0,0,1-.027-.258.631.631,0,0,0-.208-.078.369.369,0,0,1-.179-.077.515.515,0,0,1,.028-.207.1.1,0,0,1,.028-.077c.147-.017.244.009.29.077a1.245,1.245,0,0,1,.124.259c.055-.017.105-.035.151-.052a.113.113,0,0,1,.124.026.2.2,0,0,0,.056-.156.2.2,0,0,1,.055-.155.355.355,0,0,1,.194,0h.111a.271.271,0,0,0,.014-.156.242.242,0,0,1,.041-.181l.111-.051a.225.225,0,0,0,.041-.143c-.01-.025.022-.055.1-.09a.276.276,0,0,1-.028-.13.506.506,0,0,1-.193-.025h-.056a1.315,1.315,0,0,1-.014.194,1.221,1.221,0,0,0-.014.194.523.523,0,0,0-.221.051.108.108,0,0,0-.014.091q.014.039-.124.065a.166.166,0,0,0,.083.077l-.028.026a.282.282,0,0,1-.193.051.6.6,0,0,0-.249.051c0-.016-.009-.025-.027-.025a1.164,1.164,0,0,1,.013-.207c.009-.051.023-.121.041-.207a.2.2,0,0,0-.138.051.952.952,0,0,1-.194-.013.238.238,0,0,1-.111-.065.761.761,0,0,1,.014-.181c.009-.034.022-.086.041-.155a.363.363,0,0,0,.152.025h.151v.052h.028v.181l.138-.051a.117.117,0,0,1,.014.09.11.11,0,0,0,.013.091l.056.025a.248.248,0,0,1,.166-.077.64.64,0,0,1,.014-.142.631.631,0,0,0,.014-.116.738.738,0,0,0-.221-.065.445.445,0,0,1-.193-.065c0-.121.018-.193.055-.22a.588.588,0,0,1,.276-.039.631.631,0,0,0,.069-.207.241.241,0,0,1,.068-.155.6.6,0,0,1,.263.039.263.263,0,0,0,.124.039c.018,0,.027.008.027.025v.077l-.055.052.055.13h.194a.61.61,0,0,0-.055-.284L37.04,14.5a.644.644,0,0,1-.124-.013.753.753,0,0,0-.124-.014,2.55,2.55,0,0,1,.068-.258,1.21,1.21,0,0,1,.069-.181l.027-.051a.383.383,0,0,1,.056.155.764.764,0,0,1,.221.026.373.373,0,0,1,.014-.1.567.567,0,0,0,.014-.13.234.234,0,0,0-.139.026.333.333,0,0,1-.068-.078.166.166,0,0,0-.069-.051.115.115,0,0,0-.068.013.307.307,0,0,1-.069.039.076.076,0,0,1,.027.052c0,.069-.014.112-.041.13a.706.706,0,0,0-.1.077,1,1,0,0,1-.276-.026c0-.189.037-.3.111-.336a.2.2,0,0,1,.124-.013.2.2,0,0,0,.124-.014.191.191,0,0,0,0-.142c-.019-.06-.046-.133-.083-.22-.148.017-.217.017-.207,0s-.014-.069-.069-.156a.123.123,0,0,0-.083-.065.238.238,0,0,1-.111-.065.212.212,0,0,1-.083.026l-.027.026a.981.981,0,0,1,.166-.168,1.731,1.731,0,0,1,.166-.116v.155A1.7,1.7,0,0,0,36.846,13v-.129a.277.277,0,0,1,.027-.13v-.051h.056a.428.428,0,0,1,.193-.273,1.749,1.749,0,0,1,.36-.193v.051a.032.032,0,0,0,0-.051l.441-.129q.248-.053.525-.117a2.347,2.347,0,0,1,.525-.065,5.134,5.134,0,0,0,.634-.039,2.257,2.257,0,0,1,.635.013.393.393,0,0,1,.275-.09c.093.009.2.013.332.013.092,0,.184,0,.276.013s.184.014.275.014a.44.44,0,0,0,.207-.039.255.255,0,0,1,.208.013.488.488,0,0,0,.194.013.367.367,0,0,1,.165.014.853.853,0,0,0,.387.013.861.861,0,0,1,.386.013,1.381,1.381,0,0,1,.359-.025c.2,0,.424.009.662.025v-.349a2.916,2.916,0,0,0-.027-.374c-.019-.138-.037-.275-.056-.414a1.594,1.594,0,0,1,0-.414,1.037,1.037,0,0,0-.041-.466,3.95,3.95,0,0,0-.207-.439.916.916,0,0,0-.166-.284.988.988,0,0,1-.166-.259,1,1,0,0,0-.138-.193A1.932,1.932,0,0,1,43.03,8.5c-.037-.051-.055-.06-.055-.026s-.037.009-.111-.077a.2.2,0,0,1-.041-.052.162.162,0,0,0-.068-.051l-.111-.051c-.055-.017-.161-.048-.318-.091L41.9,8.036l-.056-.1V8.01a.556.556,0,0,0-.166-.025,1.49,1.49,0,0,1-.207-.014.708.708,0,0,1-.207-.065h-.028l.028-.026-.083-.025a.071.071,0,0,0,.028.051h-.194a.234.234,0,0,1-.166-.051c-.019.085-.1.112-.234.077A1.46,1.46,0,0,0,40.3,7.88a.221.221,0,0,0-.194.077c-.037.052-.074.069-.111.052a.4.4,0,0,0-.248.026,1.044,1.044,0,0,1-.248.077l-.083-.207h-.221a.485.485,0,0,0-.014.194.221.221,0,0,1-.041.167v.052a.147.147,0,0,1-.055.1.715.715,0,0,1-.318.156.338.338,0,0,0-.262.258c-.074.017-.148.1-.221.258l-.111-.051a.9.9,0,0,0,.041.1.257.257,0,0,1,.014.1c-.055.189-.106.4-.151.621a2.7,2.7,0,0,0-.069.465c-.129.017-.262.031-.4.039a1.241,1.241,0,0,1-.4-.039h-.083v-.077l-.055-.052-.055-.026-.139.13a.068.068,0,0,0,.028.051c-.148.069-.248.061-.3-.025a1.9,1.9,0,0,0-.235.013,1.757,1.757,0,0,1-.235.013,1.741,1.741,0,0,0-.29.026,1.658,1.658,0,0,1-.29.026v-.57a2.961,2.961,0,0,1,.055-.568c-.093-.087-.087-.229.014-.427s.17-.34.207-.427a2.49,2.49,0,0,0,.111-.4.694.694,0,0,1,.193-.349,1.407,1.407,0,0,0,.208-.3.925.925,0,0,1,.206-.272c-.055-.034-.046-.094.028-.181A.1.1,0,0,1,36.542,7a.141.141,0,0,0,.028.1v.026a.508.508,0,0,0,.139-.065c.036-.026.083-.056.138-.091a.207.207,0,0,0-.055-.155.311.311,0,0,1-.167.052l.248-.181a.9.9,0,0,0,.194-.182.421.421,0,0,1,.221-.13q.165-.051.165-.13c0-.051.029-.076.084-.076A.275.275,0,0,0,37.73,6.1a.352.352,0,0,1,.248-.077c.129,0,.208-.03.235-.09s.087-.082.18-.066a.4.4,0,0,0,.318-.129.754.754,0,0,1,.51-.155q.911,0,1.836-.052a6.357,6.357,0,0,1,1.808.155c.166.139.244.19.235.156s.041-.043.152-.026a.905.905,0,0,1,.331.1l.58.233a4.152,4.152,0,0,1,.47.31,4.385,4.385,0,0,1,.649.57,2.16,2.16,0,0,1,.455.7A1.058,1.058,0,0,0,45.915,8a.314.314,0,0,1,.1.271.6.6,0,0,1,.111.414c.018.035.05.1.1.207s.031.164-.041.181c.092.087.124.151.1.194s-.023.116.014.22a2.788,2.788,0,0,1,.056.529v.531a.535.535,0,0,0,.041.22.267.267,0,0,1-.014.22.592.592,0,0,1,.111.388,2.3,2.3,0,0,0-.028.388c0,.155.01.362.028.62a3.207,3.207,0,0,1,0,.595.272.272,0,0,1-.014.091.257.257,0,0,0-.014.091c-.037.035-.05.052-.041.052s0,.016-.014.051a.259.259,0,0,0-.043.046l-.039-.02a.168.168,0,0,0,.083.076h.028v.156a.346.346,0,0,1-.014.22,1.048,1.048,0,0,0-.068.22h-.056l.056.077v.026a1.136,1.136,0,0,0,.014.155.171.171,0,0,1-.041.156.386.386,0,0,1,.055.142v.116a1.154,1.154,0,0,1-.027.3.836.836,0,0,1-.056.141.691.691,0,0,1-.068.1.353.353,0,0,0-.041.207,1.243,1.243,0,0,0,0,.374,2.919,2.919,0,0,1,.027.4v.374a1.369,1.369,0,0,1-.027.35.577.577,0,0,0-.028.258l-.166.052h-.056v.13c.074,0,.12.042.139.129l.083-.051a1.458,1.458,0,0,1,.11.517.6.6,0,0,1-.055.31.3.3,0,0,0-.041.168c.009.026.023.082.041.168a2.648,2.648,0,0,1,.028.66q-.028.35-.028.66h-.649a1.107,1.107,0,0,1-.179-.014,1.848,1.848,0,0,0-.248-.013,2.777,2.777,0,0,0-.594.013,2.769,2.769,0,0,1-.593.014c0-.173-.005-.345-.014-.517a3.469,3.469,0,0,1,.014-.543.686.686,0,0,1-.3.206,1.1,1.1,0,0,0-.221.142.144.144,0,0,0-.055.194c-.148.086-.254.147-.318.181s-.1.069-.1.1-.083.112-.248.233a1.306,1.306,0,0,1-.552.233l-.359.077h-.027c-.019,0-.029.008-.029.025a2.933,2.933,0,0,0-.386.117,1.426,1.426,0,0,1-.552.039c-.093,0-.217,0-.373.013l-.47.026c-.157.009-.3.013-.442.013A.777.777,0,0,1,39.192,20.375Zm1.215-.517h.028V19.78Zm-1.353-.026v-.025H39ZM45.46,19.6h.083v-.052l-.111-.026Zm-6.571,0h.055L39,19.547h-.055Zm7.178-.052H46.1l-.028-.077Zm-3.2-.077.056.051.055.026L43,19.521l-.027-.077-.083-.025Zm-3.506,0v.051l.083-.077Zm-2.9-.026h.111l-.028-.1v-.077h-.055Zm1.409-.232-.028.051.028.156.221-.026.028-.026-.166-.181Zm-.773.025-.028.026v.077l.028.052.166-.026v-.13l.028.1h.027l.028-.1-.028-.025H37.2Zm5.107.077h.028l-.028-.077Zm-2.761-.077.111.026h.055v-.026l-.166-.051Zm-3.064.026h.111l-.111-.051Zm6.24-.026v-.025h-.055Zm-3.561-.284v.077l.028.077h.055l.111-.13-.166-.129Zm-1.491.155.194-.025-.027-.1-.139-.076-.139.025v.13L37.536,19Zm.691-.1.027.051H38.5l-.084-.1h-.083Zm-1.436.025.028.026L36.9,19l-.083-.181h-.11Zm3.755-.052.166.052h.028l-.193-.181Zm-.773-.154L39.91,19h.166l-.193-.208Zm-1.656.1h.027l-.027-.077Zm.8-.025H39l.028-.1-.138-.025Zm-1.518-.077V18.8h-.055Zm2.733-.13.027.025.056.052v-.026l.138-.051-.027-.077v-.052H40.27Zm-1.436.051v-.026h-.056Zm-2.292,0h.084l-.028-.077v-.051h-.111Zm4.557-.026.221-.077v-.1h-.221Zm-1.519-.077-.028.052v.025h.084l.165-.13v-.051h-.11Zm2.374.052.111-.026-.111-.051Zm.746-.052.11-.052-.027-.025.027-.026h-.083Zm-5.549-.025.082-.052-.055-.052Zm8.724-.027H45.9v-.077l-.028-.025h-.138Zm-6.405-.051v-.026l.028-.025h-.028l-.082-.078.027.078h-.055Zm.718-.026.055-.077.028-.026h-.083ZM36.9,18.2h.028v.078h.055l-.055-.078L36.9,18.15Zm-.911.078.083-.026.027-.026-.11-.026Zm3.92-.156h.027l-.027-.077Zm.635-.025c.111-.035.152-.052.125-.052s0-.008.1-.026v-.1a.466.466,0,0,1-.111-.014.464.464,0,0,0-.111-.013.5.5,0,0,1,.276-.026.3.3,0,0,0,.221-.026,1.124,1.124,0,0,1,.276-.168c.128-.059.271-.12.428-.181l.47-.181a1.58,1.58,0,0,0,.373-.194,2.557,2.557,0,0,0,.4-.348,2.079,2.079,0,0,1,.428-.35c.018-.086.087-.146.207-.181a.334.334,0,0,0,.235-.259q-.028-.387-.028-.737a1.153,1.153,0,0,1,.055-.452,1.978,1.978,0,0,1-.027-.337v-.337h-.276a1.429,1.429,0,0,1-.276-.026h.028V13.96h-.083c-.019,0-.046.026-.083.077l-.028.051a2.44,2.44,0,0,1-.525-.051h-.027l-.028-.051v-.052h-.139a.216.216,0,0,1,.028.1.868.868,0,0,1-.262.013c-.084-.008-.179-.013-.29-.013-.149,0-.331,0-.553.013s-.451.022-.69.039-.47.044-.69.078a2.5,2.5,0,0,0-.525.129c-.11.035-.253.078-.427.13a.432.432,0,0,0-.318.233,1.457,1.457,0,0,1-.248.155,1.038,1.038,0,0,0-.248.181c-.055.052-.115.1-.18.156a.523.523,0,0,0-.151.207.3.3,0,0,1-.069.116l-.1.091a1.149,1.149,0,0,0-.152.672,1.52,1.52,0,0,0,.152.672.36.36,0,0,1,.124.156,1.807,1.807,0,0,0,.124.207.6.6,0,0,0,.248.142.3.3,0,0,1,.194.142l.166.026a.165.165,0,0,1-.111.051l.083.1a.366.366,0,0,1-.083.065c-.018.009-.037.039-.055.091a.265.265,0,0,1,.111.026.193.193,0,0,0,.082-.014.126.126,0,0,1,.056-.013.262.262,0,0,0-.028-.142c-.019-.026-.009-.065.028-.117v-.026c.092.087.157.13.194.13a.979.979,0,0,1,.3.13.571.571,0,0,0,.331.077,2.87,2.87,0,0,1,.5.039,1.394,1.394,0,0,0,.5-.013Zm4.667-.1.027.026v-.026h.056l-.111-.076Zm.111-.051.027-.025v-.052h-.111Zm-3.534-.051h.028l-.276-.078Zm3.838-.259.111-.051.027-.026-.083-.026ZM36.653,17.4v-.026H36.6Zm7.786-.026.138-.051L44.6,17.3l-.055-.1h-.111Zm1.1-.078.027.027L45.6,17.3l-.084-.077Zm.194-.258h.027l.028-.026-.028-.206-.083-.026-.055.026v.232l.083-.077Zm-1.546,0v-.026l-.167-.025Zm.634-.155-.028.051v.077l.167-.051-.083-.13Zm-.275-.233v.026H44.6l-.028-.1Zm-.084-.026v.026l.139-.13v-.1l-.22-.025.11.077h.056l-.056.025-.028-.025h-.027Zm-.773-.077.139-.026v-.026l-.111-.025Zm1.1-.337.028.052h.166l-.11-.077Zm1.3-.258.055-.026h-.028l.028-.051h-.028L46.04,15.8Zm.193-1.138v-.025h-.083Zm-.248-.362H46.1V14.4h.027l-.083-.077Zm-7.73,0,.083-.052-.083-.051Zm6.129-.156-.028.1.166-.025H44.6l-.166-.078-.028-.077ZM44,14.037v.1l.111.026.138-.13v-.13l-.138-.051Zm-4.748.026.028.077.165-.026-.027-.155-.111-.026Zm-1.518-.13.027.026.083.155.055.026.111-.181-.138-.181Zm.58.155.11-.025h.028l-.028-.077.028-.026h-.083Zm5.246-.155.165.1v-.1h-.11l.082-.052v-.025h-.137Zm1.269-.026v.052l.083.026.056-.026-.083-.078Zm-4.555.078h.055l-.027-.13-.194-.051Zm4.086-.233.055.052.166-.078.028-.051-.194-.13Zm-6.433.026.083-.026h.083V13.7h-.194Zm6.736-.026v-.026H44.6Zm-6.267,0,.027-.026-.11-.051Zm3.672-.077V13.7l.055.026.111-.026.027-.051V13.6l-.138-.027Zm-.745-.1.027.156.194-.077-.111-.1Zm-2.624.156h.111l-.028-.129-.111-.027Zm4.887-.156-.027.027.027.077h.193l.029.025-.084-.232Zm2.457.1h.028L46.04,13.6Zm-.773-.026v.026h.028l-.056-.1Zm-4.556-.181v-.026h-.055Zm-1.628-.026.166-.051-.028-.1-.111-.052Zm4.086-.207.22.1.028.077.027-.258Zm-4.8.181h.055l.028-.025-.083-.1Zm7.205-.129v.051l.111-.026.083-.025-.083-.1Zm-.8-.026.055.077h.139l-.083-.1-.056-.052Zm-.58.077h.027v-.051l-.083-.1Zm-6.35-.077.028-.026-.083-.052Zm-.745-.207-.055.026.082.051v.026l.139-.1L37.149,13Zm8.034-.207.11.207.221-.1h.027V12.9H45.46l-.111.1h-.055l.028-.1.138-.051-.055-.052-.111-.051Zm-1.409.207h.111l.055-.1-.027-.077-.084-.026-.193.051v.13l.055.026.055-.078Zm.635-.156.083.052L44.384,13v.026l.22-.1h.055l-.083-.026.028-.129h-.248Zm-7.013-.025.028.155H37.4L37.591,13l-.028-.1.028-.1h-.028v-.1l-.082-.026Zm.856-.026.027.077.139.077.055-.672Zm-.939,0,.083-.13-.194-.207Zm1.905-.1v-.1h-.083Zm5.6-.1v.026l.221-.052h.028l-.028-.051-.027.025.027-.1-.11.025H44.77Zm-.635-.1-.027.051.11.052h.028l-.055-.181h-.167l-.055.129.139-.051Zm-.939.026.139.025.11-.077-.138-.13-.111.052-.027.052v.077l.11-.026Zm-4.611.025h.056l-.028-.077Zm-.911-.025.056.025.027-.077-.111-.025Zm8.062-.026h.055l-.028-.156h-.11Zm-6.46-.1h.082l-.082-.1Zm6.709-.207.055.1.166-.052-.055-.1h-.139Zm-.8.1h.056v-.051h-.056Zm-6.295-.155V12.2h.055l-.083-.077Zm.828-.156.083.051V12.1h.028l.028-.156Zm5.853-1.785v.026l.167-.052v-.051l-.111-.026Zm-1.436.026h.111v-.1l-.055.051-.083-.077Zm.773-.026-.083-.13v.077l.028.052v-.026Zm.635-.026h.027l-.027-.077Zm-9.056-.181.055.1.276-.077-.083-.259L36.6,9.769Zm.442-.388.083.1h.083V9.717l.027-.051-.166-.156Zm.22-.077.055.051.056-.1-.056-.13H37.04Zm7.124-.182V9.356h-.056Zm.856-.129v.077l.3.026V9.278L45.266,9.2Zm-8.007-.363.028.1.083.026.028-.026-.028-.336Zm7.262-.258V8.6h-.056ZM37.26,8.6l.083-.025.028-.027-.111-.025Zm8.5-.052V8.528h-.055Zm-.552-.1V8.424h-.055Zm-7.1-.026.028.026.027-.026-.055-.1ZM37.343,8.4l.028.026V8.346l-.028-.025-.028-.026Zm7.869,0h.027l-.027-.1Zm-.028-.1h.028l-.028-.051Zm-6.626-.181h.055V8.062h-.055Zm2.595-.491.139.155v.1l.028.026.138-.051.055-.026L41.18,7.57ZM39,7.907h.056L39,7.8Zm-1.628-.1.027.077v.026l.139-.077-.084-.155Zm4.583.052.111.025h.027V7.855l-.138-.078Zm.083-.13L42.2,7.8l.055-.052-.11-.181H41.98Zm-.5-.258.3.025.331-.311V7.1l-.22-.284-.138-.207v-.1h-.084l-.082.31.248.1-.138.337-.029.025H41.54Zm3.313-.026V7.415H44.8Zm-8.2-.052v-.1H36.57Zm1.795-.025h.083v-.13h-.083Zm2.6-.052v.026h.083l-.083-.13H40.9Zm-1.574-.026V7.26h-.055Zm1.932-.1v.026h.056l-.111-.129Zm-3.975-.051.027.051.029-.051-.029-.156H37.4Zm5.412-.1.083.025L43,7.079V7.052h.028L42.892,6.9l-.083-.025ZM40.849,7V6.975l.028-.025h-.056ZM37.4,6.924h.055L37.4,6.845Zm2.513-.232v.154l.194-.051-.139-.13ZM38.53,6.639h.028l-.028-.052Zm1.96-.311h.055l.028-.026-.028-.1ZM42.7,6.148l.028.129.166.026.055-.052L42.892,6.1h-.166ZM42.23,6.07v.052l.386-.052.028-.025-.3-.207Zm-1.463,0h.055V6.018h-.055Zm2.568-.077.028-.025-.084-.078Zm-1.96-.311.083-.025L41.374,5.6ZM27.156,20.4a2.275,2.275,0,0,0-.69,0,1.313,1.313,0,0,1-.718-.1,1.769,1.769,0,0,0-.537-.13h-.318c-.148,0-.24-.042-.276-.129a.449.449,0,0,0-.248-.13c-.056-.018-.124-.043-.208-.078a.4.4,0,0,1-.179-.129.815.815,0,0,0-.317-.246c-.176-.094-.346-.185-.511-.272a.831.831,0,0,1-.028.258V19.5c-.018.1-.032.19-.041.258a1.317,1.317,0,0,0-.014.156,1.276,1.276,0,0,1-.414-.026,2.512,2.512,0,0,0-.718,0,.462.462,0,0,1-.276.052h-.482a4.583,4.583,0,0,1-.5-.026c-.157-.018-.244-.026-.262-.026v-.672a.279.279,0,0,1-.028-.13.791.791,0,0,0-.014-.13.2.2,0,0,1,.041-.155.253.253,0,0,1,0-.233.092.092,0,0,0,.014-.077.423.423,0,0,1-.014-.155c0,.034,0-.018-.014-.156a.81.81,0,0,1,.014-.284v-.517l.027-.077a1.538,1.538,0,0,0,.028-.388.5.5,0,0,0-.028-.207.2.2,0,0,1-.027-.091v-.1a2.073,2.073,0,0,1,.027-.246,1.709,1.709,0,0,0,.042-.375.585.585,0,0,1-.014-.168.723.723,0,0,0-.028-.232.113.113,0,0,1,.028-.13c.018-.017.018-.06,0-.129s-.018-.113,0-.13.018-.039,0-.065a.083.083,0,0,1,0-.091.239.239,0,0,0,.014-.142,1.632,1.632,0,0,1,.014-.349q.027-.285-.014-1.332t.014-2.5a7.924,7.924,0,0,0,0-.957,1.032,1.032,0,0,0-.068-.311,1.072,1.072,0,0,1-.069-.156,1.478,1.478,0,0,1,.027-.465c.037-.258.065-.453.083-.581a2.371,2.371,0,0,0,.028-.3,1.336,1.336,0,0,1,.014-.194,2.251,2.251,0,0,0,.014-.3,2.016,2.016,0,0,0-.014-.272.31.31,0,0,0-.041-.129.129.129,0,0,1-.028-.066.8.8,0,0,1,.028-.13,1.42,1.42,0,0,0,.055-.361,2.837,2.837,0,0,0-.027-.363c-.018-.155-.037-.28-.056-.375A.362.362,0,0,1,20.5,5.4c.018,0,0-.039-.041-.116a.756.756,0,0,1-.014-.453,3.617,3.617,0,0,0,.056-.414q0-.077.027-.362a1.2,1.2,0,0,1,.014-.22.555.555,0,0,0,.014-.1.549.549,0,0,0-.014-.1,1.016,1.016,0,0,1-.014-.194c-.018-.293-.037-.56-.055-.8a3.751,3.751,0,0,1,.028-.776.956.956,0,0,0,.014-.259.622.622,0,0,1-.014-.181c0-.086-.005-.13-.014-.13s-.014-.034-.014-.1V.961A1.114,1.114,0,0,1,20.5.742a.916.916,0,0,0,.027-.233V.3a.952.952,0,0,1,.029-.284A.684.684,0,0,1,20.82,0c.138.008.281.022.427.039l.608.051a.281.281,0,0,0,.18-.039.668.668,0,0,1,.317-.039q.3,0,.553.013c.166.01.331.014.5.014V.626q0,.374.028.685a1.2,1.2,0,0,1-.042.491,1.26,1.26,0,0,0-.068.388,2.629,2.629,0,0,0,.014.311,1.868,1.868,0,0,1,.014.258c0,.051,0,.155.014.31s.014.332.014.53v.582a2.72,2.72,0,0,1-.027.439.362.362,0,0,0,0,.207l.041.078A.194.194,0,0,1,23.4,5a1.09,1.09,0,0,1-.055.246.754.754,0,0,0-.084.272.221.221,0,0,0,.029.129c.017.026.036.052.055.078a.2.2,0,0,1,.027.116,1.05,1.05,0,0,0-.027.194V6.2l.414-.181a2.143,2.143,0,0,1,.524-.233h.221a.617.617,0,0,0,.331-.1.768.768,0,0,1,.414-.1,3.4,3.4,0,0,1,.442.025,1.592,1.592,0,0,0,.414,0,1.836,1.836,0,0,0,.428-.1.63.63,0,0,1,.51.077,2.036,2.036,0,0,0,.248-.065.745.745,0,0,1,.553.116,1.32,1.32,0,0,0,.621.142.667.667,0,0,1,.428.091.5.5,0,0,0,.372.142.5.5,0,0,1,.373.142.575.575,0,0,0,.248.155,2.493,2.493,0,0,1,.442.246A3.417,3.417,0,0,1,30.855,7a3.269,3.269,0,0,1,.525.75q.525.931.829,1.513a3.233,3.233,0,0,1,.359,1.229c.018.207.031.349.041.427s.014.129.014.156v.064a.413.413,0,0,0,.056.13.814.814,0,0,1,.1.44,4.956,4.956,0,0,0,.014.62,1.663,1.663,0,0,1,.069.479,6.108,6.108,0,0,1-.014,1.074c-.018.207-.027.363-.027.465v.427a1.06,1.06,0,0,1-.028.194,1.826,1.826,0,0,1-.11.3.642.642,0,0,0-.056.22c0,.035,0,.094-.014.181s-.023.181-.041.284a1.83,1.83,0,0,1-.069.272.2.2,0,0,1-.124.142.46.46,0,0,1,.056.22c0,.078-.056.159-.166.246a.674.674,0,0,1-.083.221,2.035,2.035,0,0,0-.138.375,1.949,1.949,0,0,1-.1.271,1.228,1.228,0,0,1-.318.453c-.147.122-.244.2-.289.233a.291.291,0,0,0-.1.181,1.434,1.434,0,0,1-.469.465v-.051h-.056v.051h.028l-.3.207c-.2.139-.331.229-.387.272a3.652,3.652,0,0,1-.359.221,2.356,2.356,0,0,0-.345.181.857.857,0,0,0-.152.155h-.027a.475.475,0,0,0-.4.026c-.157.068-.29.121-.4.156a4.29,4.29,0,0,1-.511.129,2.1,2.1,0,0,1-.431.047A1.781,1.781,0,0,1,27.156,20.4Zm-.442-.621.083.233.221.284.3-.13v-.051l-.083-.1h-.194l-.055-.182-.138-.1h-.111Zm-2.733-.258.028.077.166-.026-.028-.077-.111-.077Zm-2.4-.078.11.1.11-.1-.22-.077Zm-.718,0,.11.052L21,19.418l-.028-.052h-.083Zm-.166-.336v-.052l-.138-.026Zm.994-.259.221-.181v-.051l-.027-.026h-.166Zm-.911-.155v.155h.275v-.181h-.248Zm5.853-.336h.028l-.028-.052ZM26.383,8.036q-.663.1-1.008.156a2.112,2.112,0,0,0-.649.206c-.2.087-.327.139-.373.156l-.207.078a.322.322,0,0,1-.194.18q-.138.053-.441.181a.78.78,0,0,1,0,.415c-.038.19-.065.345-.083.465a2.173,2.173,0,0,0-.028.337v2.353c-.019.069-.037.1-.055.1s-.01.034.027.1a.415.415,0,0,1,0,.414.684.684,0,0,0-.055.271,1.274,1.274,0,0,0,.028.273.675.675,0,0,1,.027.155v.233a2.053,2.053,0,0,1-.014.258.38.38,0,0,0,.014.181v1.63l.5.544a.765.765,0,0,0,.317.181.52.52,0,0,1,.29.207c.074.121.1.185.083.194s.056.022.221.039a.794.794,0,0,1,.3.1c.036.035.073.069.11.1a.713.713,0,0,0,.29.1,2.762,2.762,0,0,1,.428.13,1.5,1.5,0,0,0,.413.116,3.038,3.038,0,0,0,.47.039,2.7,2.7,0,0,0,.621-.1c.267-.069.492-.122.677-.156a.744.744,0,0,0,.442-.246,1.6,1.6,0,0,1,.442-.349.8.8,0,0,0,.358-.272c.056-.094.111-.194.166-.3a1.383,1.383,0,0,1,.125-.233,2.268,2.268,0,0,0,.151-.259,1.173,1.173,0,0,0,.083-.439A1.193,1.193,0,0,1,30,15.072c.018-.068.041-.211.069-.427s.05-.448.068-.7a6.332,6.332,0,0,0,.013-.737,2.7,2.7,0,0,0-.068-.57,3.639,3.639,0,0,1-.111-.672q0-.181-.027-.544c.018,0-.01-.073-.084-.22a2.35,2.35,0,0,1-.166-.737V10.21a1.513,1.513,0,0,0-.373-1.074q-.373-.4-.566-.634c-.11-.156-.2-.224-.263-.207a1.153,1.153,0,0,1-.427-.052,5.436,5.436,0,0,1-.676-.207,1.216,1.216,0,0,0-.425-.065A3.086,3.086,0,0,0,26.383,8.036Zm2.733,9.675v-.026h-.028Zm.083-.156h.028l-.028-.026Zm-7.786-1.242h.055v-.051h-.055Zm1.16-.414h.055l-.055-.181Zm.689-1.371v.026l.056-.026V14.5l-.111-.052Zm7.7-.336v.1l.22.051.11-.1v-.1l-.027-.025Zm-9.029-.156.138.156.056-.026v-.181l-.083-.026Zm1.076-.646h.056l-.028-.207v-.051h-.083ZM21.3,13.339l.111-.051v-.026l-.138-.1Zm.939-.181v-.025h-.055Zm-.607-.1.055-.026h.028L21.634,13Zm.138-.077v-.026h-.055Zm1.187-.284.055-.052.028-.051-.083-.026Zm-1.795-.182.055.1h.221l-.194-.182Zm.331.026v-.026h-.055Zm-.717-.414.028.156H21v-.233Zm-.056-.155v.052l.056-.052v-.026l-.028-.026-.028-.025Zm.718-.284v-.026h-.055Zm1.932-.337v-.026h-.055Zm-2.154-.181.083.051v-.051l-.11-.156Zm-.331-.285.028.027.11-.027v-.206h-.11l-.055-.13Zm10.271-.051v.051h.083l.028-.31h-.055Zm-.911,0,.027-.1.028-.052-.193-.052Zm.745-.077V10.8h.055l-.082-.1Zm-9.249.051v-.051h-.055ZM21.11,10.6h.028l-.028-.052Zm10.215-.156.028.1.194-.025-.083-.129v.051l-.111-.026Zm-1.573.078a.437.437,0,0,1,.11-.078.414.414,0,0,0,.111-.077v-.13a.118.118,0,0,0-.083-.025v.1a.275.275,0,0,0-.111.025c0,.035-.027.077-.083.13C29.732,10.485,29.751,10.5,29.751,10.52Zm-9.222-.078h.056l.055-.1-.082-.155Zm.8-.1h.138v-.051H21.33Zm9.5-.052V10.21l-.083-.026ZM30.5,10.21h.11v-.026l-.11-.026Zm.552-.026h.028l-.028-.051Zm-.938-.13.358.051V10.08l.028-.026-.414-.1Zm.994-.1h.111V9.873H31.1Zm.856-.7v.026h.055L31.988,9.1l-.083-.026ZM23.207,7.985l.276-.052-.028-.181h-.248Zm1.657-1.553h.028l-.028-.052Zm-1.518-.1V6.278h-.028ZM24.2,6.3h.027V6.278L24.174,6.2ZM22.02,6.044h.055V5.993H22.02ZM20.585,4.622V4.6h-.056ZM22.407.354V.328h-.083ZM20.833.224V.3h.083V.172h-.028L20.861.147V.172h.027Zm14.549,17.9a.057.057,0,0,1-.041-.013A.059.059,0,0,0,35.3,18.1a.429.429,0,0,1,.083-.311.618.618,0,0,1,.22.025.117.117,0,0,1,.083.026.817.817,0,0,1-.014.181.419.419,0,0,1-.069.13A.482.482,0,0,1,35.383,18.124Zm-.3-.336c0-.017,0-.026-.014-.026s-.014-.009-.014-.026l-.139-.31a.522.522,0,0,1,.235,0,.935.935,0,0,1,.152.077.623.623,0,0,1-.028.208.1.1,0,0,0-.027.077Zm.912-.337-.028-.026.029.026Zm-.581-.039a.232.232,0,0,1-.11-.065.8.8,0,0,1,.014-.194.513.513,0,0,1,.069-.117.735.735,0,0,1,.248.026.117.117,0,0,0,.083.025.806.806,0,0,0-.041.091c-.009.026,0,.065.041.116a.542.542,0,0,1-.111.13A.952.952,0,0,1,35.41,17.413Zm-.661-.595a1.653,1.653,0,0,1-.029-.53,4.471,4.471,0,0,0,.014-.608,1.1,1.1,0,0,1,.124-.581,1.329,1.329,0,0,1,.248-.337,2.153,2.153,0,0,0,.139-.324c.036-.112.073-.22.11-.323a.8.8,0,0,1,.221-.272,1.244,1.244,0,0,0,.248-.272l.194-.207a.068.068,0,0,0,.027.052.17.17,0,0,0,.111-.025,1.053,1.053,0,0,1,.194.012.255.255,0,0,1,.11.066.96.96,0,0,1-.028.284.639.639,0,0,0-.358.077v.13a.273.273,0,0,0,.027.129l-.027.052a.412.412,0,0,1-.166.026.523.523,0,0,0-.221.051v.311l.028-.025a1.177,1.177,0,0,1,.221.013.489.489,0,0,1,.138.065.6.6,0,0,1-.014.168.609.609,0,0,1-.068.116c-.185,0-.294-.043-.332-.13h-.027l.055-.052v-.1a.315.315,0,0,0-.083.051.293.293,0,0,1-.083.051.472.472,0,0,0,.166.259.817.817,0,0,1-.014.181c-.009.035-.023.052-.041.052h-.068a.456.456,0,0,0-.125.025.225.225,0,0,0-.068.1.122.122,0,0,1-.069.077.26.26,0,0,0,.014.1,1.065,1.065,0,0,1,.041.1H35.6l.083.1a.588.588,0,0,1-.028.232.082.082,0,0,0-.055.026.577.577,0,0,1-.234-.026.35.35,0,0,1-.1-.13h-.083a2.057,2.057,0,0,0,.1.375c.046.13-.022.238-.207.323a.325.325,0,0,0,.221.259c0,.155-.028.237-.083.246a1.985,1.985,0,0,0-.248.065.473.473,0,0,0-.083.259Q34.8,17.064,34.748,16.818Zm.855-2.755h.083l-.028-.1v-.155h-.027Zm.194,2.962a.246.246,0,0,1-.111-.065.751.751,0,0,1,.014-.181.215.215,0,0,1,.069-.1h.248l.055.051a.921.921,0,0,1-.014.207.226.226,0,0,1-.068.1A.952.952,0,0,1,35.8,17.025Zm-.387-.363a.237.237,0,0,1-.11-.064.587.587,0,0,1,.055-.31l.331.077a.494.494,0,0,1-.083.31A.934.934,0,0,1,35.41,16.663Zm.884-.53-.028-.1.084.052h.027v.051Zm-.939-.026.028-.13.055.026-.028.078v.025Zm.8-1.63a1.329,1.329,0,0,1-.111-.129.721.721,0,0,1,.041-.13.39.39,0,0,1,.069-.077.731.731,0,0,1,.248.026h.055a.408.408,0,0,0,.028.181.221.221,0,0,1-.028.1l-.083.052A.463.463,0,0,1,36.156,14.477Zm6.985-.388h.028Zm3.215-.781c.006,0,.006.005,0,.005S46.353,13.311,46.355,13.308ZM29.7,10.468ZM41.677,7.363V7.312l.055.026v.025ZM20.888.172Z" transform="translate(4.061 1.004)" fill="#1d1d1b" stroke="rgba(0,0,0,0)" stroke-miterlimit="10" stroke-width="1"/>
</svg>
