<svg xmlns="http://www.w3.org/2000/svg" width="107.45" height="72.555" viewBox="0 0 107.45 72.555">
  <g id="Сгруппировать_5613" data-name="Сгруппировать 5613" transform="translate(-1774.73 -844.535)">
    <path id="Контур_11323" data-name="Контур 11323" d="M10.7,65.171a16.821,16.821,0,0,0,2.678,3.181C23.59,78.563,36.648,72.7,46.692,62.492,56.9,52.28,62.6,39.223,52.551,29.178A24.478,24.478,0,0,0,49.371,26.5Z" transform="translate(1820.426 822.868) rotate(45)" fill="#f5f4f4"/>
    <path id="Контур_11324" data-name="Контур 11324" d="M11.9,63.162a23.91,23.91,0,0,0,2.511,3.013c9.542,9.542,21.763,3.85,31.3-5.859,9.542-9.542,15.4-21.763,5.859-31.3A23.909,23.909,0,0,0,48.562,26.5Z" transform="translate(1820.998 823.44) rotate(45)" fill="#5b995c"/>
    <g id="Сгруппировать_5610" data-name="Сгруппировать 5610" transform="translate(1855.177 853.604) rotate(45)">
      <g id="Сгруппировать_5607" data-name="Сгруппировать 5607" transform="translate(0 0.037)">
        <path id="Контур_11325" data-name="Контур 11325" d="M63.468,9.969c1-1,3.348,0,4.353.837h0c1,1,1.674,3.516.837,4.52L35.846,44.79c-1,1-2.009,1.507-2.846.5h0c-1-1-.335-1.841.67-2.846Z" transform="translate(-31.609 -8.623)" fill="#f5f4f4"/>
        <path id="Контур_11326" data-name="Контур 11326" d="M34.365,47a2.149,2.149,0,0,1-1.674-.67c-1.674-1.674,0-3.348.67-4.018l29.8-32.644h0c1.507-1.507,4.353-.167,5.524.837a5.1,5.1,0,0,1,1.339,2.678,3.451,3.451,0,0,1-.5,3.013L36.876,45.664A3.748,3.748,0,0,1,34.365,47ZM64.5,10.844,34.532,43.321c-1.172,1.172-1,1.339-.67,1.674a.827.827,0,0,0,.5.167c.167,0,.5-.167,1.339-.837L68.515,14.862q.251-.251,0-1.507a4.707,4.707,0,0,0-.837-1.841C66.841,11.012,65,10.342,64.5,10.844Z" transform="translate(-31.969 -8.996)" fill="#4f7075"/>
      </g>
      <g id="Сгруппировать_5609" data-name="Сгруппировать 5609" transform="translate(16.039)">
        <path id="Контур_11327" data-name="Контур 11327" d="M42.1,26.208,57,9.969c1-1,3.348,0,4.353.837,1,1,1.674,3.516.837,4.52L45.95,29.89Z" transform="translate(-41.179 -8.586)" fill="#f5f4f4"/>
        <path id="Контур_11328" data-name="Контур 11328" d="M43.5,25.743,57.562,10.677c.837-.837,2.846-.335,3.516.335s1.172,2.846.167,3.683L46.179,28.422Z" transform="translate(-40.236 -8.122)" fill="#5b995c"/>
        <path id="Контур_11329" data-name="Контур 11329" d="M46.321,31.115a1.007,1.007,0,0,1-.67-.167L41.8,27.1a.809.809,0,0,1,0-1.172L56.7,9.687c1.507-1.507,4.52-.335,5.524.837A5.1,5.1,0,0,1,63.564,13.2a3.451,3.451,0,0,1-.5,3.013L46.656,30.948C46.656,31.115,46.488,31.115,46.321,31.115ZM43.643,26.6l2.678,2.678L62.057,15.212q.251-.251,0-1.507a4.707,4.707,0,0,0-.837-1.841c-.837-.837-2.678-1.339-3.181-.837Z" transform="translate(-41.55 -8.974)" fill="#4f7075"/>
        <g id="Сгруппировать_5608" data-name="Сгруппировать 5608" transform="translate(15.04 3.101)">
          <circle id="Эллипс_874" data-name="Эллипс 874" cx="0.837" cy="0.837" r="0.837" transform="translate(0 0.939) rotate(-34.118)" fill="#f5f4f4"/>
        </g>
      </g>
    </g>
    <circle id="Эллипс_875" data-name="Эллипс 875" cx="1.674" cy="1.674" r="1.674" transform="translate(1786.115 888.082)" fill="#f5f4f4"/>
    <path id="Контур_11330" data-name="Контур 11330" d="M25.746,74.792c-4.687,0-8.872-1.841-12.723-5.524a18.08,18.08,0,0,1-2.678-3.348c-.167-.335-.167-.837.167-1l38.5-38.5a.789.789,0,0,1,1-.167,29.276,29.276,0,0,1,3.348,2.678c5.022,5.022,6.7,10.881,5.022,17.41-1.339,5.524-5.022,11.384-10.714,17.075S36.125,72.783,30.6,74.122A16.935,16.935,0,0,1,25.746,74.792Zm-13.56-9.375a10.7,10.7,0,0,0,2.176,2.511,15.838,15.838,0,0,0,15.9,4.52c5.19-1.339,10.881-4.855,16.238-10.379,5.357-5.357,9.04-11.049,10.379-16.238a15.838,15.838,0,0,0-4.52-15.9c-.67-.67-1.507-1.339-2.511-2.176Z" transform="translate(1820.379 822.473) rotate(45)" fill="#4f7075"/>
    <ellipse id="Эллипс_876" data-name="Эллипс 876" cx="27.454" cy="13.56" rx="27.454" ry="13.56" transform="translate(1781.89 862.904)" fill="#f9c893"/>
    <path id="Контур_11331" data-name="Контур 11331" d="M18.193,69.694a9.362,9.362,0,0,1-6.864-2.511C8.483,64.337,7.981,59.649,9.99,53.79c1.841-5.692,5.859-11.551,11.049-16.908,11.216-11.216,24.441-15.569,30.3-9.877h0c5.692,5.692,1.339,19.084-9.877,30.3C33.761,65.174,24.889,69.694,18.193,69.694ZM44.475,26.336c-6.027,0-14.732,4.353-22.1,11.886C17.356,43.244,13.505,49.1,11.664,54.46c-1.674,5.19-1.339,9.375.837,11.718,5.022,5.022,17.41.5,27.957-9.877,10.379-10.379,14.732-22.935,9.877-27.957A7.846,7.846,0,0,0,44.475,26.336Z" transform="translate(1820.457 821.001) rotate(45)" fill="#4f7075"/>
    <g id="Сгруппировать_5612" data-name="Сгруппировать 5612" transform="translate(1809.379 878.045) rotate(45)">
      <ellipse id="Эллипс_877" data-name="Эллипс 877" cx="3.348" cy="2.009" rx="3.348" ry="2.009" transform="translate(0 4.735) rotate(-45)" fill="#f53b3d"/>
      <path id="Контур_11332" data-name="Контур 11332" d="M25.444,45.924a1.941,1.941,0,0,1-1.674-.67,2.275,2.275,0,0,1-.5-2.511,5.049,5.049,0,0,1,1.507-2.511c1.674-1.674,3.85-2.009,5.022-1h0c1.172,1.172.67,3.348-.837,5.022a7.729,7.729,0,0,1-2.511,1.507A2.945,2.945,0,0,1,25.444,45.924Zm2.511-5.357a4.051,4.051,0,0,0-2.176,1,4.46,4.46,0,0,0-1,1.674.736.736,0,0,0,.167.837,1.255,1.255,0,0,0,.837.167,4.46,4.46,0,0,0,1.674-1c1-1,1.339-2.176.837-2.511C28.29,40.567,28.122,40.567,27.955,40.567Z" transform="translate(-22.846 -38.629)" fill="#4f7075"/>
    </g>
    <path id="Контур_11333" data-name="Контур 11333" d="M14.176,66.235c-.335,0-.837-.335-.837-.67C12.5,58.7,17.189,49.16,25.224,41.124S42.8,28.4,49.666,29.239a.854.854,0,0,1-.335,1.674c-6.194-.67-15.569,3.85-23.1,11.384S14.008,59.2,14.845,65.4c.335.335,0,.67-.67.837Z" transform="translate(1820.379 825.34) rotate(45)" fill="#4f7075"/>
    <path id="Контур_11334" data-name="Контур 11334" d="M44.113,27.5a52.252,52.252,0,0,0-7.2,2.511,51.014,51.014,0,0,0-6.7,3.516,51.673,51.673,0,0,0-6.194,4.353A41.78,41.78,0,0,0,18.5,43.236a18.971,18.971,0,0,1,4.687-6.194,33.494,33.494,0,0,1,6.194-4.687A26.257,26.257,0,0,1,44.113,27.5Z" transform="translate(1823.667 827.063) rotate(45)" fill="#4f7075" opacity="0.6"/>
  </g>
</svg>
