<svg xmlns="http://www.w3.org/2000/svg" width="148.14" height="26.948" viewBox="0 0 148.14 26.948">
  <g id="Сгруппировать_5627" data-name="Сгруппировать 5627" transform="translate(-361 -347)">
    <g id="Maestro_2016" transform="translate(361 347)">
      <g id="Group_3278" data-name="Group 3278" transform="translate(0 0)">
        <g id="Group_3273" data-name="Group 3273" transform="translate(32.878 16.65)">
          <path id="Path_5040" data-name="Path 5040" d="M-4.315-1.991V-2.4h-.106l-.123.281L-4.667-2.4h-.107v.409H-4.7V-2.3l.115.266H-4.5L-4.39-2.3v.307Zm-.676,0v-.341h.136V-2.4H-5.2v.068h.136v.341Z" transform="translate(5.203 2.4)" fill="#0099df"/>
        </g>
        <path id="Path_5041" data-name="Path 5041" d="M3581.085,2164.145h-9.218V2147.58h9.218Z" transform="translate(-3559.433 -2145.323)" fill="#6c6bbd"/>
        <g id="Group_3274" data-name="Group 3274">
          <path id="Path_5042" data-name="Path 5042" d="M-63.369-51.271a10.519,10.519,0,0,1,4.022-8.284,10.49,10.49,0,0,0-6.511-2.25A10.536,10.536,0,0,0-76.392-51.271,10.536,10.536,0,0,0-65.857-40.737a10.49,10.49,0,0,0,6.511-2.25,10.519,10.519,0,0,1-4.022-8.284" transform="translate(76.392 61.804)" fill="#eb001b"/>
        </g>
        <g id="Group_3275" data-name="Group 3275" transform="translate(17.037 0.003)">
          <path id="Path_5043" data-name="Path 5043" d="M-82.953-51.269A10.536,10.536,0,0,1-93.489-40.736,10.494,10.494,0,0,1-100-42.986a10.518,10.518,0,0,0,4.022-8.284A10.518,10.518,0,0,0-100-59.55a10.494,10.494,0,0,1,6.512-2.25A10.536,10.536,0,0,1-82.953-51.271" transform="translate(100 61.8)" fill="#0099df"/>
        </g>
        <g id="Group_3276" data-name="Group 3276" transform="translate(5.561 22.718)">
          <path id="Path_5044" data-name="Path 5044" d="M-93.408-3.788a1.3,1.3,0,0,1,.434.076l-.187.573a.986.986,0,0,0-.38-.068c-.4,0-.6.257-.6.719V-.919h-.609V-3.714h.6v.341a.825.825,0,0,1,.738-.409m-2.25.626h-.993V-1.9c0,.281.1.468.4.468a1.121,1.121,0,0,0,.535-.161l.175.521a1.427,1.427,0,0,1-.76.217c-.72,0-.968-.384-.968-1.033V-3.161h-.568v-.556h.568v-.849h.614v.849h.995Zm-7.79.6a.721.721,0,0,1,.744-.682.7.7,0,0,1,.708.682Zm2.084.246a1.342,1.342,0,0,0-.341-1.028,1.342,1.342,0,0,0-.989-.441,1.367,1.367,0,0,0-1.022.426,1.367,1.367,0,0,0-.371,1.043,1.38,1.38,0,0,0,.393,1.051,1.38,1.38,0,0,0,1.044.411,1.7,1.7,0,0,0,1.145-.392l-.3-.451a1.33,1.33,0,0,1-.813.292.777.777,0,0,1-.836-.682h2.077c.006-.076.012-.152.012-.234M-98.689-3a1.794,1.794,0,0,0-.872-.241c-.333,0-.532.123-.532.329,0,.187.211.24.474.273l.287.041c.609.089.978.346.978.837,0,.532-.468.913-1.275.913a2.018,2.018,0,0,1-1.213-.367l.287-.477a1.492,1.492,0,0,0,.931.292c.415,0,.638-.123.638-.341,0-.157-.158-.246-.492-.292l-.287-.041c-.626-.089-.966-.369-.966-.826,0-.556.457-.9,1.165-.9a2.091,2.091,0,0,1,1.141.292Zm7.506-.2a.922.922,0,0,0-.349.068.838.838,0,0,0-.279.185A.857.857,0,0,0-92-2.664a.963.963,0,0,0-.068.365A.96.96,0,0,0-92-1.933a.858.858,0,0,0,.185.275.838.838,0,0,0,.279.185.909.909,0,0,0,.349.068.907.907,0,0,0,.349-.068.836.836,0,0,0,.279-.185.851.851,0,0,0,.187-.285.96.96,0,0,0,.068-.365.962.962,0,0,0-.068-.365.851.851,0,0,0-.187-.285.836.836,0,0,0-.28-.185.92.92,0,0,0-.349-.068m0-.578a1.576,1.576,0,0,1,.6.113,1.464,1.464,0,0,1,.477.311,1.423,1.423,0,0,1,.317.468,1.488,1.488,0,0,1,.115.587,1.488,1.488,0,0,1-.115.587,1.426,1.426,0,0,1-.317.468,1.474,1.474,0,0,1-.477.311,1.588,1.588,0,0,1-.6.112,1.588,1.588,0,0,1-.6-.112,1.458,1.458,0,0,1-.477-.311,1.443,1.443,0,0,1-.316-.468,1.488,1.488,0,0,1-.115-.587A1.488,1.488,0,0,1-92.58-2.9a1.44,1.44,0,0,1,.316-.468,1.448,1.448,0,0,1,.477-.311,1.576,1.576,0,0,1,.6-.113M-107-2.321a.84.84,0,0,1,.228-.634.84.84,0,0,1,.62-.262.838.838,0,0,1,.617.264.839.839,0,0,1,.226.632.839.839,0,0,1-.225.632.838.838,0,0,1-.617.265.839.839,0,0,1-.62-.262A.839.839,0,0,1-107-2.318m2.265,0v-1.4h-.608v.341a1.061,1.061,0,0,0-.886-.409,1.4,1.4,0,0,0-1.014.435,1.4,1.4,0,0,0-.385,1.034,1.4,1.4,0,0,0,.386,1.033,1.4,1.4,0,0,0,1.014.434,1.061,1.061,0,0,0,.886-.409v.341h.608Zm-3.432,1.4V-2.676a1.042,1.042,0,0,0-.3-.8,1.042,1.042,0,0,0-.8-.307,1.083,1.083,0,0,0-.984.5,1.028,1.028,0,0,0-.925-.5.926.926,0,0,0-.818.415v-.345h-.608V-.922h.614V-2.471A.654.654,0,0,1-111.827-3a.654.654,0,0,1,.516-.211c.4,0,.609.263.609.738V-.92h.614V-2.471A.661.661,0,0,1-109.92-3a.661.661,0,0,1,.513-.214c.416,0,.614.263.614.738V-.92Z" transform="translate(112.606 4.566)" fill="#231f20"/>
        </g>
        <g id="Group_3277" data-name="Group 3277" transform="translate(28.917 25.959)">
          <path id="Path_5045" data-name="Path 5045" d="M-1.153-.955v.068h.063A.063.063,0,0,0-1.056-.9a.029.029,0,0,0,.014-.026.028.028,0,0,0-.014-.026A.057.057,0,0,0-1.09-.955ZM-1.089-1a.118.118,0,0,1,.076.023.074.074,0,0,1,.025.059.068.068,0,0,1-.021.053.106.106,0,0,1-.059.024l.085.1h-.068l-.076-.1h-.025v.1h-.055V-1Zm-.017.346a.2.2,0,0,0,.084-.017A.22.22,0,0,0-.954-.721.215.215,0,0,0-.908-.789.221.221,0,0,0-.891-.874.221.221,0,0,0-.908-.958a.223.223,0,0,0-.046-.068.2.2,0,0,0-.068-.046.2.2,0,0,0-.083-.018.212.212,0,0,0-.085.017.2.2,0,0,0-.068.046A.21.21,0,0,0-1.3-.958a.209.209,0,0,0-.017.085A.209.209,0,0,0-1.3-.789a.2.2,0,0,0,.046.068.218.218,0,0,0,.068.046.212.212,0,0,0,.085.017m0-.494A.273.273,0,0,1-1-1.13a.276.276,0,0,1,.091.059.273.273,0,0,1,.06.091.266.266,0,0,1,.022.108.266.266,0,0,1-.022.108.277.277,0,0,1-.061.087A.289.289,0,0,1-1-.618a.273.273,0,0,1-.11.022.282.282,0,0,1-.112-.022.282.282,0,0,1-.09-.06.277.277,0,0,1-.06-.088A.266.266,0,0,1-1.39-.874.266.266,0,0,1-1.369-.98a.273.273,0,0,1,.06-.089.273.273,0,0,1,.091-.059.282.282,0,0,1,.112-.022" transform="translate(1.39 1.152)" fill="#231f20"/>
        </g>
      </g>
    </g>
    <g id="master-card" transform="translate(409.982 347.469)">
      <path id="Path_4956" data-name="Path 4956" d="M42.48,51.263a.78.78,0,0,1-.173.284.65.65,0,0,1-.263.187.8.8,0,0,1-.346.068.823.823,0,0,1-.352-.068.808.808,0,0,1-.263-.194.877.877,0,0,1-.166-.282,1.1,1.1,0,0,1-.055-.346,1.169,1.169,0,0,1,.055-.346.954.954,0,0,1,.166-.284.809.809,0,0,1,.263-.194.822.822,0,0,1,.352-.068.8.8,0,0,1,.346.068.823.823,0,0,1,.263.187.843.843,0,0,1,.173.284,1,1,0,0,1,.1.332.94.94,0,0,1-.1.374Zm0-2.877v1.466a1.2,1.2,0,0,0-.367-.3,1.141,1.141,0,0,0-.512-.11,1.307,1.307,0,0,0-.545.11,1.239,1.239,0,0,0-.442.3,1.383,1.383,0,0,0-.3.464,1.714,1.714,0,0,0,0,1.176,1.335,1.335,0,0,0,.3.464,1.238,1.238,0,0,0,.442.3,1.307,1.307,0,0,0,.545.11,1.058,1.058,0,0,0,.512-.11,1.106,1.106,0,0,0,.367-.3v.341h.6V48.386ZM25.438,51.8a.768.768,0,0,0,.29-.055.848.848,0,0,0,.18-.083l.2.512-.256.117a1.279,1.279,0,0,1-.477.083,1.016,1.016,0,0,1-.74-.263,1.12,1.12,0,0,1-.263-.818V50.068h-.549v-.562h.554v-.83h.614v.83h.982v.554H25v1.211a.6.6,0,0,0,.035.235.47.47,0,0,0,.09.166.4.4,0,0,0,.145.09.457.457,0,0,0,.173.042Zm-9.184-2.3a1.08,1.08,0,0,1,.346.228,1.038,1.038,0,0,1,.228.352,1.3,1.3,0,0,1,.076.442v1.757h-.609V50.751a.789.789,0,0,0-.166-.539.588.588,0,0,0-.464-.187.692.692,0,0,0-.273.048.574.574,0,0,0-.222.136.727.727,0,0,0-.152.235.864.864,0,0,0-.055.312v1.549h-.585V50.751a.789.789,0,0,0-.159-.554.588.588,0,0,0-.464-.187.692.692,0,0,0-.273.048.574.574,0,0,0-.222.136.727.727,0,0,0-.152.235.864.864,0,0,0-.055.312v1.549H12.47V49.507h.581v.341a.858.858,0,0,1,.18-.2,1,1,0,0,1,.228-.136,1.159,1.159,0,0,1,.222-.062,1.121,1.121,0,0,1,.215,0,1.159,1.159,0,0,1,.545.132,1.038,1.038,0,0,1,.387.367.871.871,0,0,1,.2-.242,1.253,1.253,0,0,1,.249-.159,1.314,1.314,0,0,1,.273-.076h.263a1.169,1.169,0,0,1,.442.042Zm3.272,2.075a.877.877,0,0,0,.166-.284.941.941,0,0,0,.062-.409,1,1,0,0,0-.062-.352.954.954,0,0,0-.166-.284.941.941,0,0,0-.273-.187A.781.781,0,0,0,18.912,50a.822.822,0,0,0-.352.068.837.837,0,0,0-.273.194.818.818,0,0,0-.159.284.989.989,0,0,0-.062.346.934.934,0,0,0,.062.346.75.75,0,0,0,.159.284.836.836,0,0,0,.273.194.824.824,0,0,0,.352.068.781.781,0,0,0,.341-.068.726.726,0,0,0,.273-.132ZM19.36,49.59a1.251,1.251,0,0,1,.36.3v-.38h.61v2.766h-.574v-.341a1.147,1.147,0,0,1-.36.3,1.106,1.106,0,0,1-.519.11,1.328,1.328,0,0,1-.545-.11,1.3,1.3,0,0,1-.442-.3,1.446,1.446,0,0,1-.3-.464,1.714,1.714,0,0,1,0-1.176,1.522,1.522,0,0,1,.3-.464,1.3,1.3,0,0,1,.442-.3,1.328,1.328,0,0,1,.545-.11,1.2,1.2,0,0,1,.484.145Zm3.762,1.383a1.493,1.493,0,0,0-.692-.273l-.29-.042h-.181l-.132-.145a.29.29,0,0,1-.1-.083.187.187,0,0,1,0-.125.277.277,0,0,1,.136-.242.75.75,0,0,1,.387-.09,1.07,1.07,0,0,1,.256,0l.242.055a1.376,1.376,0,0,1,.2.076l.159.083.263-.477a1.814,1.814,0,0,0-.581-.2,2.207,2.207,0,0,0-.614-.076,1.748,1.748,0,0,0-.484.062,1.085,1.085,0,0,0-.36.173.823.823,0,0,0-.312.692.692.692,0,0,0,.242.545,1.328,1.328,0,0,0,.692.273h.29a.905.905,0,0,1,.367.117.221.221,0,0,1,.117.194.284.284,0,0,1-.159.249,1,1,0,0,1-.477.09,2.033,2.033,0,0,1-.3,0,1.314,1.314,0,0,1-.249-.062l-.2-.09-.152-.09-.277.457a1.176,1.176,0,0,0,.312.18,2.255,2.255,0,0,0,.325.11,1.776,1.776,0,0,0,.3.055H22.1a2.132,2.132,0,0,0,.539-.068,1.134,1.134,0,0,0,.4-.187.879.879,0,0,0,.242-.29.74.74,0,0,0,.09-.367.692.692,0,0,0-.256-.581Zm4.074-.512a.865.865,0,0,0-.083.277h1.445a.844.844,0,0,0-.235-.505.629.629,0,0,0-.47-.187.75.75,0,0,0-.29.055.573.573,0,0,0-.2.1.614.614,0,0,0-.166.2Zm1.2-.844a1.142,1.142,0,0,1,.422.3,1.6,1.6,0,0,1,.273.464,1.784,1.784,0,0,1,.1.6.692.692,0,0,1,0,.117.629.629,0,0,1,0,.11H27.105a.86.86,0,0,0,.3.539.845.845,0,0,0,.249.125.968.968,0,0,0,.284.042,1.3,1.3,0,0,0,.422-.076,1.418,1.418,0,0,0,.387-.249l.3.429a1.383,1.383,0,0,1-.539.3,1.95,1.95,0,0,1-.6.09,1.543,1.543,0,0,1-.539-.132,1.274,1.274,0,0,1-.457-.3,1.321,1.321,0,0,1-.29-.464,1.667,1.667,0,0,1-.1-.6,1.819,1.819,0,0,1,.1-.6,1.383,1.383,0,0,1,.29-.464,1.141,1.141,0,0,1,.436-.3,1.383,1.383,0,0,1,.56-.11,1.227,1.227,0,0,1,.5.11Zm8.472,1.71a.781.781,0,0,1-.173.284.65.65,0,0,1-.263.187.8.8,0,0,1-.346.068.824.824,0,0,1-.352-.068.809.809,0,0,1-.263-.194.878.878,0,0,1-.166-.284,1.1,1.1,0,0,1-.055-.346,1.169,1.169,0,0,1,.055-.346.954.954,0,0,1,.166-.284.809.809,0,0,1,.263-.194.823.823,0,0,1,.352-.068.8.8,0,0,1,.346.068.824.824,0,0,1,.263.187.843.843,0,0,1,.173.284,1,1,0,0,1,.062.352.939.939,0,0,1-.062.29Zm0-1.383a1.169,1.169,0,0,0-.36-.3,1.142,1.142,0,0,0-.512-.11,1.288,1.288,0,0,0-.545.11,1.239,1.239,0,0,0-.442.3,1.383,1.383,0,0,0-.3.464,1.618,1.618,0,0,0,0,1.176,1.335,1.335,0,0,0,.3.464,1.238,1.238,0,0,0,.442.3,1.288,1.288,0,0,0,.545.11,1.058,1.058,0,0,0,.512-.11,1.079,1.079,0,0,0,.36-.3V52.4h.609V49.507h-.609Zm-5.672-.409a1.106,1.106,0,0,0-.464.1.976.976,0,0,0-.346.346v-.47H29.83v2.766h.56v-1.5a.933.933,0,0,1,.048-.318.782.782,0,0,1,.136-.235.56.56,0,0,1,.2-.145.692.692,0,0,1,.273-.048.942.942,0,0,1,.235,0h.125l.18-.581-.152-.035a1.28,1.28,0,0,0-.228.035Zm7.989.1a1.106,1.106,0,0,1,.464-.1,1.348,1.348,0,0,1,.249,0l.152.035-.18.581h-.125a.983.983,0,0,0-.235,0,.692.692,0,0,0-.273.048.561.561,0,0,0-.2.145.692.692,0,0,0-.136.235.933.933,0,0,0-.048.318v1.535h-.56V49.507h.554v.367a.976.976,0,0,1,.367-.332Zm-6.224.545a.907.907,0,0,0-.277.18.8.8,0,0,0-.18.284.878.878,0,0,0-.068.36.913.913,0,0,0,.068.367.83.83,0,0,0,.18.277.818.818,0,0,0,.277.187.99.99,0,0,0,.346.062,1.1,1.1,0,0,0,.38-.062.858.858,0,0,0,.3-.18l.29.491a1.459,1.459,0,0,1-.367.215,1.674,1.674,0,0,1-1.2,0,1.466,1.466,0,0,1-.47-.312,1.383,1.383,0,0,1-.318-.464,1.453,1.453,0,0,1-.11-.581,1.473,1.473,0,0,1,.11-.581,1.383,1.383,0,0,1,.318-.464,1.467,1.467,0,0,1,.47-.312,1.674,1.674,0,0,1,1.2,0,1.479,1.479,0,0,1,.367.222l-.29.484a.844.844,0,0,0-.3-.173.954.954,0,0,0-.38-.068.857.857,0,0,0-.36-.02Z" transform="translate(-10.746 -25.989)" fill-rule="evenodd"/>
      <path id="Path_4957" data-name="Path 4957" d="M58.463,53.679v.048h-.02Zm.055-.055a.11.11,0,0,1,.076,0,.068.068,0,0,1,0,.062.062.062,0,0,1,0,.048h-.055l.083.09h-.09l-.068-.09v.09H58.4v-.249Zm0,.325a.136.136,0,0,0,.076,0,.228.228,0,0,0,.068-.042l.042-.068a.246.246,0,0,0,0-.076.341.341,0,0,0,0-.083l-.042-.062-.068-.048h-.159l-.068.048-.042.062a.345.345,0,0,0,0,.083.25.25,0,0,0,0,.076l.042.068a.23.23,0,0,0,.068.042.16.16,0,0,0,.068,0Zm0-.484a.31.31,0,0,1,.11,0,.288.288,0,0,1,.1.062.282.282,0,0,1,.055.09.2.2,0,0,1,0,.11.221.221,0,0,1-.02.11.4.4,0,0,1-.055.09l-.1.062a.314.314,0,0,1-.11,0,.327.327,0,0,1-.117,0l-.1-.062-.055-.09a.313.313,0,0,1,0-.11.284.284,0,0,1,0-.11.507.507,0,0,1,.062-.09.289.289,0,0,1,.1-.062.323.323,0,0,1,.117,0Z" transform="translate(-24.855 -27.554)" fill-rule="evenodd"/>
      <path id="Path_4958" data-name="Path 4958" d="M23.023,26.506a10.477,10.477,0,0,1,3.984-8.231,10.5,10.5,0,1,0,0,16.465A10.477,10.477,0,0,1,23.023,26.5Z" transform="translate(-9.977 -16.003)" fill="#e20c16" fill-rule="evenodd"/>
      <path id="Path_4959" data-name="Path 4959" d="M28.84,27.521a10.476,10.476,0,0,0,3.984,8.239,10.49,10.49,0,0,0,0-16.465,10.476,10.476,0,0,0-3.984,8.23Z" transform="translate(-15.794 -17.018)" fill="#ea6008" fill-rule="evenodd"/>
      <path id="Path_4960" data-name="Path 4960" d="M58.781,39.23v-.277l-.09.235h-.1l-.09-.235v.273h-.09v-.395h.131l.1.25.1-.25h.132v.4Zm-.692,0v-.277H58V38.87h.346v.083h-.125v.312Z" transform="translate(-24.786 -23.042)" fill="#f59e00" fill-rule="evenodd"/>
      <path id="Path_4961" data-name="Path 4961" d="M41.095,16.01a10.465,10.465,0,0,0-6.515,2.269,10.49,10.49,0,0,1,0,16.465A10.5,10.5,0,1,0,41.095,16.01Z" transform="translate(-17.564 -16.005)" fill="#f59e00" fill-rule="evenodd"/>
    </g>
    <g id="g4158" transform="translate(458.585 351.77)">
      <path id="polygon9" d="M437.6,126.563h-4.1l2.561-15.84h4.094Z" transform="translate(-415.695 -110.438)" fill="#00579f"/>
      <path id="path11" d="M577.463,105.721a10.089,10.089,0,0,0-3.673-.674c-4.044,0-6.891,2.157-6.91,5.239-.033,2.275,2.039,3.538,3.589,4.295,1.584.775,2.123,1.281,2.123,1.971-.016,1.061-1.279,1.549-2.459,1.549a8.15,8.15,0,0,1-3.843-.843l-.539-.253-.573,3.556a12.464,12.464,0,0,0,4.567.843c4.295,0,7.094-2.123,7.127-5.409.016-1.8-1.078-3.184-3.437-4.313-1.432-.725-2.31-1.213-2.31-1.955.017-.674.744-1.363,2.359-1.363a6.957,6.957,0,0,1,3.049.606l.372.168.557-3.421Z" transform="translate(-540.711 -105.047)" fill="#00579f"/>
      <path id="path13" d="M796.858,120.949c.337-.909,1.636-4.431,1.636-4.431-.017.033.337-.926.539-1.516l.286,1.363s.776,3.793.943,4.582Zm5.057-10.225h-3.169a2.02,2.02,0,0,0-2.141,1.314l-6.082,14.52h4.295l.86-2.376h5.26c.117.556.489,2.376.489,2.376h3.793l-3.3-15.84h0Z" transform="translate(-754.664 -110.435)" fill="#00579f"/>
      <path id="path15" d="M175.948,110.727l-4.01,10.8-.438-2.19a12.122,12.122,0,0,0-5.658-6.638l3.673,13.849h4.331l6.436-15.821h-4.33Z" transform="translate(-161.557 -110.439)" fill="#00579f"/>
      <path id="path17" d="M87.821,110.722H81.232l-.068.32c5.139,1.314,8.543,4.482,9.942,8.29l-1.432-7.279a1.7,1.7,0,0,0-1.854-1.331Z" transform="translate(-81.164 -110.435)" fill="#faa61a"/>
    </g>
  </g>
</svg>
