<svg xmlns="http://www.w3.org/2000/svg" width="130" height="108.253" viewBox="0 0 130 108.253">
  <g id="Сгруппировать_5236" data-name="Сгруппировать 5236" transform="translate(18141 -15545)">
    <path id="Контур_11089" data-name="Контур 11089" d="M-18123.719,15547.693s17.758,2.471,23.852,1.6,26.287-3.656,37.779-2.785,27.158,3.482,32.383,2.785a57.591,57.591,0,0,0,10.793-2.785s-5.225,15.844-5.4,21.938,2.266,27.855,3.832,34.123-.869,21.064-.869,21.064,3.654,8.879,2.436,14.275c-5.223-.869-12.187-2.088-12.187-2.088s-17.756,5.049-29.943,2.088c-.523,3.309-.7,4.527.7,6.094s.7,6.965.7,6.965l-13.057-1.566s-26.465,3.83-44.918,0c-11.143.7-17.062,2.438-17.062,2.438s-1.564-5.746,0-8.879-.348-6.615,0-10.795,2.963-15.668,3.135-21.066-1.568-21.414-4-25.244a161.937,161.937,0,0,1,16.189.7s2.092-16.715-.52-22.459S-18123.719,15547.693-18123.719,15547.693Z" transform="translate(0.503 0.124)" fill="#fff"/>
    <g id="Сгруппировать_4730" data-name="Сгруппировать 4730" transform="translate(-18020.832 15612.317)">
      <path id="Контур_11069" data-name="Контур 11069" d="M663.193,611.277h-6.555a1.639,1.639,0,1,1,0-3.277h6.555a1.639,1.639,0,1,1,0,3.277Z" transform="translate(-655 -608)" fill="#454e63"/>
    </g>
    <g id="Сгруппировать_4731" data-name="Сгруппировать 4731" transform="translate(-18141 15612.317)">
      <path id="Контур_11070" data-name="Контур 11070" d="M554.286,611.277h-7.647a1.639,1.639,0,1,1,0-3.277h7.647a1.639,1.639,0,1,1,0,3.277Z" transform="translate(-545 -608)" fill="#454e63"/>
    </g>
    <path id="Контур_11071" data-name="Контур 11071" d="M608.459,586.136l3.21,4.712-5.693-.319-3.49,4.509-1.456-5.513-5.367-1.926,4.793-3.088Z" transform="translate(-18681.316 15002.146)" fill="#afcb08"/>
    <path id="Контур_11072" data-name="Контур 11072" d="M564.562,624.611l-5.95,3.051-.859,6.631-4.74-4.715L552.865,620l4.593-4.859,1.063,6.6Z" transform="translate(-18685.273 15004.978)" fill="#afcb08"/>
    <path id="Контур_11073" data-name="Контур 11073" d="M609.678,637.824l-4.716,3.2-.012,2.009-9.431.458,1.4-3.9-3.323-4.633,5.7.18,3.379-4.592,1.59,5.476Z" transform="translate(-18681.508 15006.402)" fill="#afcb08"/>
    <path id="Контур_11074" data-name="Контур 11074" d="M625.663,584.56c2.076,3.113-6.1,13.136-2.076,23.87,3.113,8.3,5.189,18.681,3.113,26.983h-8.3c.642,0,.247-9.438-1.038-19.718-1.038-8.3.2-18.39,0-20.756a113.931,113.931,0,0,1,3.113-11.416S624.267,582.467,625.663,584.56Z" transform="translate(-18679.35 15002.03)" fill="#8bd9f2"/>
    <g id="Сгруппировать_4732" data-name="Сгруппировать 4732" transform="translate(-18031.975 15545.155)">
      <path id="Контур_11075" data-name="Контур 11075" d="M646.44,573.668a1.639,1.639,0,0,1-.91-3c7.758-5.173,9.577-14.5,10.782-20.679.153-.781.294-1.51.436-2.172a1.639,1.639,0,0,1,3.205.688c-.139.643-.276,1.351-.425,2.111-1.229,6.3-3.285,16.848-12.181,22.778A1.637,1.637,0,0,1,646.44,573.668Z" transform="translate(-644.8 -546.521)" fill="#454e63"/>
    </g>
    <g id="Сгруппировать_4733" data-name="Сгруппировать 4733" transform="translate(-18125.295 15545.155)">
      <path id="Контур_11076" data-name="Контур 11076" d="M572.926,573.668a1.637,1.637,0,0,1-.908-.275c-8.9-5.932-10.953-16.479-12.181-22.782-.147-.758-.285-1.465-.424-2.107a1.639,1.639,0,0,1,3.205-.688c.142.661.284,1.388.435,2.169,1.2,6.176,3.023,15.508,10.782,20.682a1.639,1.639,0,0,1-.91,3Z" transform="translate(-559.376 -546.521)" fill="#454e63"/>
    </g>
    <g id="Сгруппировать_4734" data-name="Сгруппировать 4734" transform="translate(-18125.318 15545)">
      <path id="Контур_11077" data-name="Контур 11077" d="M586.266,552.011c-8.6-.138-17.011-.411-25.609-2.216a1.639,1.639,0,0,1,.674-3.207c8.261,1.735,16.449,2.007,24.8,2.143,17.56-3.088,44.3-3.142,61.06-.126a106.674,106.674,0,0,0,18.739-2.018,1.639,1.639,0,0,1,.674,3.207,110.144,110.144,0,0,1-19.489,2.091,1.581,1.581,0,0,1-.34-.025c-16.477-3-42.933-2.941-60.227.125A1.665,1.665,0,0,1,586.266,552.011Z" transform="translate(-559.355 -546.379)" fill="#454e63"/>
    </g>
    <g id="Сгруппировать_4735" data-name="Сгруппировать 4735" transform="translate(-18121.686 15558.647)">
      <path id="Контур_11078" data-name="Контур 11078" d="M565.472,588.108a1.641,1.641,0,0,1-1.621-1.889c.932-6.053,1.527-13.8-1.129-25.342a1.639,1.639,0,0,1,3.194-.735c2.78,12.086,2.153,20.217,1.173,26.577A1.639,1.639,0,0,1,565.472,588.108Z" transform="translate(-562.68 -558.871)" fill="#454e63"/>
    </g>
    <g id="Сгруппировать_4736" data-name="Сгруппировать 4736" transform="translate(-18136.717 15583.68)">
      <path id="Контур_11079" data-name="Контур 11079" d="M559.182,602.345a1.629,1.629,0,0,1-.909-.275c-6.6-4.4-8.109-12.153-9.013-16.786-.1-.545-.2-1.053-.3-1.514a1.639,1.639,0,1,1,3.205-.687c.1.48.205,1.009.317,1.575.856,4.4,2.151,11.043,7.613,14.686a1.638,1.638,0,0,1-.91,3Z" transform="translate(-548.92 -581.786)" fill="#454e63"/>
    </g>
    <g id="Сгруппировать_4737" data-name="Сгруппировать 4737" transform="translate(-18136.734 15583.542)">
      <path id="Контур_11080" data-name="Контур 11080" d="M568.84,586.668a96.66,96.66,0,0,1-18.633-1.614,1.639,1.639,0,0,1,.674-3.207,93.174,93.174,0,0,0,17.829,1.541c12.95-2.27,31.908-2.308,44.277-.092a76.618,76.618,0,0,0,13.44-1.45,1.639,1.639,0,1,1,.672,3.207,80.022,80.022,0,0,1-14.189,1.523,1.407,1.407,0,0,1-.34-.025c-11.885-2.16-30.968-2.12-43.444.091A1.665,1.665,0,0,1,568.84,586.668Z" transform="translate(-548.905 -581.66)" fill="#454e63"/>
    </g>
    <g id="Сгруппировать_4738" data-name="Сгруппировать 4738" transform="translate(-18135.756 15647.898)">
      <path id="Контур_11081" data-name="Контур 11081" d="M551.436,645.924a1.639,1.639,0,0,1-.334-3.242,91.4,91.4,0,0,1,17.629-2.111,1.69,1.69,0,0,1,.312.026c12.476,2.211,31.557,2.252,43.444.091a1.315,1.315,0,0,1,.34-.026,77.351,77.351,0,0,1,13.671,2.02,1.639,1.639,0,0,1-.672,3.207,76.067,76.067,0,0,0-12.924-1.947c-12.371,2.217-31.326,2.176-44.274-.092a87.12,87.12,0,0,0-16.854,2.039A1.62,1.62,0,0,1,551.436,645.924Z" transform="translate(-549.8 -640.571)" fill="#454e63"/>
    </g>
    <g id="Сгруппировать_4739" data-name="Сгруппировать 4739" transform="translate(-18136.311 15593.447)">
      <path id="Контур_11082" data-name="Контур 11082" d="M551.486,650.531a1.634,1.634,0,0,1-1.159-.481c-1.462-1.462-1.48-8.969.639-12.26-1.9-9.8-.671-16.047.516-22.095,1.265-6.445,2.459-12.535.06-22.962a1.638,1.638,0,1,1,3.193-.734c2.556,11.108,1.238,17.828-.037,24.327-1.206,6.151-2.345,11.961-.375,21.542a1.633,1.633,0,0,1-.446,1.489c-1.419,1.42-1.533,7.209-1.049,8.594a1.64,1.64,0,0,1-1.343,2.579Z" transform="translate(-549.293 -590.727)" fill="#454e63"/>
    </g>
    <g id="Сгруппировать_4740" data-name="Сгруппировать 4740" transform="translate(-18069.215 15583.681)">
      <path id="Контур_11083" data-name="Контур 11083" d="M612.352,602.345a1.638,1.638,0,0,1-.91-3c5.461-3.641,6.757-10.285,7.613-14.681.11-.569.214-1.1.318-1.581a1.639,1.639,0,1,1,3.2.689c-.1.462-.2.971-.3,1.517-.9,4.632-2.414,12.383-9.013,16.782A1.628,1.628,0,0,1,612.352,602.345Z" transform="translate(-610.712 -581.786)" fill="#454e63"/>
    </g>
    <g id="Сгруппировать_4741" data-name="Сгруппировать 4741" transform="translate(-18064.621 15593.447)">
      <path id="Контур_11084" data-name="Контур 11084" d="M620.142,650.531a1.641,1.641,0,0,1-1.372-2.537c.389-1.39-.063-7.164-1.536-8.637a1.636,1.636,0,0,1-.446-1.489c1.972-9.581.832-15.39-.375-21.542-1.275-6.5-2.593-13.22-.037-24.327a1.639,1.639,0,1,1,3.194.734c-2.4,10.427-1.206,16.518.058,22.963,1.186,6.046,2.412,12.293.518,22.087,2.135,3.227,2.7,10.72,1.155,12.267A1.634,1.634,0,0,1,620.142,650.531Z" transform="translate(-614.916 -590.727)" fill="#454e63"/>
    </g>
    <g id="Сгруппировать_4742" data-name="Сгруппировать 4742" transform="translate(-18033.014 15558.647)">
      <path id="Контур_11085" data-name="Контур 11085" d="M657.841,639.984a1.779,1.779,0,0,1-.263-.021c-1.511-.247-3.024-.524-4.537-.8-2.549-.466-5.184-.95-7.751-1.264a1.639,1.639,0,1,1,.4-3.254c2.666.327,5.35.818,7.946,1.3,1.029.189,2.059.378,3.086.557.342-2.694-.073-9.481-2.113-11.52a1.637,1.637,0,0,1-.446-1.489c2.749-13.353,1.079-21.436-.687-29.994-1.839-8.915-3.743-18.133-.24-33.351a1.638,1.638,0,0,1,3.193.735c-3.341,14.521-1.593,22.988.258,31.953,1.723,8.351,3.5,16.979.841,30.546,2.941,4.121,3.295,14.308,1.476,16.13A1.644,1.644,0,0,1,657.841,639.984Z" transform="translate(-643.849 -558.871)" fill="#454e63"/>
    </g>
    <g id="Сгруппировать_4743" data-name="Сгруппировать 4743" transform="translate(-18061.033 15634.408)">
      <path id="Контур_11086" data-name="Контур 11086" d="M631.009,634.094c-5.916,0-10.913-.486-11.333-.529a1.638,1.638,0,1,1,.327-3.26c5.629.561,21.461,1.322,27.043-1.869a1.639,1.639,0,0,1,1.627,2.846C644.727,633.537,637.342,634.094,631.009,634.094Z" transform="translate(-618.2 -628.222)" fill="#454e63"/>
    </g>
    <path id="Контур_11087" data-name="Контур 11087" d="M573.722,593.57l-.03,4.235,3.472,2.426-4.037,1.28-1.234,4.051-2.465-3.444-4.234.078,2.514-3.409-1.383-4,4.018,1.337Z" transform="translate(-18684.133 15002.983)" fill="#afcb08"/>
    <path id="Контур_11088" data-name="Контур 11088" d="M597.5,608.246l-2.755,7.1,4.288,6.3-7.605-.425-4.662,6.024-1.945-7.364-7.169-2.572,6.4-4.126.231-7.613,5.9,4.814Z" transform="translate(-18682.982 15004.092)" fill="#afcb08"/>
  </g>
</svg>
