<svg xmlns="http://www.w3.org/2000/svg" width="210.685" height="209.298" viewBox="0 0 210.685 209.298">
  <g id="salad" transform="translate(-9.2 -9.3)">
    <g id="Сгруппировать_4907" data-name="Сгруппировать 4907" transform="translate(9.2 9.3)">
      <g id="Сгруппировать_4872" data-name="Сгруппировать 4872">
        <ellipse id="Эллипс_813" data-name="Эллипс 813" cx="100.722" cy="100.26" rx="100.722" ry="100.26" transform="translate(4.62 4.158)" fill="#f5f4f4"/>
        <circle id="Эллипс_814" data-name="Эллипс 814" cx="98.412" cy="98.412" r="98.412" transform="translate(9.241 8.316)" fill="#afcb08"/>
        <path id="Контур_11152" data-name="Контур 11152" d="M114.542,218.6C56.327,218.6,9.2,171.472,9.2,113.718S56.327,9.3,114.542,9.3,219.885,56.427,219.885,114.18C219.422,171.472,172.3,218.6,114.542,218.6Zm0-204.678C59.1,13.92,13.82,58.737,13.82,114.18c0,54.981,45.279,100.26,100.722,100.26s100.722-44.817,100.722-100.26C214.8,58.737,169.986,13.92,114.542,13.92Z" transform="translate(-9.2 -9.3)" fill="#5c4b51"/>
        <path id="Контур_11153" data-name="Контур 11153" d="M114.469,31.7c1.386,11.089-.924,22.639-4.62,33.266a93.726,93.726,0,0,1-16.633,29.57,96.723,96.723,0,0,1-25.874,21.715,40.958,40.958,0,0,1-7.854,3.7c-2.772.924-5.082,2.31-7.854,2.772s-5.544,1.386-8.316,1.848-5.544.462-8.316.924a97.8,97.8,0,0,0,30.494-12.013A88.379,88.379,0,0,0,89.519,92.226,105.306,105.306,0,0,0,106.152,64.5c.924-2.31,2.31-5.082,2.772-7.854.924-2.772,1.386-5.082,2.31-7.854C113.545,42.789,114.007,37.244,114.469,31.7Z" transform="translate(84.203 71.794)" fill="#5c4b51" opacity="0.6"/>
      </g>
      <g id="Сгруппировать_4873" data-name="Сгруппировать 4873" transform="translate(44.008 29.546)">
        <path id="Контур_11154" data-name="Контур 11154" d="M27.145,32.513c-10.627,10.627-10.627,28.184,0,39.272a27.745,27.745,0,0,0,39.272,0C83.05,55.614,83.05,16.342,83.05,16.342S45.626,14.494,27.145,32.513Z" transform="translate(-17.096 -13.546)" fill="#f5f4f4"/>
        <path id="Контур_11155" data-name="Контур 11155" d="M27.367,32.133a25.4,25.4,0,0,0-.924,35.576,24.965,24.965,0,0,0,35.576.462C77.266,53.386,78.19,17.348,78.19,17.348S44.462,15.5,27.367,32.133Z" transform="translate(-15.47 -9.932)" fill="#9bbb00"/>
        <path id="Контур_11156" data-name="Контур 11156" d="M48.641,84.1A29.333,29.333,0,0,1,27.388,75.32c-11.551-11.551-11.551-30.494,0-42.507h0c18.481-18.481,55.905-17.1,57.291-17.1a2.183,2.183,0,0,1,2.31,2.31c0,1.848,0,40.2-17.1,57.291A29.333,29.333,0,0,1,48.641,84.1ZM30.622,36.51c-9.7,9.7-9.7,25.874,0,36.038a25.514,25.514,0,0,0,36.038,0c13.4-13.4,15.247-43.431,15.709-51.747-8.316-.462-36.962.924-51.747,15.709Z" transform="translate(-18.725 -15.695)" fill="#5c4b51"/>
        <path id="Контур_11157" data-name="Контур 11157" d="M21,59.072c5.082-7.854,11.551-14.785,18.019-21.253S52.418,24.882,60.272,19.8C55.19,27.654,48.722,34.585,42.253,41.053A161.9,161.9,0,0,1,21,59.072Z" transform="translate(-10.489 -0.833)" fill="#5c4b51"/>
      </g>
      <g id="Сгруппировать_4874" data-name="Сгруппировать 4874" transform="translate(121.376 46.85)">
        <path id="Контур_11158" data-name="Контур 11158" d="M36.588,64.155a27.807,27.807,0,0,0,21.253,32.8,27.456,27.456,0,0,0,32.8-21.253C95.727,53.066,74.474,19.8,74.474,19.8S42.132,39.205,36.588,64.155Z" transform="translate(-33.679 -18.138)" fill="#f5f4f4"/>
        <path id="Контур_11159" data-name="Контур 11159" d="M37.347,60.834A25.4,25.4,0,0,0,55.828,91.328,24.993,24.993,0,0,0,85.86,72.385C90.942,51.594,72,21.1,72,21.1S42.891,38.2,37.347,60.834Z" transform="translate(-31.203 -13.431)" fill="#9bbb00"/>
        <path id="Контур_11160" data-name="Контур 11160" d="M65.639,101.033a30.5,30.5,0,0,1-6.468-.462A30.325,30.325,0,0,1,36.07,65h0c5.544-25.874,37.886-44.817,38.81-45.279a2.436,2.436,0,0,1,3.234.924c.924,1.386,21.715,34.19,16.633,57.291A30.123,30.123,0,0,1,65.639,101.033ZM40.69,65.919c-2.772,13.4,5.544,27.26,19.405,30.032s27.26-5.544,30.032-19.405C94.285,58.065,79.5,31.729,75.342,24.337c-6.93,4.62-30.494,21.253-34.652,41.582Z" transform="translate(-35.47 -19.44)" fill="#5c4b51"/>
      </g>
      <g id="Сгруппировать_4875" data-name="Сгруппировать 4875" transform="translate(92.405 111.349)">
        <path id="Контур_11161" data-name="Контур 11161" d="M57.422,33.9a27.722,27.722,0,1,0,0,55.443c23.1,0,50.823-27.722,50.823-27.722S82.833,33.9,57.422,33.9Z" transform="translate(-27.39 -31.59)" fill="#f5f4f4"/>
        <path id="Контур_11162" data-name="Контур 11162" d="M55.774,34.7C41.913,34.7,30.362,45.327,29.9,59.187,29.9,73.048,40.989,84.6,54.849,84.6c21.253.462,47.127-24.487,47.127-24.487S79.337,35.162,55.774,34.7Z" transform="translate(-26.666 -28.694)" fill="#9bbb00"/>
        <path id="Контур_11163" data-name="Контур 11163" d="M59.232,93.464h0a30.032,30.032,0,0,1,0-60.064h0c26.336,0,51.747,27.26,52.671,28.646a2.233,2.233,0,0,1,0,3.234C110.517,66.2,83.257,93.464,59.232,93.464Zm0-4.62h0c18.943,0,41.582-19.867,47.589-25.411-6.006-6.006-26.8-25.412-47.589-25.412A25.637,25.637,0,0,0,33.82,63.432,25.338,25.338,0,0,0,59.232,88.843Z" transform="translate(-29.2 -33.4)" fill="#5c4b51"/>
        <path id="Контур_11164" data-name="Контур 11164" d="M29.7,41.71A140.4,140.4,0,0,1,57.422,39.4a140.4,140.4,0,0,1,27.722,2.31,140.4,140.4,0,0,1-27.722,2.31A140.4,140.4,0,0,1,29.7,41.71Z" transform="translate(-27.39 -11.678)" fill="#5c4b51"/>
      </g>
      <g id="Сгруппировать_4881" data-name="Сгруппировать 4881" transform="translate(71.614 69.02)">
        <g id="Сгруппировать_4876" data-name="Сгруппировать 4876" transform="translate(0 0)">
          <path id="Контур_11165" data-name="Контур 11165" d="M25.2,24.938a29.143,29.143,0,0,1,7.854,57.753Z" transform="translate(-22.89 -22.806)" fill="red"/>
          <path id="Контур_11166" data-name="Контур 11166" d="M34.865,86.435c-.924,0-2.31-.924-2.31-1.848L24.7,27.3a2.778,2.778,0,0,1,.462-1.848c.462-.462.924-.924,1.386-.924a31.233,31.233,0,0,1,35.114,26.8c.924,8.316-.924,16.633-6.006,23.1A31.912,31.912,0,0,1,34.865,86.435ZM29.782,28.681l7.392,52.671a25.8,25.8,0,0,0,15.247-9.7A27.047,27.047,0,0,0,57.5,51.783C55.656,37.922,43.181,27.757,29.782,28.681Z" transform="translate(-24.7 -24.238)" fill="#5c4b51"/>
        </g>
        <g id="Сгруппировать_4877" data-name="Сгруппировать 4877" transform="translate(17.095 18.244)">
          <circle id="Эллипс_815" data-name="Эллипс 815" cx="2.772" cy="2.772" r="2.772" transform="translate(1.947 2.805) rotate(-7.787)" fill="#f3b562"/>
          <path id="Контур_11167" data-name="Контур 11167" d="M33.482,38.873a8.566,8.566,0,0,1-3.234-.924,5.7,5.7,0,0,1-1.848-3.7,6.866,6.866,0,0,1,.924-4.158,5.7,5.7,0,0,1,3.7-1.848c2.772-.462,5.544,1.848,6.006,4.62h0c.462,2.772-1.848,5.544-4.62,6.006Zm0-6.006h0c-.462,0-.924.462-.462.924,0,.462.462.462.924.462s.462-.462.462-.924S33.944,32.867,33.482,32.867Z" transform="translate(-28.4 -28.187)" fill="#5c4b51"/>
        </g>
        <g id="Сгруппировать_4878" data-name="Сгруппировать 4878" transform="translate(18.884 29.854)">
          <circle id="Эллипс_816" data-name="Эллипс 816" cx="2.772" cy="2.772" r="2.772" transform="matrix(0.991, -0.136, 0.136, 0.991, 1.991, 2.709)" fill="#f3b562"/>
          <path id="Контур_11168" data-name="Контур 11168" d="M33.929,41.327c-2.772,0-5.082-1.848-5.082-4.62-.462-2.772,1.848-5.544,4.62-6.006a6.866,6.866,0,0,1,4.158.924,5.7,5.7,0,0,1,1.848,3.7,6.866,6.866,0,0,1-.924,4.158,5.7,5.7,0,0,1-3.7,1.848Zm0-6.006h0c-.462,0-.924.462-.462.924,0,.462.462.462.924.462s.462,0,.462-.462v-.462h0c-.462,0-.462-.462-.924-.462Z" transform="translate(-28.787 -30.7)" fill="#5c4b51"/>
        </g>
        <g id="Сгруппировать_4879" data-name="Сгруппировать 4879" transform="translate(12.937 40.019)">
          <circle id="Эллипс_817" data-name="Эллипс 817" cx="2.772" cy="2.772" r="2.772" transform="translate(1.946 2.697) rotate(-7.787)" fill="#f3b562"/>
          <path id="Контур_11169" data-name="Контур 11169" d="M32.582,43.527c-2.772,0-5.082-1.848-5.082-4.62a6.866,6.866,0,0,1,.924-4.158,5.7,5.7,0,0,1,3.7-1.848,6.866,6.866,0,0,1,4.158.924,5.7,5.7,0,0,1,1.848,3.7c0,1.386,0,2.772-.924,3.7a5.7,5.7,0,0,1-3.7,1.848A1.431,1.431,0,0,1,32.582,43.527Zm0-6.006h0c-.462,0-.924.462-.462.924,0,.462.462.462.924.462s.462,0,.462-.462v-.462h0c-.462,0-.462-.462-.924-.462Z" transform="translate(-27.5 -32.9)" fill="#5c4b51"/>
        </g>
        <g id="Сгруппировать_4880" data-name="Сгруппировать 4880" transform="translate(10.105 10.852)">
          <circle id="Эллипс_818" data-name="Эллипс 818" cx="2.772" cy="2.772" r="2.772" transform="translate(1.983 2.78) rotate(-7.811)" fill="#f3b562"/>
          <path id="Контур_11170" data-name="Контур 11170" d="M32.029,37.273a8.566,8.566,0,0,1-3.234-.924,5.7,5.7,0,0,1-1.848-3.7c-.462-2.772,1.848-5.544,4.62-6.006s5.544,1.848,6.006,4.62h0a6.866,6.866,0,0,1-.924,4.158,5.7,5.7,0,0,1-3.7,1.848Zm0-6.006h0c-.462,0-.924.462-.462.924,0,.462.462.462.924.462s.462,0,.462-.462v-.462h0C32.491,31.729,32.491,31.267,32.029,31.267Z" transform="translate(-26.887 -26.587)" fill="#5c4b51"/>
        </g>
      </g>
      <g id="Сгруппировать_4882" data-name="Сгруппировать 4882" transform="translate(21.692 81.779)">
        <path id="Контур_11171" data-name="Контур 11171" d="M30.613,83.405c10.627,10.627,28.184,10.627,39.272,0a27.745,27.745,0,0,0,0-39.272C53.714,27.5,14.442,27.5,14.442,27.5S12.594,64.924,30.613,83.405Z" transform="translate(-12.108 -25.19)" fill="#f5f4f4"/>
        <path id="Контур_11172" data-name="Контур 11172" d="M30.208,79.023a25.4,25.4,0,0,0,35.576.924,24.965,24.965,0,0,0,.462-35.576C51.461,29.124,15.423,28.2,15.423,28.2S14.037,61.928,30.208,79.023Z" transform="translate(-8.469 -22.656)" fill="#9bbb00"/>
        <path id="Контур_11173" data-name="Контур 11173" d="M52.267,95.38A29.333,29.333,0,0,1,31.013,86.6h0C12.532,68.12,13.918,30.7,13.918,29.31A2.183,2.183,0,0,1,16.229,27h0c1.848,0,40.2,0,57.291,17.1,11.551,11.551,11.551,30.494,0,42.507A30.1,30.1,0,0,1,52.267,95.38ZM34.248,83.367c9.7,9.7,25.874,9.7,36.038,0a25.514,25.514,0,0,0,0-36.038c-13.4-13.4-43.431-15.247-51.747-15.709,0,8.316.924,36.962,15.709,51.747Z" transform="translate(-13.895 -27)" fill="#5c4b51"/>
        <path id="Контур_11174" data-name="Контур 11174" d="M57.172,70.272C49.318,65.19,42.387,58.722,35.919,52.253S22.982,38.854,17.9,31c7.854,5.082,14.785,11.551,21.253,18.019S52.09,62.418,57.172,70.272Z" transform="translate(0.605 -12.519)" fill="#5c4b51"/>
      </g>
      <g id="Сгруппировать_4884" data-name="Сгруппировать 4884" transform="translate(108.395 133.697)">
        <g id="Сгруппировать_4883" data-name="Сгруппировать 4883">
          <path id="Контур_11175" data-name="Контур 11175" d="M34.035,41.2c2.31-3.7,8.779-3.234,14.785.462s8.779,9.7,6.468,12.937c-2.31,3.7-8.779,3.234-14.785-.462C34.5,50.9,31.725,44.9,34.035,41.2Z" transform="translate(-30.62 -36.75)" fill="#f3b562"/>
          <path id="Контур_11176" data-name="Контур 11176" d="M51.323,61.167a17.6,17.6,0,0,1-10.165-3.234C37,55.161,33.766,51.465,32.842,47.769a8.81,8.81,0,0,1,.924-6.006h0c3.234-4.62,11.089-4.62,18.019-.462,4.158,2.772,7.392,6.468,8.316,10.165a8.81,8.81,0,0,1-.924,6.006C57.791,59.781,55.019,61.167,51.323,61.167Zm-13.4-17.1a3.462,3.462,0,0,0-.462,2.31c.462,2.31,2.772,5.544,6.006,7.392,5.082,3.234,10.627,3.234,12.013.924a3.462,3.462,0,0,0,.462-2.31c-.462-2.31-2.772-5.544-6.006-7.392-5.544-3.234-10.627-2.772-12.013-.924Z" transform="translate(-32.661 -38.237)" fill="#5c4b51"/>
        </g>
        <path id="Контур_11177" data-name="Контур 11177" d="M34.342,41.141c.924-1.386,2.31-1.386,3.7-.924a2.436,2.436,0,0,1,.924,3.234c-.924,1.386-2.31,1.386-3.7.924A2.651,2.651,0,0,1,34.342,41.141Z" transform="translate(-27.23 -32.071)" fill="#f5f4f4"/>
      </g>
      <g id="Сгруппировать_4886" data-name="Сгруппировать 4886" transform="translate(88.504 149.589)">
        <g id="Сгруппировать_4885" data-name="Сгруппировать 4885">
          <path id="Контур_11178" data-name="Контур 11178" d="M33.877,42.185c4.158-.924,8.779,4.158,10.165,10.627,1.386,6.93-.462,12.937-4.62,13.861s-8.779-4.158-10.165-10.627S29.719,43.109,33.877,42.185Z" transform="translate(-26.741 -40.229)" fill="#f3b562"/>
          <path id="Контур_11179" data-name="Контур 11179" d="M40.574,70.892c-5.082,0-9.7-5.082-11.551-12.475a17.061,17.061,0,0,1,1.386-12.937c1.386-1.848,2.772-3.234,5.082-3.7h0c5.544-.924,11.089,4.158,12.937,12.475A17.061,17.061,0,0,1,47.042,67.2c-1.386,1.848-2.772,3.234-5.082,3.7Zm-4.62-24.949c-.924,0-1.386.462-1.848,1.386-1.386,2.31-1.848,6.006-.924,9.7,1.386,6.006,5.082,9.7,7.854,9.241.924,0,1.386-.462,1.848-1.386,1.386-2.31,1.848-6.006.924-9.7-1.386-6.006-5.082-9.7-7.854-9.241Z" transform="translate(-28.356 -41.677)" fill="#5c4b51"/>
        </g>
        <path id="Контур_11180" data-name="Контур 11180" d="M31.848,45.194c1.386-.462,2.31.462,2.772,1.848s-.462,2.31-1.848,2.772-2.31-.462-2.772-1.848C30,46.58,30.924,45.194,31.848,45.194Z" transform="translate(-22.402 -29.377)" fill="#f5f4f4"/>
      </g>
      <g id="Сгруппировать_4888" data-name="Сгруппировать 4888" transform="translate(55.588 68.63)">
        <g id="Сгруппировать_4887" data-name="Сгруппировать 4887">
          <path id="Контур_11181" data-name="Контур 11181" d="M26.777,24.692c4.158-.924,8.779,3.7,10.627,10.627s-.462,12.937-4.62,13.861S24,45.483,22.157,38.553C20.77,32.084,22.619,25.616,26.777,24.692Z" transform="translate(-19.529 -22.632)" fill="#f3b562"/>
          <path id="Контур_11182" data-name="Контур 11182" d="M33.562,53.474c-5.082,0-9.7-5.082-11.551-12.475-1.386-5.082-.924-9.7,1.386-12.937,1.386-1.848,2.772-3.234,5.082-3.7h0c5.544-1.386,11.089,4.158,13.4,12.475,1.386,5.082.924,9.7-1.386,12.937-1.386,1.848-2.772,3.234-5.082,3.7Zm-4.62-24.949c-.924,0-1.386.462-1.848,1.386-1.386,2.31-1.848,6.006-.924,9.7,1.386,6.006,5.082,9.7,7.854,8.779.924,0,1.386-.462,1.848-1.386C37.258,44.7,37.72,41,36.8,37.3c-1.386-6.006-5.544-9.241-7.854-8.779Z" transform="translate(-21.231 -24.154)" fill="#5c4b51"/>
        </g>
        <path id="Контур_11183" data-name="Контур 11183" d="M24.148,25.994a2.628,2.628,0,0,1,3.234,1.848,2.036,2.036,0,0,1-1.848,2.772A2.628,2.628,0,0,1,22.3,28.766,2.873,2.873,0,0,1,24.148,25.994Z" transform="translate(-17.362 -17.927)" fill="#f5f4f4"/>
      </g>
      <g id="Сгруппировать_4890" data-name="Сгруппировать 4890" transform="translate(127.44 54.057)">
        <g id="Сгруппировать_4889" data-name="Сгруппировать 4889">
          <path id="Контур_11184" data-name="Контур 11184" d="M56.158,22.809c3.234,2.772,1.848,9.7-3.234,14.785-4.62,5.082-11.089,6.93-13.861,4.158-3.234-2.772-1.848-9.241,3.234-14.785C46.918,21.885,53.386,20.037,56.158,22.809Z" transform="translate(-34.825 -19.113)" fill="#f3b562"/>
          <path id="Контур_11185" data-name="Контур 11185" d="M44.717,46.874a9.907,9.907,0,0,1-5.544-1.848c-4.158-3.7-2.772-11.551,3.234-18.019C45.641,23.31,50.262,21,53.958,21c2.31,0,4.158.462,5.544,1.848h0c4.158,3.7,2.772,11.551-3.234,18.019-3.234,3.7-7.392,6.006-11.551,6.006Zm9.7-21.253h0c-2.772,0-6.006,1.848-8.779,4.62-4.158,4.62-5.082,9.7-3.234,11.551a3.529,3.529,0,0,0,2.31.924c2.772,0,6.006-1.848,8.316-4.62,4.158-4.62,5.082-9.7,3.234-11.551h0C55.806,25.62,55.344,25.62,54.42,25.62Z" transform="translate(-36.783 -21)" fill="#5c4b51"/>
        </g>
        <path id="Контур_11186" data-name="Контур 11186" d="M43.739,23.043a2.811,2.811,0,0,1,0,3.7c-.924.924-2.31.924-3.7,0a2.811,2.811,0,0,1,0-3.7C40.967,22.119,42.353,22.119,43.739,23.043Z" transform="translate(-27.488 -16.113)" fill="#f5f4f4"/>
      </g>
      <g id="Сгруппировать_4896" data-name="Сгруппировать 4896" transform="translate(65.434 121.513)">
        <g id="Сгруппировать_4891" data-name="Сгруппировать 4891" transform="translate(0)">
          <path id="Контур_11187" data-name="Контур 11187" d="M32.634,85.854c-11.551-11.089-11.551-29.57-.462-41.12s29.57-11.551,41.12-.462Z" transform="translate(-21.371 -34.107)" fill="red"/>
          <path id="Контур_11188" data-name="Контур 11188" d="M34.625,89.657c-.462,0-1.386-.462-1.848-.462C20.3,77.182,20.3,57.315,32.315,44.841A31.115,31.115,0,0,1,54.492,35.6,32.7,32.7,0,0,1,76.67,44.379a2.233,2.233,0,0,1,0,3.234L36.011,89.2c0,.462-.924.462-1.386.462ZM54.954,40.22h0a26.169,26.169,0,0,0-18.943,7.854c-9.7,10.165-10.165,25.874-1.386,36.038L72.049,46.227A26.658,26.658,0,0,0,54.954,40.22Z" transform="translate(-23.362 -35.6)" fill="#5c4b51"/>
        </g>
        <g id="Сгруппировать_4892" data-name="Сгруппировать 4892" transform="translate(9.992 17.673)">
          <circle id="Эллипс_819" data-name="Эллипс 819" cx="2.772" cy="2.772" r="2.772" transform="matrix(0.7, -0.714, 0.714, 0.7, 1.627, 5.602)" fill="#f3b562"/>
          <path id="Контур_11189" data-name="Контур 11189" d="M30.954,49.936a5.246,5.246,0,0,1-3.7-1.386,4.809,4.809,0,0,1,0-7.392h0a4.809,4.809,0,0,1,7.392,0,4.809,4.809,0,0,1,0,7.392A5.246,5.246,0,0,1,30.954,49.936Zm-.462-5.544c-.462.462-.462.924,0,.924.462.462.924.462.924,0,.462-.462.462-.924,0-.924C31.416,43.93,30.954,43.93,30.492,44.392Z" transform="translate(-25.525 -39.425)" fill="#5c4b51"/>
        </g>
        <g id="Сгруппировать_4893" data-name="Сгруппировать 4893" transform="translate(18.309 9.356)">
          <circle id="Эллипс_820" data-name="Эллипс 820" cx="2.772" cy="2.772" r="2.772" transform="matrix(0.7, -0.714, 0.714, 0.7, 1.633, 5.503)" fill="#f3b562"/>
          <path id="Контур_11190" data-name="Контур 11190" d="M32.754,48.136a5.246,5.246,0,0,1-3.7-1.386,4.809,4.809,0,0,1,0-7.392h0a4.809,4.809,0,0,1,7.392,0,4.809,4.809,0,0,1,0,7.392A5.246,5.246,0,0,1,32.754,48.136Zm-.462-5.544c-.462.462-.462.924,0,.924.462.462.924.462.924,0,.462-.462.462-.924,0-.924C33.216,42.13,32.754,42.13,32.292,42.592Z" transform="translate(-27.325 -37.625)" fill="#5c4b51"/>
        </g>
        <g id="Сгруппировать_4894" data-name="Сгруппировать 4894" transform="translate(30.668 8.317)">
          <circle id="Эллипс_821" data-name="Эллипс 821" cx="2.772" cy="2.772" r="2.772" transform="matrix(0.7, -0.714, 0.714, 0.7, 1.181, 4.961)" fill="#f3b562"/>
          <path id="Контур_11191" data-name="Контур 11191" d="M35.082,47.565a4.77,4.77,0,1,1,3.7-1.386,5.246,5.246,0,0,1-3.7,1.386Zm0-6.006H34.62v.924h.924v-.924Zm-2.31-1.386Z" transform="translate(-30 -37.4)" fill="#5c4b51"/>
        </g>
        <g id="Сгруппировать_4895" data-name="Сгруппировать 4895" transform="translate(8.953 27.837)">
          <circle id="Эллипс_822" data-name="Эллипс 822" cx="2.772" cy="2.772" r="2.772" transform="matrix(0.7, -0.714, 0.714, 0.7, 1.323, 5.559)" fill="#f3b562"/>
          <path id="Контур_11192" data-name="Контур 11192" d="M30.382,52.136a5.231,5.231,0,0,1-3.7-8.779h0a4.809,4.809,0,0,1,7.392,0,5.621,5.621,0,0,1,0,7.392,4.548,4.548,0,0,1-3.7,1.386Zm0-6.006H29.92v.924h.924V46.13Zm-1.848-1.386Z" transform="translate(-25.3 -41.625)" fill="#5c4b51"/>
        </g>
      </g>
      <g id="Сгруппировать_4902" data-name="Сгруппировать 4902" transform="translate(98.596 39.421)">
        <g id="Сгруппировать_4897" data-name="Сгруппировать 4897">
          <path id="Контур_11193" data-name="Контур 11193" d="M45.79,72.462A28.855,28.855,0,1,1,73.973,22.1Z" transform="translate(-28.879 -15.781)" fill="red"/>
          <path id="Контур_11194" data-name="Контур 11194" d="M47.451,76.823c-.462,0-.924,0-.924-.462C31.28,68.045,26.2,48.639,34.514,33.855A30.55,30.55,0,0,1,53.457,19.07a31.306,31.306,0,0,1,24.025,2.772,2.651,2.651,0,0,1,.924,3.234L50.223,75.9c-.462.462-.924.924-1.386.924ZM61.311,22.3a40.438,40.438,0,0,0-7.392.924A27.382,27.382,0,0,0,37.748,35.7a26.466,26.466,0,0,0,8.316,35.114l25.874-46.2A27.407,27.407,0,0,0,61.311,22.3Z" transform="translate(-30.54 -17.832)" fill="#5c4b51"/>
        </g>
        <g id="Сгруппировать_4898" data-name="Сгруппировать 4898" transform="translate(7.633 22.764)">
          <circle id="Эллипс_823" data-name="Эллипс 823" cx="2.772" cy="2.772" r="2.772" transform="matrix(0.487, -0.873, 0.873, 0.487, 1.846, 6.055)" fill="#f3b562"/>
          <path id="Контур_11195" data-name="Контур 11195" d="M37.774,33.113A5.86,5.86,0,0,1,35,32.651a4.919,4.919,0,0,1-1.848-7.392h0a5.663,5.663,0,0,1,7.392-1.848,3.474,3.474,0,0,1,2.31,3.234,6.523,6.523,0,0,1-.462,4.158A7.383,7.383,0,0,1,37.774,33.113Zm-.462-6.006c0,.462,0,.924.462.924s.924,0,.924-.462,0-.924-.462-.924A1.613,1.613,0,0,0,37.312,27.107Z" transform="translate(-32.192 -22.759)" fill="#5c4b51"/>
        </g>
        <g id="Сгруппировать_4899" data-name="Сгруппировать 4899" transform="translate(13.947 12.135)">
          <circle id="Эллипс_824" data-name="Эллипс 824" cx="2.772" cy="2.772" r="2.772" transform="translate(1.446 6.22) rotate(-60.805)" fill="#f3b562"/>
          <path id="Контур_11196" data-name="Контур 11196" d="M38.832,30.815a5.86,5.86,0,0,1-2.772-.462,3.474,3.474,0,0,1-2.31-3.234,6.524,6.524,0,0,1,.462-4.158h0a3.474,3.474,0,0,1,3.234-2.31,6.523,6.523,0,0,1,4.158.462,3.474,3.474,0,0,1,2.31,3.234,6.524,6.524,0,0,1-.462,4.158,3.474,3.474,0,0,1-3.234,2.31Zm0-5.544h0c-.462,0-.462,0-.462.462h0v.462a.453.453,0,0,0,.462.462h.462a.453.453,0,0,0,.462-.462v-.462c-.462-.462-.462-.462-.924-.462Zm-2.772-.924Z" transform="translate(-33.559 -20.459)" fill="#5c4b51"/>
        </g>
        <g id="Сгруппировать_4900" data-name="Сгруппировать 4900" transform="translate(24.266 8.168)">
          <circle id="Эллипс_825" data-name="Эллипс 825" cx="2.772" cy="2.772" r="2.772" transform="translate(1.726 5.982) rotate(-60.805)" fill="#f3b562"/>
          <path id="Контур_11197" data-name="Контур 11197" d="M41.374,29.765A5.86,5.86,0,0,1,38.6,29.3a4.919,4.919,0,0,1-1.848-7.392h0c.924-1.386,1.848-2.31,3.234-2.31a12.792,12.792,0,0,1,4.158.462c2.772,1.386,3.234,4.62,1.848,7.392a3.474,3.474,0,0,1-3.234,2.31Zm-.462-5.544c0,.462,0,.924.462.924h.462a.453.453,0,0,0,.462-.462c0-.462,0-.924-.462-.924a1.431,1.431,0,0,0-.924.462C41.374,23.758,40.912,23.758,40.912,24.22Z" transform="translate(-35.792 -19.6)" fill="#5c4b51"/>
        </g>
        <g id="Сгруппировать_4901" data-name="Сгруппировать 4901" transform="translate(9.019 32.926)">
          <circle id="Эллипс_826" data-name="Эллипс 826" cx="2.772" cy="2.772" r="2.772" transform="matrix(0.488, -0.873, 0.873, 0.488, 1.83, 5.93)" fill="#f3b562"/>
          <path id="Контур_11198" data-name="Контур 11198" d="M38.074,35.315a5.86,5.86,0,0,1-2.772-.462,4.919,4.919,0,0,1-1.848-7.392h0a3.474,3.474,0,0,1,3.234-2.31,6.523,6.523,0,0,1,4.158.462,3.474,3.474,0,0,1,2.31,3.234A6.524,6.524,0,0,1,42.694,33a3.474,3.474,0,0,1-3.234,2.31C39,34.853,38.536,35.315,38.074,35.315Zm0-6.006h0c-.462,0-.462,0-.462.462h0c0,.462,0,.924.462.924h.462A.453.453,0,0,0,39,30.232V29.77c-.462-.462-.462-.462-.924-.462ZM35.3,28.384Z" transform="translate(-32.492 -24.959)" fill="#5c4b51"/>
        </g>
      </g>
      <g id="Сгруппировать_4905" data-name="Сгруппировать 4905" transform="translate(96.467 70.59)">
        <g id="Сгруппировать_4903" data-name="Сгруппировать 4903" transform="translate(0 0)">
          <path id="Контур_11199" data-name="Контур 11199" d="M73.611,79.526C62.06,88.3,44.5,86.918,35.725,75.367S30.18,46.26,41.731,37.481c14.785-11.551,42.507-17.557,51.285-6.006C101.333,43.026,88.858,67.513,73.611,79.526Z" transform="translate(-27.773 -22.134)" fill="#f5f4f4"/>
          <path id="Контур_11200" data-name="Контур 11200" d="M72.027,77.393c-11.089,8.316-27.722,6.93-36.038-4.158S30.445,45.975,41.533,37.2C52.622,28.88,82.192,20.1,90.97,31.19,99.287,42.741,83.116,69.076,72.027,77.393Z" transform="translate(-26.189 -19.539)" fill="#f5f4f4"/>
          <path id="Контур_11201" data-name="Контур 11201" d="M58.822,90.286H55.588c-7.854-.924-15.247-4.62-19.867-11.089-9.7-12.475-6.468-31.418,6.468-41.12C50.967,31.609,61.594,26.526,71.3,25.14c11.089-1.848,20.329.924,25.412,7.392C108.721,48.242,88.392,74.115,77.3,83.818h0A29.023,29.023,0,0,1,58.822,90.286ZM77.765,29.3a24.408,24.408,0,0,0-6.006.462c-8.779,1.386-18.943,6.006-26.8,12.013C33.872,50.09,31.562,65.8,39.417,76.425c3.7,5.082,10.165,8.316,16.633,9.241a24.529,24.529,0,0,0,18.019-5.082C87.006,69.5,101.328,46.856,93.012,35.767,89.316,30.685,83.309,29.3,77.765,29.3ZM75.917,81.97Z" transform="translate(-30.079 -24.578)" fill="#5c4b51"/>
          <path id="Контур_11202" data-name="Контур 11202" d="M61.946,36c-.924,2.772-3.234,4.62-5.544,6.468a17.292,17.292,0,0,1-8.316,2.31,20.021,20.021,0,0,1-8.779-1.848A12.637,12.637,0,0,1,33.3,36.924c5.082,2.31,9.7,3.7,14.323,3.234a35.663,35.663,0,0,0,6.93-.924A35.764,35.764,0,0,0,61.946,36Z" transform="translate(-18.418 16.771)" fill="#5c4b51" opacity="0.6"/>
        </g>
        <ellipse id="Эллипс_827" data-name="Эллипс 827" cx="18.943" cy="15.247" rx="18.943" ry="15.247" transform="translate(7.296 34.912) rotate(-37.394)" fill="#fff"/>
        <ellipse id="Эллипс_828" data-name="Эллипс 828" cx="17.095" cy="13.399" rx="17.095" ry="13.399" transform="translate(10.181 36.774) rotate(-37.402)" fill="#f3b562"/>
        <path id="Контур_11203" data-name="Контур 11203" d="M48.73,65.86c-5.082,0-10.165-1.848-12.937-6.006-6.006-7.392-3.234-19.405,6.006-26.8,9.241-6.93,21.715-6.468,27.26.924a16,16,0,0,1,2.31,13.861,22.63,22.63,0,0,1-8.779,12.937h0A20.664,20.664,0,0,1,48.73,65.86Zm7.392-32.8a19.689,19.689,0,0,0-11.551,4.158c-7.392,5.544-9.7,14.785-5.544,20.329s13.861,5.544,20.791,0h0a18.434,18.434,0,0,0,6.93-10.165c.924-3.7.462-7.392-1.848-9.7C63.053,34.442,59.818,33.056,56.122,33.056Z" transform="translate(-20.911 -11.703)" fill="#5c4b51"/>
        <g id="Сгруппировать_4904" data-name="Сгруппировать 4904" transform="translate(17.593 25.125)">
          <circle id="Эллипс_829" data-name="Эллипс 829" cx="4.62" cy="4.62" r="4.62" transform="matrix(0.794, -0.608, 0.608, 0.794, 0, 5.615)" fill="#f5f4f4"/>
          <circle id="Эллипс_830" data-name="Эллипс 830" cx="2.31" cy="2.31" r="2.31" transform="translate(2.259 17.58) rotate(-37.454)" fill="#f5f4f4"/>
        </g>
      </g>
      <g id="Сгруппировать_4906" data-name="Сгруппировать 4906" transform="translate(34.652 32.804)">
        <circle id="Эллипс_831" data-name="Эллипс 831" cx="4.62" cy="4.62" r="4.62" fill="#f5f4f4"/>
        <circle id="Эллипс_832" data-name="Эллипс 832" cx="2.31" cy="2.31" r="2.31" transform="translate(9.241 10.165)" fill="#f5f4f4"/>
      </g>
    </g>
  </g>
</svg>
