<svg xmlns="http://www.w3.org/2000/svg" width="125.281" height="132.185" viewBox="0 0 125.281 132.185">
  <g id="spoon__x26__fork" transform="translate(-8.999 -6.416)">
    <g id="Сгруппировать_4934" data-name="Сгруппировать 4934" transform="translate(8.999 6.416)">
      <g id="Сгруппировать_4928" data-name="Сгруппировать 4928">
        <g id="Сгруппировать_4924" data-name="Сгруппировать 4924" transform="translate(0 38.703)">
          <path id="Контур_11230" data-name="Контур 11230" d="M10.31,79.779c-1.92,1.92,0,6.584,1.646,8.23h0c1.92,1.92,6.858,3.292,8.5,1.372l55.69-62c1.92-1.92,3.018-3.566,1.1-5.487h0c-1.92-1.92-3.566-.549-5.487,1.1Z" transform="translate(-8.113 -19.767)" fill="#f5f4f4"/>
          <path id="Контур_11231" data-name="Контур 11231" d="M18.877,92.607h0a10.968,10.968,0,0,1-7.133-2.743C9.824,87.669,7.63,82.183,10.1,79.439h0L71.824,22.926a7,7,0,0,1,3.292-2.195,3.753,3.753,0,0,1,4.115,1.1,3.753,3.753,0,0,1,1.1,4.115,7.693,7.693,0,0,1-2.195,3.292l-55.69,62A4.739,4.739,0,0,1,18.877,92.607ZM12.019,81.36a3.023,3.023,0,0,0-.274,2.743,7.486,7.486,0,0,0,1.92,3.566,9.061,9.061,0,0,0,5.212,1.92h0a2.319,2.319,0,0,0,1.646-.549l55.69-61.725a8.993,8.993,0,0,0,1.646-2.195,1.153,1.153,0,0,0-.549-1.372,1.773,1.773,0,0,0-1.372-.549,6.6,6.6,0,0,0-2.195,1.646Z" transform="translate(-8.999 -20.524)" fill="#5c4b51"/>
        </g>
        <g id="Сгруппировать_4925" data-name="Сгруппировать 4925" transform="translate(53.436)">
          <ellipse id="Эллипс_840" data-name="Эллипс 840" cx="24.141" cy="15.911" rx="24.141" ry="15.911" transform="matrix(0.707, -0.707, 0.707, 0.707, 0, 34.136)" fill="#f5f4f4"/>
          <path id="Контур_11232" data-name="Контур 11232" d="M44.588,52.214a13.436,13.436,0,0,1-9.876-3.841c-6.858-6.858-4.115-20.3,5.761-30.177S63.791,5.851,70.65,12.435c6.858,6.858,4.115,20.3-5.761,30.177-4.664,4.664-10.425,7.956-15.911,9.053A12.833,12.833,0,0,1,44.588,52.214ZM60.5,11.612c-5.761,0-12.619,3.018-18.106,8.779-8.779,8.779-11.522,20.575-5.761,26.336,2.743,2.743,6.858,3.566,11.8,2.743,4.938-1.1,10.15-4.115,14.54-8.23A27.119,27.119,0,0,0,71.2,26.7c1.1-4.938,0-9.053-2.469-11.8C66.535,12.435,63.791,11.612,60.5,11.612Z" transform="translate(-24.226 -2.329)" fill="#5c4b51"/>
        </g>
        <path id="Контур_11233" data-name="Контур 11233" d="M51.657,19.5a9.577,9.577,0,0,1-3.292,4.115A14.555,14.555,0,0,1,43.7,25.81a16.609,16.609,0,0,1-5.212,0A7.539,7.539,0,0,1,34.1,23.066a30.548,30.548,0,0,0,4.664.549,11.371,11.371,0,0,0,4.389-.549,26.966,26.966,0,0,0,4.389-1.372A15.041,15.041,0,0,0,51.657,19.5Z" transform="translate(34.76 16.393)" fill="#5c4b51" opacity="0.7"/>
        <g id="Сгруппировать_4927" data-name="Сгруппировать 4927" transform="translate(0 68.95)">
          <path id="Контур_11234" data-name="Контур 11234" d="M41.035,32.1,10.31,60.356c-1.92,1.92,0,6.584,1.646,8.23,1.92,1.92,6.858,3.292,8.5,1.372l27.708-31Z" transform="translate(-8.113 -30.591)" fill="#f5f4f4"/>
          <path id="Контур_11235" data-name="Контур 11235" d="M39.537,33.8,11.28,60.41c-1.646,1.646-.823,5.487.549,6.858s5.212,2.195,7.133.274L45.023,39.012Z" transform="translate(-6.615 -27.627)" fill="#afcb08"/>
          <path id="Контур_11236" data-name="Контур 11236" d="M18.877,73.386h0a10.968,10.968,0,0,1-7.133-2.743C9.824,68.448,7.63,62.961,10.1,60.218L40.824,31.962a1.326,1.326,0,0,1,1.92,0l7.133,7.133a1.326,1.326,0,0,1,0,1.92l-27.433,31A4.739,4.739,0,0,1,18.877,73.386ZM41.921,34.979l-29.9,27.433c-1.1,1.1.274,4.664,1.646,6.31a9.061,9.061,0,0,0,5.212,1.92h0a2.319,2.319,0,0,0,1.646-.549l26.885-29.9Z" transform="translate(-8.999 -31.55)" fill="#5c4b51"/>
          <g id="Сгруппировать_4926" data-name="Сгруппировать 4926" transform="translate(5.842 28.559)">
            <circle id="Эллипс_841" data-name="Эллипс 841" cx="1.372" cy="1.372" r="1.372" transform="translate(0 2.271) rotate(-55.882)" fill="#f5f4f4"/>
          </g>
        </g>
      </g>
      <g id="Сгруппировать_4933" data-name="Сгруппировать 4933" transform="translate(19.827 26.921)">
        <g id="Сгруппировать_4929" data-name="Сгруппировать 4929" transform="translate(33.67)">
          <path id="Контур_11237" data-name="Контур 11237" d="M96.975,27.289c1.92-1.92,0-6.584-1.646-8.23h0c-1.92-1.92-6.858-3.292-8.5-1.372l-55.69,62c-1.92,1.92-3.018,3.566-1.1,5.487h0c1.92,1.92,3.566.549,5.487-1.1Z" transform="translate(-27.569 -15.3)" fill="#f5f4f4"/>
          <path id="Контур_11238" data-name="Контур 11238" d="M32.615,88.3a3.338,3.338,0,0,1-2.743-1.372A4.405,4.405,0,0,1,28.5,83.909c0-1.92,1.372-3.292,2.469-4.389l55.69-62c2.743-2.743,8.5-.549,10.7,1.372,2.195,2.195,4.389,7.681,1.646,10.15h0L37.279,85.829C36.456,86.652,34.81,88.3,32.615,88.3ZM89.951,19.166a2.016,2.016,0,0,0-1.646.549L32.889,81.44c-1.1,1.1-1.646,1.92-1.646,2.743a1.7,1.7,0,0,0,.549,1.1c.549.549,1.1,1.1,3.566-1.1L97.084,27.671c1.1-1.1-.274-4.938-1.646-6.31A8.156,8.156,0,0,0,89.951,19.166Zm7.956,9.053Z" transform="translate(-28.5 -16.23)" fill="#5c4b51"/>
        </g>
        <g id="Сгруппировать_4930" data-name="Сгруппировать 4930" transform="translate(0 61.247)">
          <path id="Контур_11239" data-name="Контур 11239" d="M16.606,67.391C17.154,67.94,37.181,52.577,38,53.4S21.269,72.878,23.19,74.8,43.765,58.887,44.313,59.436,28.951,79.462,30.048,80.559,70.1,56.692,55.561,42.153C41.3,27.613,16.057,66.843,16.606,67.391Z" transform="translate(-15.581 -37.914)" fill="#f5f4f4"/>
          <path id="Контур_11240" data-name="Контур 11240" d="M30.968,82.572a1.008,1.008,0,0,1-.823-.274c-1.372-1.372-.823-2.469,8.23-14.54.274-.274.549-.823.823-1.1-10.973,9.327-14.54,11.8-16.186,9.876-1.92-1.92.549-5.212,9.6-16.186a5.984,5.984,0,0,1,1.1-1.372,66.55,66.55,0,0,0-5.487,3.841c-10.7,7.681-10.7,7.681-11.8,6.584h0c-1.92-2.195,10.425-16.734,14.265-20.575,13.991-13.717,22.221-11.248,26.885-6.584,6.584,6.584,4.115,15.911-6.584,26.61C47.153,72.421,34.808,82.572,30.968,82.572ZM45.233,58.7c.274,0,.549.274.823.549,1.1,1.1.823,1.646-5.487,10.15-1.92,2.743-4.938,6.584-6.584,9.053,6.584-3.841,21.124-14.814,23.867-24.69a9.4,9.4,0,0,0-2.469-9.876,9.119,9.119,0,0,0-9.053-2.469C37,43.616,26.03,57.059,21.092,64.191c1.646-1.1,3.566-2.469,5.212-3.566,11.8-8.5,12.071-8.23,13.168-7.133s.549,2.195-5.212,8.779a137.058,137.058,0,0,0-9.053,11.8,108.061,108.061,0,0,0,12.071-9.6C42.49,60.076,44.136,58.7,45.233,58.7Z" transform="translate(-16.227 -38.555)" fill="#5c4b51"/>
        </g>
        <path id="Контур_11241" data-name="Контур 11241" d="M30.2,40.5a7.022,7.022,0,0,1,2.743,3.566,12.815,12.815,0,0,1,.823,4.664,8.29,8.29,0,0,1-1.372,4.389A9.457,9.457,0,0,1,29.1,56.411,24.141,24.141,0,0,0,30.472,52.3a18.525,18.525,0,0,0,.549-3.841V44.615A21.87,21.87,0,0,0,30.2,40.5Z" transform="translate(6.216 26.082)" fill="#5c4b51" opacity="0.7"/>
        <g id="Сгруппировать_4932" data-name="Сгруппировать 4932" transform="translate(63.436 0.252)">
          <path id="Контур_11242" data-name="Контур 11242" d="M47.033,55.646,77.758,27.389c1.92-1.92,0-6.584-1.646-8.23-1.92-1.92-6.858-3.292-8.5-1.372L39.9,48.513Z" transform="translate(-38.391 -15.378)" fill="#f5f4f4"/>
          <path id="Контур_11243" data-name="Контур 11243" d="M46.012,53.162l28.256-26.61c1.646-1.646.823-5.487-.549-6.858s-5.212-2.195-7.133-.274L40.8,47.675Z" transform="translate(-36.822 -12.893)" fill="#afcb08"/>
          <path id="Контур_11244" data-name="Контур 11244" d="M47.992,57.961a1.649,1.649,0,0,1-1.1-.274l-7.133-7.133a1.326,1.326,0,0,1,0-1.92l27.708-31a6,6,0,0,1,5.487-1.1,11.94,11.94,0,0,1,4.938,2.469,9.615,9.615,0,0,1,2.469,4.664c.549,2.469.274,4.389-.823,5.487L49.089,57.687C48.815,57.687,48.266,57.961,47.992,57.961Zm-5.212-8.779,5.212,5.212,29.9-27.433a2.957,2.957,0,0,0,0-2.743,7.486,7.486,0,0,0-1.92-3.566,7.182,7.182,0,0,0-3.566-1.646c-1.372-.274-2.469-.274-3.018.274Z" transform="translate(-39.35 -16.322)" fill="#5c4b51"/>
          <g id="Сгруппировать_4931" data-name="Сгруппировать 4931" transform="translate(29.726 4.14)">
            <circle id="Эллипс_842" data-name="Эллипс 842" cx="1.372" cy="1.372" r="1.372" transform="translate(0 2.271) rotate(-55.875)" fill="#f5f4f4"/>
          </g>
        </g>
      </g>
    </g>
  </g>
</svg>
